<svg width="963" height="598" viewBox="0 0 1049 652" fill="none" xmlns="http://www.w3.org/2000/svg">
<g id="b-floor-1-1">
<path id="b-1-background" d="M2 514.04V15.9076H130.562V4H194.592V30.792H978.968V4H1046V527.932H980.969V500.148H722.345V539.84L723.879 541.072C729.587 545.659 734.498 551.158 738.413 557.347L739.348 558.824C743.64 565.609 746.489 573.269 747.697 581.206C753.019 616.177 725.62 648 690.246 648C662.08 648 637.859 627.434 633.607 599.591C632.097 589.7 633.215 579.586 636.851 570.264L637.281 569.162C641.033 559.543 647.149 551.024 655.064 544.393L660.5 539.84V500.148H333.659V514.04H2Z" fill="white" stroke="white" stroke-width="4"/>
<g id="b-1-fire-escape">
<path id="b-1-fire-escape-2" d="M985 457H1042.5V526H985V498.5V457Z" fill="#D9D9D9"/>
<path id="b-1-fire-escape-1" d="M983 6H1042.5V69.5H983V33V6Z" fill="#D9D9D9"/>
</g>
<path id="b-1-space-14" d="M135.5 430V286L151.5 298.614V430H135.5Z" fill="#D9D9D9" stroke="#D9D9D9"/>
<path id="b-1-space-13" d="M151.5 100.5H135.5V245L151.5 232.5V100.5Z" fill="#D9D9D9" stroke="#D9D9D9"/>
<path id="b-1-spase-12" d="M191.5 453H7.5V511.5H191.5V453Z" fill="#D9D9D9" stroke="#D9D9D9"/>
<path id="b-1-cp-1" d="M7.5 76V18.5H129.5H136V6.5H191V76H129.5H7.5Z" fill="#D9D9D9" stroke="#D9D9D9"/>
<path id="b-1-space-10" d="M7.5 295.5V224L17.5 235V285.5L7.5 295.5Z" fill="#D9D9D9" stroke="#D9D9D9"/>
<path id="b-1-space-7" d="M1042 333H983.5V390.5H1012.84H1042V333Z" fill="#D9D9D9" stroke="#D9D9D9"/>
<path id="b-1-space-6" d="M790 497.5V333H848.5V393H917V333H977.5L977.304 396.5H1042V451.5H979.5V497.5H790Z" fill="#D9D9D9" stroke="#D9D9D9"/>
<path id="b-1-space-5" d="M1042 199.5H981L980.5 137H1042V199.5Z" fill="#C0D5F2" stroke="#C0D5F2"/>
<path id="b-1-space-4" d="M265 511.5V504H330V511.5H265Z" fill="#D9D9D9" stroke="#D9D9D9"/>
<path id="b-1-space-3" d="M401 365H377V497.5H401V365Z" fill="#D9D9D9" stroke="#D9D9D9"/>
<path id="b-1-space-2" d="M594.5 365H570.5V434.5H594L594.5 365Z" fill="#D9D9D9" stroke="#D9D9D9"/>
<path id="b-1-space-1" d="M594.5 440.5H570.5V497.5H594.5V440.5Z" fill="#D9D9D9" stroke="#D9D9D9"/>
<path id="b-1-toilet-m-invalid" d="M197.5 224.5V204.5H211V224.5H197.5Z" fill="#C0D5F2" stroke="#C0D5F2"/>
<path id="b-1-toilet-w-invalid" d="M197.5 331V311.5H210V331H197.5Z" fill="#C0D5F2" stroke="#C0D5F2"/>
<path id="b-11" d="M405.5 171.5V33.5H591V171.5H405.5Z" fill="#C0D5F2" stroke="#C0D5F2"/>
<path id="b-12" d="M564.5 497.5V365H407V497.5H564.5Z" fill="#C0D5F2" stroke="#C0D5F2"/>
<path id="b-1-dunkin-donuts" d="M789 200V137H848.5V200H789Z" fill="#C0D5F2" stroke="#C0D5F2"/>
<path id="b-4" d="M21.5 231L7.5 215.106V82H129.5V251L21.5 231Z" fill="#C0D5F2" stroke="#C0D5F2"/>
<path id="b-3" d="M7.5 447V304.5L21.5 289.5L129.5 281V447H7.5Z" fill="#C0D5F2" stroke="#C0D5F2"/>
<path id="b-1-library" d="M910 144L854.5 144L854.5 173.76L854.5 188.5L854.5 196L854.5 203.594L854.5 387L910.5 387L910.5 326.5L1042 326.5L1042 205.5L910 205.5L910 144Z" fill="#C0D5F2" stroke="#C0D5F2"/>
<path id="b-1-library-1" d="M916 199.5V138H854.5V131H789V33.5H977.5V75.5H1042V130.5H974V137.5V199.5H916Z" fill="#C0D5F2" stroke="#C0D5F2"/>
<path id="b-1-elevator-up-background" d="M299 133H374V172.5H368.5L364 162H304L300 172H299V133Z" fill="#E6EEFA"/>
<path id="b-1-elevator-down-background" d="M298.5 364.5L300.221 364.523L304.5 372H364.5L368.5 364.024L372 364V395H298.5V364.5Z" fill="#E6EEFA"/>
<g id="b-1-elevator-down-2">
<rect id="b-1-elevator-down-2-background" x="337.5" y="372" width="23" height="23" rx="3" fill="#C0D5F2"/>
<g id="b-1-elevator-down-2-people">
<path d="M345.565 382.573H344.27H342.976V387.908H345.565V382.573Z" fill="white"/>
<path d="M343.376 380.556C343.376 381.047 343.762 381.445 344.239 381.445C344.716 381.445 345.102 381.047 345.102 380.556C345.102 380.065 344.716 379.667 344.239 379.667C343.762 379.667 343.376 380.065 343.376 380.556Z" fill="white"/>
<path d="M350.742 381.239C350.742 381.73 351.129 382.128 351.605 382.128C352.082 382.128 352.468 381.73 352.468 381.239C352.468 380.748 352.082 380.35 351.605 380.35C351.129 380.35 350.742 380.748 350.742 381.239Z" fill="white"/>
<path d="M355.057 387.019H352.037H351.605V387.463H355.057V387.019Z" fill="white"/>
<path d="M343.376 388.797L343.408 392.798M345.102 388.797L345.133 392.798M352.037 383.017V384.796M352.037 384.796V387.019M352.037 384.796H353.763M352.037 387.019H355.057M352.037 387.019H351.605M355.057 387.019L357.214 390.131M355.057 387.019V387.463H351.605V387.019M351.605 383.017V387.019M350.742 384.796C348.451 385.156 347.122 386.943 347.291 389.241C347.634 391.497 349.252 392.678 351.174 392.798C352.779 392.959 355.028 391.423 355.057 388.797M342.976 382.573V387.908H345.565V382.573H344.27H342.976ZM344.239 381.445C343.762 381.445 343.376 381.047 343.376 380.556C343.376 380.065 343.762 379.667 344.239 379.667C344.716 379.667 345.102 380.065 345.102 380.556C345.102 381.047 344.716 381.445 344.239 381.445ZM351.605 382.128C351.129 382.128 350.742 381.73 350.742 381.239C350.742 380.748 351.129 380.35 351.605 380.35C352.082 380.35 352.468 380.748 352.468 381.239C352.468 381.73 352.082 382.128 351.605 382.128Z" stroke="white"/>
</g>
<path id="b-1-elevator-down-2-arrows" d="M350.643 376.929L352.833 374.19L355.024 376.929M342.976 373.643L345.167 376.381L347.357 373.643" stroke="white"/>
</g>
<g id="b-1-elevator-down-1">
<rect id="b-1-elevator-down-1-background" x="308.5" y="372" width="23" height="23" rx="3" fill="#C0D5F2"/>
<g id="b-1-elevator-down-1-people">
<path d="M316.565 382.573H315.27H313.976V387.908H316.565V382.573Z" fill="white"/>
<path d="M314.376 380.556C314.376 381.047 314.762 381.445 315.239 381.445C315.716 381.445 316.102 381.047 316.102 380.556C316.102 380.065 315.716 379.667 315.239 379.667C314.762 379.667 314.376 380.065 314.376 380.556Z" fill="white"/>
<path d="M321.742 381.239C321.742 381.73 322.129 382.128 322.605 382.128C323.082 382.128 323.468 381.73 323.468 381.239C323.468 380.748 323.082 380.35 322.605 380.35C322.129 380.35 321.742 380.748 321.742 381.239Z" fill="white"/>
<path d="M326.057 387.019H323.037H322.605V387.463H326.057V387.019Z" fill="white"/>
<path d="M314.376 388.797L314.408 392.798M316.102 388.797L316.133 392.798M323.037 383.017V384.796M323.037 384.796V387.019M323.037 384.796H324.763M323.037 387.019H326.057M323.037 387.019H322.605M326.057 387.019L328.214 390.131M326.057 387.019V387.463H322.605V387.019M322.605 383.017V387.019M321.742 384.796C319.451 385.156 318.122 386.943 318.291 389.241C318.634 391.497 320.252 392.678 322.174 392.798C323.779 392.959 326.028 391.423 326.057 388.797M313.976 382.573V387.908H316.565V382.573H315.27H313.976ZM315.239 381.445C314.762 381.445 314.376 381.047 314.376 380.556C314.376 380.065 314.762 379.667 315.239 379.667C315.716 379.667 316.102 380.065 316.102 380.556C316.102 381.047 315.716 381.445 315.239 381.445ZM322.605 382.128C322.129 382.128 321.742 381.73 321.742 381.239C321.742 380.748 322.129 380.35 322.605 380.35C323.082 380.35 323.468 380.748 323.468 381.239C323.468 381.73 323.082 382.128 322.605 382.128Z" stroke="white"/>
</g>
<path id="b-1-elevator-down-1-arrows" d="M321.643 376.929L323.833 374.19L326.024 376.929M313.976 373.643L316.167 376.381L318.357 373.643" stroke="white"/>
</g>
<g id="b-1-elevator-up-2">
<rect id="b-1-elevator-up-2-background" x="337.5" y="135" width="23" height="23" rx="3" fill="#C0D5F2"/>
<g id="b-1-elevator-up-2-people">
<path d="M345.565 145.573H344.27H342.976V150.908H345.565V145.573Z" fill="white"/>
<path d="M343.376 143.556C343.376 144.047 343.762 144.445 344.239 144.445C344.716 144.445 345.102 144.047 345.102 143.556C345.102 143.065 344.716 142.667 344.239 142.667C343.762 142.667 343.376 143.065 343.376 143.556Z" fill="white"/>
<path d="M350.742 144.239C350.742 144.73 351.129 145.128 351.605 145.128C352.082 145.128 352.468 144.73 352.468 144.239C352.468 143.748 352.082 143.35 351.605 143.35C351.129 143.35 350.742 143.748 350.742 144.239Z" fill="white"/>
<path d="M355.057 150.019H352.037H351.605V150.463H355.057V150.019Z" fill="white"/>
<path d="M343.376 151.797L343.408 155.798M345.102 151.797L345.133 155.798M352.037 146.017V147.796M352.037 147.796V150.019M352.037 147.796H353.763M352.037 150.019H355.057M352.037 150.019H351.605M355.057 150.019L357.214 153.131M355.057 150.019V150.463H351.605V150.019M351.605 146.017V150.019M350.742 147.796C348.451 148.156 347.122 149.943 347.291 152.241C347.634 154.497 349.252 155.678 351.174 155.798C352.779 155.959 355.028 154.423 355.057 151.797M342.976 145.573V150.908H345.565V145.573H344.27H342.976ZM344.239 144.445C343.762 144.445 343.376 144.047 343.376 143.556C343.376 143.065 343.762 142.667 344.239 142.667C344.716 142.667 345.102 143.065 345.102 143.556C345.102 144.047 344.716 144.445 344.239 144.445ZM351.605 145.128C351.129 145.128 350.742 144.73 350.742 144.239C350.742 143.748 351.129 143.35 351.605 143.35C352.082 143.35 352.468 143.748 352.468 144.239C352.468 144.73 352.082 145.128 351.605 145.128Z" stroke="white"/>
</g>
<path id="b-1-elevator-up-2-arrows" d="M350.643 139.929L352.833 137.19L355.024 139.929M342.976 136.643L345.167 139.381L347.357 136.643" stroke="white"/>
</g>
<g id="b-1-elevator-up-1">
<rect id="b-1-elevator-up-1-background" x="308.5" y="135" width="23" height="23" rx="3" fill="#C0D5F2"/>
<g id="b-1-elevator-up-1-people">
<path d="M316.565 145.573H315.27H313.976V150.908H316.565V145.573Z" fill="white"/>
<path d="M314.376 143.556C314.376 144.047 314.762 144.445 315.239 144.445C315.716 144.445 316.102 144.047 316.102 143.556C316.102 143.065 315.716 142.667 315.239 142.667C314.762 142.667 314.376 143.065 314.376 143.556Z" fill="white"/>
<path d="M321.742 144.239C321.742 144.73 322.129 145.128 322.605 145.128C323.082 145.128 323.468 144.73 323.468 144.239C323.468 143.748 323.082 143.35 322.605 143.35C322.129 143.35 321.742 143.748 321.742 144.239Z" fill="white"/>
<path d="M326.057 150.019H323.037H322.605V150.463H326.057V150.019Z" fill="white"/>
<path d="M314.376 151.797L314.408 155.798M316.102 151.797L316.133 155.798M323.037 146.017V147.796M323.037 147.796V150.019M323.037 147.796H324.763M323.037 150.019H326.057M323.037 150.019H322.605M326.057 150.019L328.214 153.131M326.057 150.019V150.463H322.605V150.019M322.605 146.017V150.019M321.742 147.796C319.451 148.156 318.122 149.943 318.291 152.241C318.634 154.497 320.252 155.678 322.174 155.798C323.779 155.959 326.028 154.423 326.057 151.797M313.976 145.573V150.908H316.565V145.573H315.27H313.976ZM315.239 144.445C314.762 144.445 314.376 144.047 314.376 143.556C314.376 143.065 314.762 142.667 315.239 142.667C315.716 142.667 316.102 143.065 316.102 143.556C316.102 144.047 315.716 144.445 315.239 144.445ZM322.605 145.128C322.129 145.128 321.742 144.73 321.742 144.239C321.742 143.748 322.129 143.35 322.605 143.35C323.082 143.35 323.468 143.748 323.468 144.239C323.468 144.73 323.082 145.128 322.605 145.128Z" stroke="white"/>
</g>
<path id="b-1-elevator-up-1-arrows" d="M321.643 139.929L323.833 137.19L326.024 139.929M313.976 136.643L316.167 139.381L318.357 136.643" stroke="white"/>
</g>
<path id="b-1-lounge-zone-4" d="M291 315.5V220.5C291 211.94 284.06 205 275.5 205C266.94 205 260 211.94 260 220.5V315.5C260 324.06 266.94 331 275.5 331C284.06 331 291 324.06 291 315.5Z" fill="#C0D5F2" fill-opacity="0.7" stroke="#C0D5F2"/>
<path id="b-1-lounge-zone-3" d="M373.078 216.295L368.742 200.696C366.163 191.419 357.716 185 348.088 185C345.841 185 343.608 185.353 341.471 186.047L335.09 188.117C328.725 190.183 322.075 191.235 315.383 191.235H305.874C303.644 191.235 301.419 191.022 299.229 190.6L293.481 189.492C280.022 186.897 266.65 194.372 261.812 207.197C260.614 210.373 260 213.739 260 217.134V231.752V258V315.5C260 323.151 265.18 329.832 272.59 331.738L287.682 335.618C292.511 336.86 297.541 337.109 302.468 336.351L304.318 336.067C311.023 335.035 317.873 335.499 324.378 337.427L333.608 340.162C338.771 341.691 344.258 341.774 349.465 340.405C362.387 337.006 371.408 325.319 371.408 311.958C371.408 307.823 370.536 303.734 368.849 299.959L366.905 295.609C360.561 281.413 360.936 265.118 367.926 251.229L370.076 246.956C374.853 237.464 375.923 226.533 373.078 216.295Z" fill="#C0D5F2" fill-opacity="0.4" stroke="#C0D5F2"/>
<path id="b-1-lounge-zone-2" d="M604.5 123.976V91.987C604.5 77.4918 610.663 63.6802 621.45 53.9983C632.098 44.4413 646.269 39.7922 660.509 41.1836L688.415 43.9102C696.742 44.7238 705.143 44.3661 713.371 42.8476L723.84 40.9155C730.664 39.6559 737.689 40.0075 744.354 41.9421C763.398 47.4702 776.5 64.9157 776.5 84.7462V135.84C776.5 158.693 760.631 178.482 738.323 183.447L712.78 188.147C702.671 190.007 692.237 188.818 682.806 184.731L678.629 182.921C672.307 180.182 665.335 179.304 658.531 180.391C646.575 182.3 634.456 178.105 626.24 169.212L619.231 161.627C609.76 151.376 604.5 137.932 604.5 123.976Z" fill="#C0D5F2" fill-opacity="0.4" stroke="#C0D5F2"/>
<path id="b-1-lounge-zone-1" d="M1037.91 290.061L1036.49 259.287C1035.25 232.512 1008.51 214.531 983.247 223.483C974.98 226.413 965.978 226.539 957.631 223.843L920.057 211.706C889.5 201.836 858.356 225.117 859.173 257.218L860.041 291.325C860.492 309.029 879.029 320.395 895.012 312.767C901.36 309.737 908.707 309.589 915.173 312.36L923.114 315.763C929.607 318.546 936.68 319.707 943.722 319.145L997.679 314.844C1000.54 314.616 1003.42 314.878 1006.19 315.617C1022.68 320.015 1038.7 307.114 1037.91 290.061Z" fill="#E6EEFA" fill-opacity="0.58" stroke="#B7CBE7"/>
<g id="b-1-staircase-center">
<path id="b-1-staircase-center-background" d="M529.5 217H468.5V316H529.5V217Z" fill="white" stroke="#C0D5F2" stroke-width="3"/>
<path id="b-1-staircase-center-down" d="M478.391 304.45V271.45H487.459V276.4H494.053V281.35H500.648V286.3H507.242V291.25H513.837V296.2H519.607V304.45H478.391Z" fill="white" stroke="#C0D5F2" stroke-width="2"/>
<path id="b-1-staircase-center-up" d="M478.391 236.8V228.55H519.607V261.55H511.364V256.6H504.769V251.65H498.175V246.7H491.58V241.75H484.986V236.8H478.391Z" fill="white" stroke="#C0D5F2" stroke-width="2"/>
<path id="b-1-arrow-left" d="M463.53 239.53C463.823 239.237 463.823 238.763 463.53 238.47L458.757 233.697C458.464 233.404 457.99 233.404 457.697 233.697C457.404 233.99 457.404 234.464 457.697 234.757L461.939 239L457.697 243.243C457.404 243.536 457.404 244.01 457.697 244.303C457.99 244.596 458.464 244.596 458.757 244.303L463.53 239.53ZM446 239.75H454.5V238.25H446V239.75ZM454.5 239.75H463V238.25H454.5V239.75Z" fill="#3A465C"/>
<path id="b-1-arrow-right" d="M532.969 295.97C532.676 296.263 532.676 296.737 532.969 297.03L537.742 301.803C538.035 302.096 538.51 302.096 538.803 301.803C539.096 301.51 539.096 301.036 538.803 300.743L534.56 296.5L538.803 292.257C539.096 291.964 539.096 291.49 538.803 291.197C538.51 290.904 538.035 290.904 537.742 291.197L532.969 295.97ZM550.5 295.75H542V297.25H550.5V295.75ZM542 295.75H533.5V297.25H542V295.75Z" fill="#3A465C"/>
</g>
<g id="b-1-staircase-right">
<path id="b-1-staircase-background-right" d="M735.5 385V431H769.5V385H735.5Z" fill="#C0D5F2" stroke="#C0D5F2" stroke-width="2"/>
<path id="b-1-staircase-right-staircase" d="M741 392.556V389H765V411H761.578L761.578 408.111H757.362V404.223H753.147V400.334H748.931V396.445H744.716V392.556H741Z" fill="white" stroke="white"/>
<path id="b-1-arrow-right_2" d="M752.03 411.47C751.737 411.177 751.263 411.177 750.97 411.47L746.197 416.243C745.904 416.536 745.904 417.01 746.197 417.303C746.49 417.596 746.964 417.596 747.257 417.303L751.5 413.061L755.743 417.303C756.036 417.596 756.51 417.596 756.803 417.303C757.096 417.01 757.096 416.536 756.803 416.243L752.03 411.47ZM752.25 429V420.5H750.75V429H752.25ZM752.25 420.5V412H750.75V420.5H752.25Z" fill="#3A465C"/>
</g>
<g id="b-1-staircase-left">
<path id="b-1-staircase-background-right_2" d="M336 401V455H370V401H336Z" fill="#C0D5F2" stroke="#C0D5F2" stroke-width="2"/>
<path id="b-1-staircase-right-staircase_2" d="M341.5 409.871V405.696H365.5V431.522H362.078L362.078 428.131H357.862V423.566H353.647V419.001H349.431V414.436H345.216V409.871H341.5Z" fill="white" stroke="white"/>
<path id="b-1-arrow-right_3" d="M352.53 432.165C352.237 431.872 351.763 431.872 351.47 432.165L346.697 436.938C346.404 437.231 346.404 437.706 346.697 437.999C346.99 438.292 347.464 438.292 347.757 437.999L352 433.756L356.243 437.999C356.536 438.292 357.01 438.292 357.303 437.999C357.596 437.706 357.596 437.231 357.303 436.938L352.53 432.165ZM352.75 452.652V442.674H351.25V452.652H352.75ZM352.75 442.674V432.696H351.25V442.674H352.75Z" fill="#3A465C"/>
</g>
<g id="b-1-staircase-library-down">
<path id="b-1-staircase-library-down-background" d="M861.522 334L861.5 374.986L888.452 375.001L888.475 334.015L861.522 334Z" fill="#C0D5F2" stroke="white"/>
<path id="b-1-staircase-library-down-staircase" d="M885.863 370.545L865.13 370.533L865.133 365.633L868.243 365.634L868.245 362.07L871.355 362.072L871.357 358.508L874.467 358.51L874.468 354.946L877.578 354.947L877.58 351.383L880.69 351.385L880.692 348.267L885.875 348.269L885.863 370.545Z" fill="white" stroke="#C0D5F2" stroke-width="1.5"/>
<path id="b-1-arrow-library-down" d="M873.942 348.348C874.234 348.641 874.709 348.641 875.002 348.348L879.778 343.578C880.071 343.285 880.071 342.81 879.778 342.517C879.486 342.224 879.011 342.224 878.718 342.517L874.473 346.757L870.232 342.512C869.94 342.219 869.465 342.219 869.172 342.512C868.879 342.804 868.878 343.279 869.171 343.572L873.942 348.348ZM873.729 334.452L873.722 347.817L875.222 347.818L875.229 334.453L873.729 334.452Z" fill="#3A465C"/>
</g>
<g id="b-1-staircase-library-up">
<path id="b-1-staircase-library-up-background" d="M861.621 158.057L861.59 199.838L888.215 199.858L888.246 158.077L861.621 158.057Z" fill="#C0D5F2" stroke="white" stroke-width="0.5"/>
<path id="b-1-staircase-library-up-staircase" d="M885.683 162.163L865.202 162.147L865.198 167.143L868.271 167.145L868.268 170.778L871.34 170.78L871.337 174.414L874.409 174.416L874.407 178.049L877.479 178.051L877.476 181.684L880.548 181.687L880.546 184.866L885.666 184.869L885.683 162.163Z" fill="white" stroke="#C0D5F2" stroke-width="1.5"/>
<path id="b-1-arrow-library-up" d="M874.932 184.331C874.64 184.038 874.165 184.038 873.872 184.33L869.095 189.1C868.802 189.392 868.802 189.867 869.094 190.16C869.387 190.454 869.862 190.454 870.155 190.161L874.401 185.922L878.64 190.168C878.933 190.461 879.408 190.461 879.701 190.168C879.994 189.876 879.994 189.401 879.702 189.108L874.932 184.331ZM875.141 199.394L875.152 184.862L873.652 184.861L873.641 199.393L875.141 199.394Z" fill="#3A465C"/>
</g>
<path id="b-1-toilet-w" d="M197.5 305.5V274H254V331H216V305.5H197.5Z" fill="#C0D5F2" stroke="#C0D5F2"/>
<path id="b-1-toilet-m" d="M217.5 231V204.5H254V268H197.5V231H217.5Z" fill="#C0D5F2" stroke="#C0D5F2"/>
<g id="b-1-invalid-icon-1">
<g id="b-1-invalid-icon-WC-1">
<path d="M201.632 221.047H201L201.735 223.929H202.415L203.031 221.765L203.668 223.929H204.327L205.073 221.047H204.457L203.971 223.05L203.42 221.047H202.685L202.102 223.03L201.632 221.047Z" fill="#FDF6F6"/>
<path d="M205.627 221.471C205.683 221.406 205.773 221.326 205.81 221.294C206.143 220.971 206.776 220.978 207.051 221.022C207.733 221.147 207.953 221.626 207.978 221.85L207.369 221.986C207.34 221.855 207.21 221.616 206.975 221.531C206.722 221.441 206.531 221.511 206.463 221.531C206.362 221.54 206.128 221.643 205.994 221.986C205.86 222.329 205.938 222.799 205.994 222.99C206.024 223.2 206.211 223.357 206.301 223.409C206.384 223.472 206.624 223.574 206.921 223.485C207.219 223.396 207.362 223.058 207.396 222.9L208 223.081C207.983 223.124 207.962 223.178 207.945 223.222C207.943 223.23 207.934 223.253 207.921 223.284C207.915 223.298 207.913 223.303 207.916 223.295C207.878 223.382 207.809 223.52 207.73 223.596C207.585 223.737 207.622 223.737 207.364 223.869C207.157 223.974 206.947 224 206.867 224H206.49C206.468 223.997 206.422 223.99 206.409 223.99C206.393 223.99 206.28 223.965 206.123 223.904C205.967 223.844 205.956 223.823 205.821 223.732C205.713 223.66 205.589 223.507 205.541 223.44C205.46 223.329 205.407 223.189 205.368 223.096C205.329 223.004 205.295 222.731 205.282 222.607C205.282 222.516 205.298 222.294 205.32 222.178C205.34 222.066 205.352 221.982 205.363 221.956C205.419 221.778 205.483 221.669 205.508 221.637C205.525 221.609 205.571 221.536 205.627 221.471Z" fill="#FFF8F8"/>
<path d="M207.916 223.295C207.878 223.382 207.809 223.52 207.73 223.596C207.585 223.737 207.622 223.737 207.364 223.869C207.157 223.974 206.947 224 206.867 224H206.49C206.468 223.997 206.422 223.99 206.409 223.99C206.393 223.99 206.28 223.965 206.123 223.904C205.967 223.844 205.956 223.823 205.821 223.732C205.713 223.66 205.589 223.507 205.541 223.44C205.46 223.329 205.407 223.189 205.368 223.096C205.329 223.004 205.295 222.731 205.282 222.607C205.282 222.516 205.298 222.294 205.32 222.178C205.34 222.066 205.352 221.982 205.363 221.956C205.419 221.778 205.483 221.669 205.508 221.637C205.525 221.609 205.571 221.536 205.627 221.471C205.683 221.406 205.773 221.326 205.81 221.294C206.143 220.971 206.776 220.978 207.051 221.022C207.733 221.147 207.953 221.626 207.978 221.85L207.369 221.986C207.34 221.855 207.21 221.616 206.975 221.531C206.722 221.441 206.531 221.511 206.463 221.531C206.362 221.54 206.128 221.643 205.994 221.986C205.86 222.329 205.938 222.799 205.994 222.99C206.024 223.2 206.211 223.357 206.301 223.409C206.384 223.472 206.624 223.574 206.921 223.485C207.219 223.396 207.362 223.058 207.396 222.9L208 223.081C207.983 223.124 207.962 223.178 207.945 223.222M207.916 223.295C207.918 223.291 207.919 223.288 207.921 223.284M207.916 223.295C207.918 223.29 207.922 223.278 207.93 223.258C207.943 223.222 207.948 223.213 207.945 223.222M207.916 223.295C207.913 223.303 207.915 223.298 207.921 223.284M207.921 223.284C207.934 223.253 207.943 223.23 207.945 223.222M207.921 223.284C207.926 223.27 207.935 223.248 207.945 223.222M201 221.047H201.632L202.102 223.03L202.685 221.047H203.42L203.971 223.05L204.457 221.047H205.073L204.327 223.929H203.668L203.031 221.765L202.415 223.929H201.735L201 221.047Z" stroke="#FFFAFA" stroke-width="0.3"/>
</g>
<path id="b-1-invalid-background-1" d="M200.5 206.25H208C209.519 206.25 210.75 207.481 210.75 209V216.5C210.75 218.019 209.519 219.25 208 219.25H200.5C198.981 219.25 197.75 218.019 197.75 216.5V212.5V209C197.75 207.481 198.981 206.25 200.5 206.25Z" fill="#C0D5F2" stroke="white" stroke-width="0.5"/>
<g id="b-1-invalid-person-1">
<path d="M203.359 208.847C203.359 209.222 203.654 209.527 204.019 209.527C204.383 209.527 204.678 209.222 204.678 208.847C204.678 208.471 204.383 208.167 204.019 208.167C203.654 208.167 203.359 208.471 203.359 208.847Z" fill="white"/>
<path d="M206.658 213.266H204.349H204.019V213.606H206.658V213.266Z" fill="white"/>
<path d="M204.349 210.206V211.566M204.349 211.566V213.266M204.349 211.566H205.668M204.349 213.266H206.658M204.349 213.266H204.019M206.658 213.266L208.308 215.646M206.658 213.266V213.606H204.019V213.266M204.019 210.206V213.266M203.359 211.566C201.607 211.842 200.59 213.208 200.719 214.966C200.982 216.691 202.219 217.594 203.689 217.686C204.917 217.809 206.636 216.635 206.658 214.626M204.019 209.527C203.654 209.527 203.359 209.222 203.359 208.847C203.359 208.471 203.654 208.167 204.019 208.167C204.383 208.167 204.678 208.471 204.678 208.847C204.678 209.222 204.383 209.527 204.019 209.527Z" stroke="white"/>
</g>
</g>
<g id="b-1-toilet-icon-2">
<rect id="b-0-toilet-icon-1-background" x="224.25" y="303.25" width="21.5" height="21.5" rx="2.75" fill="#C0D5F2" stroke="white" stroke-width="0.5"/>
<g id="b-0-toilet-icon-1-WC">
<path d="M227.052 309.583H225.306L227.336 318.945H229.217L230.918 311.915L232.679 318.945H234.5L236.56 309.583H234.858L233.515 316.091L231.993 309.583H229.963L228.351 316.025L227.052 309.583Z" fill="#FDF6F6"/>
<path d="M238.092 310.961C238.247 310.751 238.494 310.491 238.599 310.387C239.517 309.338 241.266 309.359 242.026 309.502C243.91 309.908 244.52 311.463 244.59 312.19L242.906 312.633C242.826 312.207 242.466 311.431 241.818 311.157C241.117 310.862 240.591 311.092 240.402 311.157C240.124 311.185 239.475 311.518 239.105 312.633C238.736 313.748 238.951 315.272 239.105 315.895C239.189 316.577 239.707 317.087 239.955 317.256C240.183 317.458 240.846 317.791 241.669 317.502C242.491 317.214 242.886 316.114 242.98 315.6L244.649 316.19C244.603 316.329 244.545 316.505 244.498 316.647C244.491 316.673 244.467 316.747 244.43 316.848C244.415 316.894 244.409 316.911 244.417 316.886C244.312 317.166 244.121 317.615 243.904 317.863C243.502 318.322 243.606 318.322 242.891 318.748C242.318 319.089 241.738 319.174 241.52 319.174H240.476C240.417 319.163 240.289 319.142 240.253 319.142C240.208 319.142 239.895 319.06 239.463 318.863C239.031 318.666 239.001 318.6 238.629 318.305C238.331 318.069 237.988 317.573 237.854 317.355C237.63 316.994 237.484 316.541 237.377 316.24C237.269 315.938 237.173 315.054 237.138 314.649C237.138 314.354 237.183 313.633 237.243 313.256C237.3 312.893 237.332 312.622 237.362 312.535C237.517 311.957 237.695 311.605 237.764 311.502C237.809 311.409 237.937 311.17 238.092 310.961Z" fill="#FFF8F8"/>
<path d="M244.417 316.886C244.312 317.166 244.121 317.615 243.904 317.863C243.502 318.322 243.606 318.322 242.891 318.748C242.318 319.089 241.738 319.174 241.52 319.174H240.476C240.417 319.163 240.289 319.142 240.253 319.142C240.208 319.142 239.895 319.06 239.463 318.863C239.031 318.666 239.001 318.6 238.629 318.305C238.331 318.069 237.988 317.573 237.854 317.355C237.63 316.994 237.484 316.541 237.377 316.24C237.269 315.938 237.173 315.054 237.138 314.649C237.138 314.354 237.183 313.633 237.243 313.256C237.3 312.893 237.332 312.622 237.362 312.535C237.517 311.957 237.695 311.605 237.764 311.502C237.809 311.409 237.937 311.17 238.092 310.961C238.247 310.751 238.494 310.491 238.599 310.387C239.517 309.338 241.266 309.359 242.026 309.502C243.91 309.908 244.52 311.463 244.59 312.19L242.906 312.633C242.826 312.207 242.466 311.431 241.818 311.157C241.117 310.862 240.591 311.092 240.402 311.157C240.124 311.185 239.475 311.518 239.105 312.633C238.736 313.748 238.951 315.272 239.105 315.895C239.189 316.577 239.707 317.087 239.955 317.256C240.183 317.458 240.846 317.791 241.669 317.502C242.491 317.214 242.886 316.114 242.98 315.6L244.649 316.19C244.603 316.329 244.545 316.505 244.498 316.647M244.417 316.886C244.421 316.873 244.426 316.861 244.43 316.848M244.417 316.886C244.422 316.869 244.434 316.83 244.455 316.764C244.493 316.648 244.505 316.619 244.498 316.647M244.417 316.886C244.409 316.911 244.415 316.894 244.43 316.848M244.43 316.848C244.467 316.747 244.491 316.673 244.498 316.647M244.43 316.848C244.446 316.803 244.47 316.731 244.498 316.647M225.306 309.583H227.052L228.351 316.025L229.963 309.583H231.993L233.515 316.091L234.858 309.583H236.56L234.5 318.945H232.679L230.918 311.915L229.217 318.945H227.336L225.306 309.583Z" stroke="#FFFAFA" stroke-width="0.392"/>
</g>
</g>
<g id="b-1-toilet-icon-1">
<rect id="b-0-toilet-icon-1-background_2" x="225.25" y="211.25" width="21.5" height="21.5" rx="2.75" fill="#C0D5F2" stroke="white" stroke-width="0.5"/>
<g id="b-0-toilet-icon-1-WC_2">
<path d="M228.052 217.583H226.306L228.336 226.945H230.217L231.918 219.915L233.679 226.945H235.5L237.56 217.583H235.858L234.515 224.091L232.993 217.583H230.963L229.351 224.025L228.052 217.583Z" fill="#FDF6F6"/>
<path d="M239.092 218.961C239.247 218.751 239.494 218.491 239.599 218.387C240.517 217.338 242.266 217.359 243.026 217.502C244.91 217.908 245.52 219.463 245.59 220.19L243.906 220.633C243.826 220.207 243.466 219.431 242.818 219.157C242.117 218.862 241.591 219.092 241.402 219.157C241.124 219.185 240.475 219.518 240.105 220.633C239.736 221.748 239.951 223.272 240.105 223.895C240.189 224.577 240.707 225.087 240.955 225.256C241.183 225.458 241.846 225.791 242.669 225.502C243.491 225.214 243.886 224.114 243.98 223.6L245.649 224.19C245.603 224.329 245.545 224.505 245.498 224.647C245.491 224.673 245.467 224.747 245.43 224.848C245.415 224.894 245.409 224.911 245.417 224.886C245.312 225.166 245.121 225.615 244.904 225.863C244.502 226.322 244.606 226.322 243.891 226.748C243.318 227.089 242.738 227.174 242.52 227.174H241.476C241.417 227.163 241.289 227.142 241.253 227.142C241.208 227.142 240.895 227.06 240.463 226.863C240.031 226.666 240.001 226.6 239.629 226.305C239.331 226.069 238.988 225.573 238.854 225.355C238.63 224.994 238.484 224.541 238.377 224.24C238.269 223.938 238.173 223.054 238.138 222.649C238.138 222.354 238.183 221.633 238.243 221.256C238.3 220.893 238.332 220.622 238.362 220.535C238.517 219.957 238.695 219.605 238.764 219.502C238.809 219.409 238.937 219.17 239.092 218.961Z" fill="#FFF8F8"/>
<path d="M245.417 224.886C245.312 225.166 245.121 225.615 244.904 225.863C244.502 226.322 244.606 226.322 243.891 226.748C243.318 227.089 242.738 227.174 242.52 227.174H241.476C241.417 227.163 241.289 227.142 241.253 227.142C241.208 227.142 240.895 227.06 240.463 226.863C240.031 226.666 240.001 226.6 239.629 226.305C239.331 226.069 238.988 225.573 238.854 225.355C238.63 224.994 238.484 224.541 238.377 224.24C238.269 223.938 238.173 223.054 238.138 222.649C238.138 222.354 238.183 221.633 238.243 221.256C238.3 220.893 238.332 220.622 238.362 220.535C238.517 219.957 238.695 219.605 238.764 219.502C238.809 219.409 238.937 219.17 239.092 218.961C239.247 218.751 239.494 218.491 239.599 218.387C240.517 217.338 242.266 217.359 243.026 217.502C244.91 217.908 245.52 219.463 245.59 220.19L243.906 220.633C243.826 220.207 243.466 219.431 242.818 219.157C242.117 218.862 241.591 219.092 241.402 219.157C241.124 219.185 240.475 219.518 240.105 220.633C239.736 221.748 239.951 223.272 240.105 223.895C240.189 224.577 240.707 225.087 240.955 225.256C241.183 225.458 241.846 225.791 242.669 225.502C243.491 225.214 243.886 224.114 243.98 223.6L245.649 224.19C245.603 224.329 245.545 224.505 245.498 224.647M245.417 224.886C245.421 224.873 245.426 224.861 245.43 224.848M245.417 224.886C245.422 224.869 245.434 224.83 245.455 224.764C245.493 224.648 245.505 224.619 245.498 224.647M245.417 224.886C245.409 224.911 245.415 224.894 245.43 224.848M245.43 224.848C245.467 224.747 245.491 224.673 245.498 224.647M245.43 224.848C245.446 224.803 245.47 224.731 245.498 224.647M226.306 217.583H228.052L229.351 224.025L230.963 217.583H232.993L234.515 224.091L235.858 217.583H237.56L235.5 226.945H233.679L231.918 219.915L230.217 226.945H228.336L226.306 217.583Z" stroke="#FFFAFA" stroke-width="0.392"/>
</g>
</g>
<path id="b-floor-1-border" d="M980.5 30V3H1045.5V72M980.5 30H786M980.5 30V72H1045.5M333.5 501V515H262M333.5 501H374M333.5 501H325M982.5 501V529H1045.5V454.5M982.5 501V454.5H1045.5M982.5 501H910H851.5H787M194.5 29.5V3H132.5V15H4V79M194.5 29.5V71.5M194.5 29.5L257 30M132.5 79H50.5M132.5 79H172M132.5 79V97.5M34.5 79H20.5H10.5H4M4 79V215.5M187.5 79H194.5M194.5 79V71.5M194.5 79V101M132.5 97.5H142M132.5 97.5V133.5V252M132.5 450V447.5V433M132.5 450H157.5M132.5 450H69.5H50.5M35.5 450H4M4 450V515H32.5H69.5H194.5M4 450V303.5M20.5 286.5V271.5M20.5 286.5L4 303.5M20.5 286.5L30 285.779M20.5 260V234M20.5 234L4 215.5M20.5 234L31.5 235.964M4 215.5V303.5M46 238.554L132.5 254V252M45 284.641L132.5 278V280M132.5 433H144M132.5 433V280M152 433H154.5V297.5L132.5 280M168 450H194.5M194.5 450V401.5V362H257H279.5V410.5V424.5V436.5H307V466V501M194.5 450V473.5M194.5 215.5V227.5M194.5 205.5V201.5H214M236 201.5H214M245 201.5H257V227.5V271M194.5 308.5V318.5V334H213M194.5 308.5H213V334M194.5 308.5V271M213 334H235.75M244.5 334H257V308.5V271M194.5 271H257M194.5 271V227.5M194.5 227.5H214V201.5M194.5 71.5H207M217 71.5H257M257 71.5V30M257 71.5V103M257 30H309.5H369H402.5M257 174V133.5M257 174H226.5M257 174H283.5M194.5 113V133.5M194.5 133.5V174H226.5M194.5 133.5H201.5M210.5 133.5C210.9 133.5 221.333 133.5 226.5 133.5M226.5 133.5H237.5M226.5 133.5V174M248.5 133.5H257M257 133.5V103M132.5 252L154.5 234.5V133.5V97.5H149M294 174H297M297 174V131H309.5M297 174H301.5L305.5 164H362.5L367 174.5H373M402.5 131V68.5V30M402.5 131H376M402.5 131V174.5M402.5 30H594M309.5 131H369H376M309.5 131V124V103H287.5H257M376 174.5V131M376 174.5H402.5M376 174.5H373M402.5 174.5H422.5M194.5 483V515M194.5 515H262M385.5 362H374M395 362H404M597.5 414V399.5V362H567.5M597.5 426.5V437.5H567.5M597.5 451.5V501M597.5 501H659.5V542.5V542.5C647.384 549.514 638.737 561.257 635.634 574.909L634.735 578.866C633.584 583.932 633.129 589.131 633.385 594.319V594.319C634.857 624.269 659.277 647.973 689.256 648.582V648.582C725.315 649.315 753.053 616.867 746.681 581.368L746.329 579.405C745.447 574.491 743.884 569.656 741.737 565.147V565.147C737.369 555.975 730.502 548.059 722 542.5V542.5V501H787M597.5 501H567.5M567.5 437.5V501M567.5 437.5V362M567.5 501H404M567.5 362H557.5M543.5 362H428.5M404 362V397V416V501M404 362H415.25M404 501H374M374 397V416V501M374 397V362M374 397H332M374 362H373M332 397H296.5V362H301.5L306 370H363L367 362H373M332 397V436.5V456.5M307 501H313M307 501H262V515M445.5 174.5H537M558.5 174.5H594V30M594 30H786M786 30V134M820.5 203H786V174.5V134M838.5 203H851.5M851.5 203V141M851.5 203V240.5M786 134H851.5V141M851.5 141H909H913V202.5H939.5M1045.5 72V72.5V134M1045.5 134H977.5V202.5M1045.5 134V202.5M977.5 202.5H956.5M977.5 202.5H999M1019 202.5H1045.5M1045.5 202.5V330M1045.5 330H1025.5M1045.5 330V393.5M980.5 330H976.5H947.5H932M980.5 330H1010.5M980.5 330V393.5H1045.5M1045.5 454.5V420V397V393.5M787 501V420V398V330H851.5M851.5 330V290.5M851.5 330V390H900M851.5 252V279M373 174.5V206M373 329V362M912 390H914V368.5V330H919" stroke="#3A465C" stroke-width="2"/>
<path id="b-floor-1-outer-border" d="M3 516V14H131.562V2H195.592V29H979.468V2H1047V530H981.469V502H723.345V542C731.513 546.898 738.114 554.024 742.375 562.542L742.981 563.753C745.548 568.886 747.293 574.39 748.15 580.065L748.573 582.867C753.957 618.521 726.019 650.468 689.965 649.885C659.222 649.387 634.146 625.106 632.659 594.395L632.599 593.155C632.401 589.063 632.641 584.962 633.315 580.922L633.824 577.866C636.343 562.763 645.519 549.594 658.814 542V502H334.659V516H3Z" stroke="#002069" stroke-width="4"/>
<path id="b-1-cp-3" d="M197 74H255V131H197V74Z" fill="#D9D9D9"/>
<path id="b-1-cp-2" d="M197 33H254.5V69H197V33Z" fill="#D9D9D9"/>
<rect id="b-1-cp-3-1" x="197" y="136" width="27" height="36" fill="#D9D9D9"/>
<rect id="b-1-cp-3-2" x="229" y="136" width="26" height="36" fill="#D9D9D9"/>
<path id="b-1-space-15" d="M197 512V364.5H276.5L277 439H304.5V498.5H259.5V512H197Z" fill="#D6D6D6"/>
<path id="b-1-ibo-2" d="M259.5 100.5V33H400V128.5H311.5V100.5H259.5Z" fill="#D9D9D9"/>
<path id="b-1-ibo-1" d="M294.5 171.5H259.5V105.5L307 105.5V128.5H294.5V171.5Z" fill="#D9D9D9"/>
<path id="b-1-space-16" d="M378.5 172V133.5H400V172H378.5Z" fill="#D9D9D9"/>
<path id="b-1-entrance-2" d="M632.656 586.07C631.562 591.342 632.448 604.897 637.153 614.217" stroke="#C0D5F2" stroke-width="4"/>
<path id="b-1-entrance-1" d="M675 647.5C680 649.5 693.5 651 703.5 648" stroke="#C0D5F2" stroke-width="4"/>
<g id="b-1-cash-2">
<rect id="bankomat-icon-background" x="725" y="475" width="22" height="22" rx="6" fill="#C0D5F2"/>
<g id="bankomat-icon">
<path fill-rule="evenodd" clip-rule="evenodd" d="M731.001 482.269V480.931C731.037 480.365 731.597 479.067 733.552 478.398C735.506 477.729 737.39 477.666 738.088 477.717C739.075 477.721 741.339 477.899 742.504 478.578C743.302 478.916 744.838 479.925 744.598 481.253V483.236C744.614 483.459 744.35 484.101 743.166 484.885C743.159 484.885 743.116 484.904 743.043 484.938C742.74 485.076 741.918 485.452 740.94 485.673V487.214C741.505 487.529 742.615 488.416 742.528 489.448V491.563C742.548 491.865 742.251 492.64 740.904 493.319C740.21 493.657 738.268 494.353 736.054 494.43C733.84 494.506 731.891 493.912 731.193 493.605C730.543 493.382 729.184 492.686 728.943 491.682V489.174C728.422 488.919 727.369 488.211 727.331 487.417V485.1C727.327 484.471 728.055 483.024 731.001 482.269ZM732.047 480.955C732.184 480.262 733.448 478.847 737.414 478.733C741.38 478.618 743.126 479.888 743.503 480.537C743.844 481.158 743.532 482.753 739.423 483.272C734.322 483.917 731.674 481.617 732.047 480.955ZM732.011 482.818V483.093C732.043 483.332 732.509 483.948 734.117 484.503C735.725 485.057 737.771 485.076 738.593 485.016C739.299 484.996 741.11 484.761 742.708 483.977C742.949 483.846 743.462 483.502 743.587 483.177V482.818C743.334 483.013 742.699 483.439 742.179 483.583C742.05 483.618 741.927 483.663 741.791 483.712C741.241 483.91 740.464 484.189 738.112 484.323C735.176 484.491 732.817 483.416 732.011 482.818ZM733.431 485.303C731.67 484.691 731.101 483.694 731.037 483.272C729.217 483.788 728.538 484.531 728.426 484.837C728.309 484.992 728.175 485.418 728.57 485.876C728.965 486.335 730.042 486.84 730.531 487.035C731.985 487.523 734.001 487.589 734.827 487.561C737.859 487.351 739.235 486.382 739.544 485.924C737.679 486.115 735.633 486.068 733.431 485.303ZM728.329 487.035V487.358C728.409 487.609 728.936 488.23 730.399 488.708C731.862 489.185 733.383 489.281 733.961 489.269C734.767 489.289 736.743 489.174 738.196 488.552C738.633 488.401 739.59 487.957 739.917 487.394V487.035C739.319 487.469 737.655 488.359 735.778 488.445C735.358 488.464 735.02 488.484 734.733 488.5L734.733 488.5C733.416 488.577 733.177 488.591 731.073 488.218C730.519 488.086 729.196 487.666 728.329 487.035ZM737.354 491.61C738.136 491.547 739.97 491.192 741.048 490.284C742.116 489.291 741.172 488.493 740.567 488.218C737.775 490.922 732.368 490.3 730.014 489.651C730.459 490.655 731.807 491.168 733.636 491.527C735.099 491.814 736.724 491.702 737.354 491.61ZM729.954 491.168C729.944 491.178 729.942 491.403 729.942 491.515C730.022 491.806 730.676 492.518 732.649 493.044C733.7 493.335 736.495 493.715 739.267 492.913C739.865 492.729 741.156 492.196 741.541 491.527V491.168C741.116 491.531 739.782 492.315 737.847 492.554C735.912 492.793 734.707 492.702 734.346 492.626C733.56 492.614 731.581 492.306 729.954 491.168Z" fill="#FFFBFB"/>
<path d="M731.001 480.931L730.781 480.917V480.931H731.001ZM731.001 482.269L731.055 482.481L731.22 482.439V482.269H731.001ZM733.552 478.398L733.481 478.191L733.552 478.398ZM738.088 477.717L738.072 477.936L738.079 477.937L738.087 477.937L738.088 477.717ZM742.504 478.578L742.394 478.767L742.406 478.774L742.418 478.779L742.504 478.578ZM744.598 481.253L744.382 481.214L744.378 481.234V481.253H744.598ZM744.598 483.236H744.378V483.244L744.379 483.252L744.598 483.236ZM743.166 484.885V485.104H743.232L743.287 485.068L743.166 484.885ZM743.043 484.938L743.134 485.137L743.134 485.137L743.043 484.938ZM740.94 485.673L740.891 485.459L740.72 485.498V485.673H740.94ZM740.94 487.214H740.72V487.343L740.833 487.406L740.94 487.214ZM742.528 489.448L742.309 489.43L742.309 489.439V489.448H742.528ZM742.528 491.563H742.309V491.57L742.309 491.577L742.528 491.563ZM740.904 493.319L741 493.516L741.002 493.515L740.904 493.319ZM736.054 494.43L736.047 494.211L736.047 494.211L736.054 494.43ZM731.193 493.605L731.281 493.405L731.273 493.401L731.264 493.398L731.193 493.605ZM728.943 491.682H728.724V491.708L728.73 491.733L728.943 491.682ZM728.943 489.174H729.162V489.037L729.039 488.977L728.943 489.174ZM727.331 487.417H727.111L727.112 487.428L727.331 487.417ZM727.331 485.1H727.55L727.55 485.099L727.331 485.1ZM737.414 478.733L737.42 478.952L737.42 478.952L737.414 478.733ZM732.047 480.955L732.238 481.062L732.256 481.032L732.263 480.997L732.047 480.955ZM743.503 480.537L743.695 480.431L743.692 480.426L743.503 480.537ZM739.423 483.272L739.451 483.49L739.451 483.49L739.423 483.272ZM732.011 483.093H731.792V483.108L731.794 483.122L732.011 483.093ZM732.011 482.818L732.142 482.642L731.792 482.383V482.818H732.011ZM734.117 484.503L734.046 484.71L734.046 484.71L734.117 484.503ZM738.593 485.016L738.587 484.797L738.577 484.798L738.593 485.016ZM742.708 483.977L742.805 484.174L742.814 484.169L742.708 483.977ZM743.587 483.177L743.791 483.255L743.806 483.217V483.177H743.587ZM743.587 482.818H743.806V482.372L743.453 482.645L743.587 482.818ZM742.179 483.583L742.121 483.371L742.121 483.371L742.179 483.583ZM741.791 483.712L741.865 483.918L741.865 483.918L741.791 483.712ZM738.112 484.323L738.099 484.105L738.099 484.105L738.112 484.323ZM731.037 483.272L731.253 483.239L731.216 482.993L730.977 483.061L731.037 483.272ZM733.431 485.303L733.359 485.51L733.431 485.303ZM728.426 484.837L728.601 484.969L728.62 484.943L728.631 484.913L728.426 484.837ZM728.57 485.876L728.736 485.733L728.736 485.733L728.57 485.876ZM730.531 487.035L730.45 487.239L730.462 487.243L730.531 487.035ZM734.827 487.561L734.834 487.78L734.842 487.78L734.827 487.561ZM739.544 485.924L739.726 486.047L739.988 485.658L739.521 485.706L739.544 485.924ZM728.329 487.358H728.11V487.392L728.12 487.425L728.329 487.358ZM728.329 487.035L728.458 486.858L728.11 486.604V487.035H728.329ZM730.399 488.708L730.331 488.916L730.331 488.916L730.399 488.708ZM733.961 489.269L733.966 489.05L733.956 489.05L733.961 489.269ZM738.196 488.552L738.124 488.345L738.117 488.348L738.11 488.351L738.196 488.552ZM739.917 487.394L740.106 487.504L740.136 487.453V487.394H739.917ZM739.917 487.035H740.136V486.605L739.788 486.858L739.917 487.035ZM735.778 488.445L735.788 488.664L735.788 488.664L735.778 488.445ZM734.733 488.5L734.72 488.281L734.72 488.281L734.733 488.5ZM734.733 488.5L734.745 488.719L734.746 488.719L734.733 488.5ZM731.073 488.218L731.022 488.432L731.034 488.434L731.073 488.218ZM741.048 490.284L741.189 490.452L741.197 490.445L741.048 490.284ZM737.354 491.61L737.336 491.391L737.322 491.393L737.354 491.61ZM740.567 488.218L740.657 488.018L740.521 487.956L740.414 488.06L740.567 488.218ZM730.014 489.651L730.072 489.44L729.626 489.317L729.813 489.74L730.014 489.651ZM733.636 491.527L733.678 491.312L733.678 491.312L733.636 491.527ZM729.942 491.515H729.722V491.545L729.73 491.573L729.942 491.515ZM729.954 491.168L730.079 490.989L729.929 490.884L729.799 491.013L729.954 491.168ZM732.649 493.044L732.707 492.833L732.705 492.832L732.649 493.044ZM739.267 492.913L739.328 493.123L739.331 493.122L739.267 492.913ZM741.541 491.527L741.731 491.636L741.761 491.585V491.527H741.541ZM741.541 491.168H741.761V490.693L741.399 491.002L741.541 491.168ZM737.847 492.554L737.82 492.337L737.82 492.337L737.847 492.554ZM734.346 492.626L734.391 492.411L734.37 492.407L734.349 492.407L734.346 492.626ZM730.781 480.931V482.269H731.22V480.931H730.781ZM733.481 478.191C731.453 478.885 730.824 480.253 730.782 480.917L731.219 480.945C731.249 480.478 731.742 479.25 733.623 478.606L733.481 478.191ZM738.104 477.499C737.38 477.445 735.466 477.511 733.481 478.191L733.623 478.606C735.545 477.948 737.4 477.886 738.072 477.936L738.104 477.499ZM742.614 478.388C741.995 478.027 741.104 477.808 740.263 477.678C739.416 477.546 738.592 477.5 738.089 477.498L738.087 477.937C738.571 477.939 739.372 477.983 740.195 478.111C741.025 478.24 741.848 478.449 742.394 478.767L742.614 478.388ZM744.813 481.292C744.952 480.528 744.574 479.875 744.097 479.39C743.618 478.904 743.008 478.553 742.59 478.376L742.418 478.779C742.798 478.94 743.355 479.263 743.784 479.698C744.214 480.135 744.484 480.651 744.382 481.214L744.813 481.292ZM744.817 483.236V481.253H744.378V483.236H744.817ZM743.287 485.068C743.895 484.665 744.277 484.292 744.508 483.981C744.732 483.679 744.83 483.41 744.816 483.221L744.379 483.252C744.381 483.286 744.356 483.449 744.155 483.72C743.962 483.981 743.621 484.321 743.045 484.702L743.287 485.068ZM743.134 485.137C743.171 485.12 743.198 485.108 743.217 485.1C743.227 485.096 743.231 485.094 743.232 485.093C743.233 485.093 743.23 485.094 743.225 485.096C743.222 485.097 743.217 485.098 743.209 485.1C743.205 485.101 743.2 485.102 743.194 485.102C743.187 485.103 743.178 485.104 743.166 485.104V484.666C743.129 484.666 743.1 484.675 743.098 484.676C743.089 484.679 743.081 484.682 743.075 484.684C743.064 484.688 743.052 484.693 743.041 484.698C743.018 484.708 742.987 484.722 742.951 484.739L743.134 485.137ZM740.988 485.887C741.99 485.661 742.829 485.277 743.134 485.137L742.951 484.739C742.651 484.876 741.846 485.244 740.891 485.459L740.988 485.887ZM741.159 487.214V485.673H740.72V487.214H741.159ZM742.747 489.467C742.797 488.866 742.499 488.329 742.144 487.919C741.787 487.506 741.347 487.19 741.046 487.023L740.833 487.406C741.098 487.553 741.495 487.838 741.813 488.206C742.133 488.576 742.346 488.999 742.309 489.43L742.747 489.467ZM742.747 491.563V489.448H742.309V491.563H742.747ZM741.002 493.515C741.7 493.163 742.139 492.78 742.403 492.432C742.663 492.09 742.761 491.769 742.747 491.548L742.309 491.577C742.315 491.659 742.274 491.877 742.054 492.167C741.838 492.452 741.455 492.796 740.805 493.123L741.002 493.515ZM736.062 494.649C738.311 494.571 740.283 493.866 741 493.516L740.807 493.122C740.137 493.449 738.226 494.135 736.047 494.211L736.062 494.649ZM731.105 493.806C731.829 494.124 733.81 494.727 736.062 494.649L736.047 494.211C733.87 494.286 731.954 493.7 731.281 493.405L731.105 493.806ZM728.73 491.733C728.868 492.311 729.32 492.775 729.786 493.114C730.257 493.456 730.78 493.695 731.122 493.813L731.264 493.398C730.957 493.292 730.474 493.072 730.043 492.759C729.607 492.442 729.258 492.057 729.156 491.631L728.73 491.733ZM728.724 489.174V491.682H729.162V489.174H728.724ZM727.112 487.428C727.135 487.913 727.462 488.34 727.807 488.658C728.159 488.984 728.571 489.236 728.847 489.371L729.039 488.977C728.794 488.857 728.419 488.627 728.105 488.336C727.783 488.039 727.565 487.715 727.55 487.407L727.112 487.428ZM727.111 485.1V487.417H727.55V485.1H727.111ZM730.946 482.056C727.959 482.822 727.106 484.324 727.111 485.101L727.55 485.099C727.547 484.618 728.151 483.225 731.055 482.481L730.946 482.056ZM737.408 478.514C735.401 478.572 734.057 478.959 733.189 479.435C732.328 479.907 731.917 480.479 731.832 480.912L732.263 480.997C732.314 480.737 732.604 480.256 733.4 479.819C734.19 479.386 735.461 479.009 737.42 478.952L737.408 478.514ZM743.692 480.426C743.469 480.043 742.889 479.538 741.884 479.144C740.873 478.747 739.415 478.456 737.408 478.514L737.42 478.952C739.38 478.895 740.777 479.181 741.724 479.552C742.678 479.927 743.159 480.381 743.313 480.647L743.692 480.426ZM739.451 483.49C741.524 483.228 742.686 482.69 743.286 482.099C743.894 481.499 743.919 480.84 743.695 480.431L743.31 480.642C743.427 480.855 743.467 481.304 742.978 481.786C742.479 482.278 741.431 482.797 739.396 483.055L739.451 483.49ZM731.856 480.847C731.766 481.007 731.783 481.188 731.843 481.348C731.902 481.508 732.014 481.674 732.164 481.836C732.464 482.161 732.946 482.506 733.591 482.803C734.884 483.399 736.863 483.817 739.451 483.49L739.396 483.055C736.882 483.373 734.986 482.963 733.774 482.405C733.166 482.125 732.737 481.811 732.486 481.538C732.36 481.402 732.287 481.284 732.253 481.194C732.219 481.103 732.235 481.068 732.238 481.062L731.856 480.847ZM732.231 483.093V482.818H731.792V483.093H732.231ZM734.189 484.295C733.401 484.024 732.906 483.741 732.609 483.507C732.46 483.39 732.364 483.287 732.305 483.207C732.243 483.122 732.23 483.073 732.229 483.064L731.794 483.122C731.809 483.232 731.866 483.35 731.951 483.466C732.038 483.585 732.165 483.716 732.338 483.852C732.683 484.124 733.225 484.427 734.046 484.71L734.189 484.295ZM738.577 484.798C737.769 484.856 735.756 484.836 734.189 484.295L734.046 484.71C735.693 485.278 737.773 485.296 738.609 485.235L738.577 484.798ZM742.612 483.78C741.05 484.546 739.271 484.778 738.587 484.797L738.599 485.236C739.327 485.215 741.171 484.975 742.805 484.174L742.612 483.78ZM743.382 483.098C743.341 483.204 743.221 483.341 743.052 483.48C742.89 483.613 742.713 483.724 742.603 483.785L742.814 484.169C742.944 484.098 743.144 483.972 743.33 483.819C743.509 483.672 743.707 483.474 743.791 483.255L743.382 483.098ZM743.368 482.818V483.177H743.806V482.818H743.368ZM742.237 483.794C742.8 483.639 743.463 483.191 743.721 482.992L743.453 482.645C743.205 482.836 742.598 483.24 742.121 483.371L742.237 483.794ZM741.865 483.918C742.003 483.868 742.118 483.827 742.237 483.794L742.121 483.371C741.982 483.41 741.852 483.457 741.717 483.505L741.865 483.918ZM738.124 484.542C740.497 484.407 741.294 484.124 741.865 483.918L741.717 483.505C741.187 483.696 740.432 483.972 738.099 484.105L738.124 484.542ZM731.881 482.994C732.727 483.621 735.135 484.713 738.124 484.542L738.099 484.105C735.216 484.269 732.908 483.21 732.142 482.642L731.881 482.994ZM730.82 483.305C730.9 483.833 731.549 484.882 733.359 485.51L733.503 485.096C731.791 484.501 731.301 483.555 731.253 483.239L730.82 483.305ZM728.631 484.913C728.665 484.82 728.821 484.59 729.217 484.313C729.605 484.041 730.206 483.736 731.096 483.483L730.977 483.061C730.048 483.325 729.4 483.649 728.965 483.954C728.538 484.253 728.298 484.548 728.22 484.762L728.631 484.913ZM728.736 485.733C728.415 485.36 728.54 485.05 728.601 484.969L728.25 484.706C728.078 484.935 727.935 485.475 728.404 486.019L728.736 485.733ZM730.612 486.831C730.375 486.737 729.991 486.565 729.62 486.362C729.242 486.155 728.905 485.93 728.736 485.733L728.404 486.019C728.629 486.281 729.029 486.538 729.41 486.747C729.798 486.96 730.198 487.139 730.45 487.239L730.612 486.831ZM734.82 487.342C734.002 487.369 732.017 487.302 730.601 486.827L730.462 487.243C731.952 487.743 733.999 487.808 734.834 487.78L734.82 487.342ZM739.362 485.802C739.241 485.981 738.864 486.316 738.12 486.634C737.385 486.948 736.307 487.238 734.812 487.342L734.842 487.78C736.379 487.673 737.505 487.374 738.293 487.037C739.073 486.704 739.538 486.326 739.726 486.047L739.362 485.802ZM733.359 485.51C735.6 486.288 737.68 486.336 739.566 486.142L739.521 485.706C737.677 485.895 735.666 485.847 733.503 485.096L733.359 485.51ZM728.549 487.358V487.035H728.11V487.358H728.549ZM730.467 488.499C729.754 488.266 729.28 488.002 728.978 487.773C728.669 487.538 728.558 487.354 728.538 487.291L728.12 487.425C728.18 487.612 728.373 487.864 728.713 488.122C729.06 488.386 729.58 488.671 730.331 488.916L730.467 488.499ZM733.956 489.05C733.397 489.061 731.902 488.968 730.467 488.499L730.331 488.916C731.822 489.403 733.369 489.501 733.965 489.488L733.956 489.05ZM738.11 488.351C736.699 488.954 734.76 489.069 733.966 489.05L733.955 489.488C734.774 489.508 736.786 489.393 738.282 488.754L738.11 488.351ZM739.727 487.283C739.592 487.516 739.311 487.744 738.985 487.939C738.665 488.131 738.331 488.274 738.124 488.345L738.268 488.76C738.499 488.68 738.861 488.525 739.21 488.316C739.553 488.111 739.914 487.835 740.106 487.504L739.727 487.283ZM739.698 487.035V487.394H740.136V487.035H739.698ZM735.788 488.664C737.719 488.575 739.424 487.664 740.046 487.213L739.788 486.858C739.214 487.274 737.59 488.142 735.768 488.226L735.788 488.664ZM734.745 488.719C735.032 488.703 735.369 488.683 735.788 488.664L735.768 488.226C735.346 488.245 735.007 488.265 734.72 488.281L734.745 488.719ZM734.746 488.719L734.746 488.719L734.72 488.281L734.719 488.281L734.746 488.719ZM731.034 488.434C732.086 488.62 732.682 488.712 733.183 488.746C733.686 488.781 734.089 488.757 734.745 488.719L734.72 488.281C734.059 488.32 733.684 488.341 733.213 488.309C732.739 488.276 732.164 488.188 731.111 488.002L731.034 488.434ZM728.2 487.212C729.102 487.869 730.459 488.297 731.022 488.431L731.123 488.004C730.58 487.875 729.29 487.463 728.458 486.858L728.2 487.212ZM740.907 490.117C740.4 490.543 739.704 490.848 739.026 491.054C738.351 491.26 737.712 491.361 737.336 491.392L737.372 491.829C737.778 491.796 738.447 491.689 739.154 491.474C739.858 491.26 740.618 490.933 741.189 490.452L740.907 490.117ZM740.476 488.418C740.758 488.545 741.093 488.786 741.239 489.079C741.308 489.219 741.334 489.368 741.295 489.53C741.256 489.695 741.144 489.896 740.899 490.124L741.197 490.445C741.486 490.176 741.657 489.904 741.722 489.632C741.788 489.356 741.74 489.102 741.631 488.884C741.421 488.461 740.981 488.165 740.657 488.018L740.476 488.418ZM729.956 489.863C731.152 490.193 733.116 490.514 735.137 490.411C737.155 490.309 739.268 489.782 740.719 488.375L740.414 488.06C739.074 489.359 737.088 489.873 735.115 489.973C733.147 490.073 731.23 489.759 730.072 489.44L729.956 489.863ZM733.678 491.312C732.77 491.134 731.997 490.92 731.401 490.633C730.805 490.347 730.408 489.998 730.214 489.562L729.813 489.74C730.065 490.308 730.564 490.718 731.211 491.029C731.857 491.339 732.673 491.562 733.594 491.742L733.678 491.312ZM737.322 491.393C736.708 491.483 735.109 491.592 733.678 491.312L733.594 491.742C735.089 492.035 736.741 491.921 737.385 491.827L737.322 491.393ZM730.161 491.515C730.161 491.46 730.162 491.378 730.163 491.309C730.164 491.274 730.165 491.245 730.167 491.225C730.167 491.215 730.168 491.211 730.168 491.211C730.168 491.211 730.167 491.213 730.167 491.215C730.167 491.217 730.166 491.22 730.165 491.225C730.164 491.23 730.161 491.24 730.156 491.252C730.153 491.26 730.14 491.293 730.108 491.324L729.799 491.013C729.767 491.045 729.753 491.079 729.749 491.088C729.744 491.102 729.741 491.113 729.739 491.12C729.736 491.133 729.734 491.145 729.733 491.152C729.731 491.167 729.73 491.183 729.729 491.197C729.727 491.225 729.726 491.261 729.725 491.298C729.723 491.372 729.722 491.458 729.722 491.515H730.161ZM732.705 492.832C731.736 492.574 731.102 492.273 730.707 492.009C730.509 491.877 730.373 491.756 730.285 491.657C730.193 491.554 730.161 491.484 730.153 491.457L729.73 491.573C729.763 491.691 729.842 491.819 729.957 491.949C730.075 492.081 730.241 492.225 730.464 492.374C730.909 492.67 731.589 492.989 732.593 493.256L732.705 492.832ZM739.206 492.702C736.482 493.491 733.729 493.115 732.707 492.833L732.591 493.255C733.67 493.554 736.508 493.94 739.328 493.123L739.206 492.702ZM741.351 491.417C741.191 491.695 740.821 491.972 740.38 492.209C739.949 492.441 739.49 492.615 739.203 492.703L739.331 493.122C739.642 493.027 740.127 492.843 740.588 492.595C741.039 492.352 741.506 492.028 741.731 491.636L741.351 491.417ZM741.322 491.168V491.527H741.761V491.168H741.322ZM737.874 492.772C739.849 492.528 741.224 491.727 741.684 491.335L741.399 491.002C741.008 491.335 739.715 492.103 737.82 492.337L737.874 492.772ZM734.301 492.84C734.695 492.923 735.928 493.012 737.874 492.772L737.82 492.337C735.897 492.574 734.718 492.48 734.391 492.411L734.301 492.84ZM729.828 491.348C731.501 492.517 733.526 492.833 734.342 492.845L734.349 492.407C733.593 492.395 731.66 492.094 730.079 490.989L729.828 491.348Z" fill="#FFF9F9"/>
</g>
</g>
<g id="b-1-cash-1">
<rect id="bankomat-icon-background_2" x="763" y="475" width="22" height="22" rx="6" fill="#C0D5F2"/>
<g id="bankomat-icon_2">
<path fill-rule="evenodd" clip-rule="evenodd" d="M769.001 482.269V480.931C769.037 480.365 769.597 479.067 771.552 478.398C773.506 477.729 775.39 477.666 776.088 477.717C777.075 477.721 779.339 477.899 780.504 478.578C781.302 478.916 782.838 479.925 782.598 481.253V483.236C782.614 483.459 782.35 484.101 781.166 484.885C781.159 484.885 781.116 484.904 781.043 484.938C780.74 485.076 779.918 485.452 778.94 485.673V487.214C779.505 487.529 780.615 488.416 780.528 489.448V491.563C780.548 491.865 780.251 492.64 778.904 493.319C778.21 493.657 776.268 494.353 774.054 494.43C771.84 494.506 769.891 493.912 769.193 493.605C768.543 493.382 767.184 492.686 766.943 491.682V489.174C766.422 488.919 765.369 488.211 765.331 487.417V485.1C765.327 484.471 766.055 483.024 769.001 482.269ZM770.047 480.955C770.184 480.262 771.448 478.847 775.414 478.733C779.38 478.618 781.126 479.888 781.503 480.537C781.844 481.158 781.532 482.753 777.423 483.272C772.322 483.917 769.674 481.617 770.047 480.955ZM770.011 482.818V483.093C770.043 483.332 770.509 483.948 772.117 484.503C773.725 485.057 775.771 485.076 776.593 485.016C777.299 484.996 779.11 484.761 780.708 483.977C780.949 483.846 781.462 483.502 781.587 483.177V482.818C781.334 483.013 780.699 483.439 780.179 483.583C780.05 483.618 779.927 483.663 779.791 483.712C779.241 483.91 778.464 484.189 776.112 484.323C773.176 484.491 770.817 483.416 770.011 482.818ZM771.431 485.303C769.67 484.691 769.101 483.694 769.037 483.272C767.217 483.788 766.538 484.531 766.426 484.837C766.309 484.992 766.175 485.418 766.57 485.876C766.965 486.335 768.042 486.84 768.531 487.035C769.985 487.523 772.001 487.589 772.827 487.561C775.859 487.351 777.235 486.382 777.544 485.924C775.679 486.115 773.633 486.068 771.431 485.303ZM766.329 487.035V487.358C766.409 487.609 766.936 488.23 768.399 488.708C769.862 489.185 771.383 489.281 771.961 489.269C772.767 489.289 774.743 489.174 776.196 488.552C776.633 488.401 777.59 487.957 777.917 487.394V487.035C777.319 487.469 775.655 488.359 773.778 488.445C773.358 488.464 773.02 488.484 772.733 488.5L772.733 488.5C771.416 488.577 771.177 488.591 769.073 488.218C768.519 488.086 767.196 487.666 766.329 487.035ZM775.354 491.61C776.136 491.547 777.97 491.192 779.048 490.284C780.116 489.291 779.172 488.493 778.567 488.218C775.775 490.922 770.368 490.3 768.014 489.651C768.459 490.655 769.807 491.168 771.636 491.527C773.099 491.814 774.724 491.702 775.354 491.61ZM767.954 491.168C767.944 491.178 767.942 491.403 767.942 491.515C768.022 491.806 768.676 492.518 770.649 493.044C771.7 493.335 774.495 493.715 777.267 492.913C777.865 492.729 779.156 492.196 779.541 491.527V491.168C779.116 491.531 777.782 492.315 775.847 492.554C773.912 492.793 772.707 492.702 772.346 492.626C771.56 492.614 769.581 492.306 767.954 491.168Z" fill="#FFFBFB"/>
<path d="M769.001 480.931L768.781 480.917V480.931H769.001ZM769.001 482.269L769.055 482.481L769.22 482.439V482.269H769.001ZM771.552 478.398L771.481 478.191L771.552 478.398ZM776.088 477.717L776.072 477.936L776.079 477.937L776.087 477.937L776.088 477.717ZM780.504 478.578L780.394 478.767L780.406 478.774L780.418 478.779L780.504 478.578ZM782.598 481.253L782.382 481.214L782.378 481.234V481.253H782.598ZM782.598 483.236H782.378V483.244L782.379 483.252L782.598 483.236ZM781.166 484.885V485.104H781.232L781.287 485.068L781.166 484.885ZM781.043 484.938L781.134 485.137L781.134 485.137L781.043 484.938ZM778.94 485.673L778.891 485.459L778.72 485.498V485.673H778.94ZM778.94 487.214H778.72V487.343L778.833 487.406L778.94 487.214ZM780.528 489.448L780.309 489.43L780.309 489.439V489.448H780.528ZM780.528 491.563H780.309V491.57L780.309 491.577L780.528 491.563ZM778.904 493.319L779 493.516L779.002 493.515L778.904 493.319ZM774.054 494.43L774.047 494.211L774.047 494.211L774.054 494.43ZM769.193 493.605L769.281 493.405L769.273 493.401L769.264 493.398L769.193 493.605ZM766.943 491.682H766.724V491.708L766.73 491.733L766.943 491.682ZM766.943 489.174H767.162V489.037L767.039 488.977L766.943 489.174ZM765.331 487.417H765.111L765.112 487.428L765.331 487.417ZM765.331 485.1H765.55L765.55 485.099L765.331 485.1ZM775.414 478.733L775.42 478.952L775.42 478.952L775.414 478.733ZM770.047 480.955L770.238 481.062L770.256 481.032L770.263 480.997L770.047 480.955ZM781.503 480.537L781.695 480.431L781.692 480.426L781.503 480.537ZM777.423 483.272L777.451 483.49L777.451 483.49L777.423 483.272ZM770.011 483.093H769.792V483.108L769.794 483.122L770.011 483.093ZM770.011 482.818L770.142 482.642L769.792 482.383V482.818H770.011ZM772.117 484.503L772.046 484.71L772.046 484.71L772.117 484.503ZM776.593 485.016L776.587 484.797L776.577 484.798L776.593 485.016ZM780.708 483.977L780.805 484.174L780.814 484.169L780.708 483.977ZM781.587 483.177L781.791 483.255L781.806 483.217V483.177H781.587ZM781.587 482.818H781.806V482.372L781.453 482.645L781.587 482.818ZM780.179 483.583L780.121 483.371L780.121 483.371L780.179 483.583ZM779.791 483.712L779.865 483.918L779.865 483.918L779.791 483.712ZM776.112 484.323L776.099 484.105L776.099 484.105L776.112 484.323ZM769.037 483.272L769.253 483.239L769.216 482.993L768.977 483.061L769.037 483.272ZM771.431 485.303L771.359 485.51L771.431 485.303ZM766.426 484.837L766.601 484.969L766.62 484.943L766.631 484.913L766.426 484.837ZM766.57 485.876L766.736 485.733L766.736 485.733L766.57 485.876ZM768.531 487.035L768.45 487.239L768.462 487.243L768.531 487.035ZM772.827 487.561L772.834 487.78L772.842 487.78L772.827 487.561ZM777.544 485.924L777.726 486.047L777.988 485.658L777.521 485.706L777.544 485.924ZM766.329 487.358H766.11V487.392L766.12 487.425L766.329 487.358ZM766.329 487.035L766.458 486.858L766.11 486.604V487.035H766.329ZM768.399 488.708L768.331 488.916L768.331 488.916L768.399 488.708ZM771.961 489.269L771.966 489.05L771.956 489.05L771.961 489.269ZM776.196 488.552L776.124 488.345L776.117 488.348L776.11 488.351L776.196 488.552ZM777.917 487.394L778.106 487.504L778.136 487.453V487.394H777.917ZM777.917 487.035H778.136V486.605L777.788 486.858L777.917 487.035ZM773.778 488.445L773.788 488.664L773.788 488.664L773.778 488.445ZM772.733 488.5L772.72 488.281L772.72 488.281L772.733 488.5ZM772.733 488.5L772.745 488.719L772.746 488.719L772.733 488.5ZM769.073 488.218L769.022 488.432L769.034 488.434L769.073 488.218ZM779.048 490.284L779.189 490.452L779.197 490.445L779.048 490.284ZM775.354 491.61L775.336 491.391L775.322 491.393L775.354 491.61ZM778.567 488.218L778.657 488.018L778.521 487.956L778.414 488.06L778.567 488.218ZM768.014 489.651L768.072 489.44L767.626 489.317L767.813 489.74L768.014 489.651ZM771.636 491.527L771.678 491.312L771.678 491.312L771.636 491.527ZM767.942 491.515H767.722V491.545L767.73 491.573L767.942 491.515ZM767.954 491.168L768.079 490.989L767.929 490.884L767.799 491.013L767.954 491.168ZM770.649 493.044L770.707 492.833L770.705 492.832L770.649 493.044ZM777.267 492.913L777.328 493.123L777.331 493.122L777.267 492.913ZM779.541 491.527L779.731 491.636L779.761 491.585V491.527H779.541ZM779.541 491.168H779.761V490.693L779.399 491.002L779.541 491.168ZM775.847 492.554L775.82 492.337L775.82 492.337L775.847 492.554ZM772.346 492.626L772.391 492.411L772.37 492.407L772.349 492.407L772.346 492.626ZM768.781 480.931V482.269H769.22V480.931H768.781ZM771.481 478.191C769.453 478.885 768.824 480.253 768.782 480.917L769.219 480.945C769.249 480.478 769.742 479.25 771.623 478.606L771.481 478.191ZM776.104 477.499C775.38 477.445 773.466 477.511 771.481 478.191L771.623 478.606C773.545 477.948 775.4 477.886 776.072 477.936L776.104 477.499ZM780.614 478.388C779.995 478.027 779.104 477.808 778.263 477.678C777.416 477.546 776.592 477.5 776.089 477.498L776.087 477.937C776.571 477.939 777.372 477.983 778.195 478.111C779.025 478.24 779.848 478.449 780.394 478.767L780.614 478.388ZM782.813 481.292C782.952 480.528 782.574 479.875 782.097 479.39C781.618 478.904 781.008 478.553 780.59 478.376L780.418 478.779C780.798 478.94 781.355 479.263 781.784 479.698C782.214 480.135 782.484 480.651 782.382 481.214L782.813 481.292ZM782.817 483.236V481.253H782.378V483.236H782.817ZM781.287 485.068C781.895 484.665 782.277 484.292 782.508 483.981C782.732 483.679 782.83 483.41 782.816 483.221L782.379 483.252C782.381 483.286 782.356 483.449 782.155 483.72C781.962 483.981 781.621 484.321 781.045 484.702L781.287 485.068ZM781.134 485.137C781.171 485.12 781.198 485.108 781.217 485.1C781.227 485.096 781.231 485.094 781.232 485.093C781.233 485.093 781.23 485.094 781.225 485.096C781.222 485.097 781.217 485.098 781.209 485.1C781.205 485.101 781.2 485.102 781.194 485.102C781.187 485.103 781.178 485.104 781.166 485.104V484.666C781.129 484.666 781.1 484.675 781.098 484.676C781.089 484.679 781.081 484.682 781.075 484.684C781.064 484.688 781.052 484.693 781.041 484.698C781.018 484.708 780.987 484.722 780.951 484.739L781.134 485.137ZM778.988 485.887C779.99 485.661 780.829 485.277 781.134 485.137L780.951 484.739C780.651 484.876 779.846 485.244 778.891 485.459L778.988 485.887ZM779.159 487.214V485.673H778.72V487.214H779.159ZM780.747 489.467C780.797 488.866 780.499 488.329 780.144 487.919C779.787 487.506 779.347 487.19 779.046 487.023L778.833 487.406C779.098 487.553 779.495 487.838 779.813 488.206C780.133 488.576 780.346 488.999 780.309 489.43L780.747 489.467ZM780.747 491.563V489.448H780.309V491.563H780.747ZM779.002 493.515C779.7 493.163 780.139 492.78 780.403 492.432C780.663 492.09 780.761 491.769 780.747 491.548L780.309 491.577C780.315 491.659 780.274 491.877 780.054 492.167C779.838 492.452 779.455 492.796 778.805 493.123L779.002 493.515ZM774.062 494.649C776.311 494.571 778.283 493.866 779 493.516L778.807 493.122C778.137 493.449 776.226 494.135 774.047 494.211L774.062 494.649ZM769.105 493.806C769.829 494.124 771.81 494.727 774.062 494.649L774.047 494.211C771.87 494.286 769.954 493.7 769.281 493.405L769.105 493.806ZM766.73 491.733C766.868 492.311 767.32 492.775 767.786 493.114C768.257 493.456 768.78 493.695 769.122 493.813L769.264 493.398C768.957 493.292 768.474 493.072 768.043 492.759C767.607 492.442 767.258 492.057 767.156 491.631L766.73 491.733ZM766.724 489.174V491.682H767.162V489.174H766.724ZM765.112 487.428C765.135 487.913 765.462 488.34 765.807 488.658C766.159 488.984 766.571 489.236 766.847 489.371L767.039 488.977C766.794 488.857 766.419 488.627 766.105 488.336C765.783 488.039 765.565 487.715 765.55 487.407L765.112 487.428ZM765.111 485.1V487.417H765.55V485.1H765.111ZM768.946 482.056C765.959 482.822 765.106 484.324 765.111 485.101L765.55 485.099C765.547 484.618 766.151 483.225 769.055 482.481L768.946 482.056ZM775.408 478.514C773.401 478.572 772.057 478.959 771.189 479.435C770.328 479.907 769.917 480.479 769.832 480.912L770.263 480.997C770.314 480.737 770.604 480.256 771.4 479.819C772.19 479.386 773.461 479.009 775.42 478.952L775.408 478.514ZM781.692 480.426C781.469 480.043 780.889 479.538 779.884 479.144C778.873 478.747 777.415 478.456 775.408 478.514L775.42 478.952C777.38 478.895 778.777 479.181 779.724 479.552C780.678 479.927 781.159 480.381 781.313 480.647L781.692 480.426ZM777.451 483.49C779.524 483.228 780.686 482.69 781.286 482.099C781.894 481.499 781.919 480.84 781.695 480.431L781.31 480.642C781.427 480.855 781.467 481.304 780.978 481.786C780.479 482.278 779.431 482.797 777.396 483.055L777.451 483.49ZM769.856 480.847C769.766 481.007 769.783 481.188 769.843 481.348C769.902 481.508 770.014 481.674 770.164 481.836C770.464 482.161 770.946 482.506 771.591 482.803C772.884 483.399 774.863 483.817 777.451 483.49L777.396 483.055C774.882 483.373 772.986 482.963 771.774 482.405C771.166 482.125 770.737 481.811 770.486 481.538C770.36 481.402 770.287 481.284 770.253 481.194C770.219 481.103 770.235 481.068 770.238 481.062L769.856 480.847ZM770.231 483.093V482.818H769.792V483.093H770.231ZM772.189 484.295C771.401 484.024 770.906 483.741 770.609 483.507C770.46 483.39 770.364 483.287 770.305 483.207C770.243 483.122 770.23 483.073 770.229 483.064L769.794 483.122C769.809 483.232 769.866 483.35 769.951 483.466C770.038 483.585 770.165 483.716 770.338 483.852C770.683 484.124 771.225 484.427 772.046 484.71L772.189 484.295ZM776.577 484.798C775.769 484.856 773.756 484.836 772.189 484.295L772.046 484.71C773.693 485.278 775.773 485.296 776.609 485.235L776.577 484.798ZM780.612 483.78C779.05 484.546 777.271 484.778 776.587 484.797L776.599 485.236C777.327 485.215 779.171 484.975 780.805 484.174L780.612 483.78ZM781.382 483.098C781.341 483.204 781.221 483.341 781.052 483.48C780.89 483.613 780.713 483.724 780.603 483.785L780.814 484.169C780.944 484.098 781.144 483.972 781.33 483.819C781.509 483.672 781.707 483.474 781.791 483.255L781.382 483.098ZM781.368 482.818V483.177H781.806V482.818H781.368ZM780.237 483.794C780.8 483.639 781.463 483.191 781.721 482.992L781.453 482.645C781.205 482.836 780.598 483.24 780.121 483.371L780.237 483.794ZM779.865 483.918C780.003 483.868 780.118 483.827 780.237 483.794L780.121 483.371C779.982 483.41 779.852 483.457 779.717 483.505L779.865 483.918ZM776.124 484.542C778.497 484.407 779.294 484.124 779.865 483.918L779.717 483.505C779.187 483.696 778.432 483.972 776.099 484.105L776.124 484.542ZM769.881 482.994C770.727 483.621 773.135 484.713 776.124 484.542L776.099 484.105C773.216 484.269 770.908 483.21 770.142 482.642L769.881 482.994ZM768.82 483.305C768.9 483.833 769.549 484.882 771.359 485.51L771.503 485.096C769.791 484.501 769.301 483.555 769.253 483.239L768.82 483.305ZM766.631 484.913C766.665 484.82 766.821 484.59 767.217 484.313C767.605 484.041 768.206 483.736 769.096 483.483L768.977 483.061C768.048 483.325 767.4 483.649 766.965 483.954C766.538 484.253 766.298 484.548 766.22 484.762L766.631 484.913ZM766.736 485.733C766.415 485.36 766.54 485.05 766.601 484.969L766.25 484.706C766.078 484.935 765.935 485.475 766.404 486.019L766.736 485.733ZM768.612 486.831C768.375 486.737 767.991 486.565 767.62 486.362C767.242 486.155 766.905 485.93 766.736 485.733L766.404 486.019C766.629 486.281 767.029 486.538 767.41 486.747C767.798 486.96 768.198 487.139 768.45 487.239L768.612 486.831ZM772.82 487.342C772.002 487.369 770.017 487.302 768.601 486.827L768.462 487.243C769.952 487.743 771.999 487.808 772.834 487.78L772.82 487.342ZM777.362 485.802C777.241 485.981 776.864 486.316 776.12 486.634C775.385 486.948 774.307 487.238 772.812 487.342L772.842 487.78C774.379 487.673 775.505 487.374 776.293 487.037C777.073 486.704 777.538 486.326 777.726 486.047L777.362 485.802ZM771.359 485.51C773.6 486.288 775.68 486.336 777.566 486.142L777.521 485.706C775.677 485.895 773.666 485.847 771.503 485.096L771.359 485.51ZM766.549 487.358V487.035H766.11V487.358H766.549ZM768.467 488.499C767.754 488.266 767.28 488.002 766.978 487.773C766.669 487.538 766.558 487.354 766.538 487.291L766.12 487.425C766.18 487.612 766.373 487.864 766.713 488.122C767.06 488.386 767.58 488.671 768.331 488.916L768.467 488.499ZM771.956 489.05C771.397 489.061 769.902 488.968 768.467 488.499L768.331 488.916C769.822 489.403 771.369 489.501 771.965 489.488L771.956 489.05ZM776.11 488.351C774.699 488.954 772.76 489.069 771.966 489.05L771.955 489.488C772.774 489.508 774.786 489.393 776.282 488.754L776.11 488.351ZM777.727 487.283C777.592 487.516 777.311 487.744 776.985 487.939C776.665 488.131 776.331 488.274 776.124 488.345L776.268 488.76C776.499 488.68 776.861 488.525 777.21 488.316C777.553 488.111 777.914 487.835 778.106 487.504L777.727 487.283ZM777.698 487.035V487.394H778.136V487.035H777.698ZM773.788 488.664C775.719 488.575 777.424 487.664 778.046 487.213L777.788 486.858C777.214 487.274 775.59 488.142 773.768 488.226L773.788 488.664ZM772.745 488.719C773.032 488.703 773.369 488.683 773.788 488.664L773.768 488.226C773.346 488.245 773.007 488.265 772.72 488.281L772.745 488.719ZM772.746 488.719L772.746 488.719L772.72 488.281L772.719 488.281L772.746 488.719ZM769.034 488.434C770.086 488.62 770.682 488.712 771.183 488.746C771.686 488.781 772.089 488.757 772.745 488.719L772.72 488.281C772.059 488.32 771.684 488.341 771.213 488.309C770.739 488.276 770.164 488.188 769.111 488.002L769.034 488.434ZM766.2 487.212C767.102 487.869 768.459 488.297 769.022 488.431L769.123 488.004C768.58 487.875 767.29 487.463 766.458 486.858L766.2 487.212ZM778.907 490.117C778.4 490.543 777.704 490.848 777.026 491.054C776.351 491.26 775.712 491.361 775.336 491.392L775.372 491.829C775.778 491.796 776.447 491.689 777.154 491.474C777.858 491.26 778.618 490.933 779.189 490.452L778.907 490.117ZM778.476 488.418C778.758 488.545 779.093 488.786 779.239 489.079C779.308 489.219 779.334 489.368 779.295 489.53C779.256 489.695 779.144 489.896 778.899 490.124L779.197 490.445C779.486 490.176 779.657 489.904 779.722 489.632C779.788 489.356 779.74 489.102 779.631 488.884C779.421 488.461 778.981 488.165 778.657 488.018L778.476 488.418ZM767.956 489.863C769.152 490.193 771.116 490.514 773.137 490.411C775.155 490.309 777.268 489.782 778.719 488.375L778.414 488.06C777.074 489.359 775.088 489.873 773.115 489.973C771.147 490.073 769.23 489.759 768.072 489.44L767.956 489.863ZM771.678 491.312C770.77 491.134 769.997 490.92 769.401 490.633C768.805 490.347 768.408 489.998 768.214 489.562L767.813 489.74C768.065 490.308 768.564 490.718 769.211 491.029C769.857 491.339 770.673 491.562 771.594 491.742L771.678 491.312ZM775.322 491.393C774.708 491.483 773.109 491.592 771.678 491.312L771.594 491.742C773.089 492.035 774.741 491.921 775.385 491.827L775.322 491.393ZM768.161 491.515C768.161 491.46 768.162 491.378 768.163 491.309C768.164 491.274 768.165 491.245 768.167 491.225C768.167 491.215 768.168 491.211 768.168 491.211C768.168 491.211 768.167 491.213 768.167 491.215C768.167 491.217 768.166 491.22 768.165 491.225C768.164 491.23 768.161 491.24 768.156 491.252C768.153 491.26 768.14 491.293 768.108 491.324L767.799 491.013C767.767 491.045 767.753 491.079 767.749 491.088C767.744 491.102 767.741 491.113 767.739 491.12C767.736 491.133 767.734 491.145 767.733 491.152C767.731 491.167 767.73 491.183 767.729 491.197C767.727 491.225 767.726 491.261 767.725 491.298C767.723 491.372 767.722 491.458 767.722 491.515H768.161ZM770.705 492.832C769.736 492.574 769.102 492.273 768.707 492.009C768.509 491.877 768.373 491.756 768.285 491.657C768.193 491.554 768.161 491.484 768.153 491.457L767.73 491.573C767.763 491.691 767.842 491.819 767.957 491.949C768.075 492.081 768.241 492.225 768.464 492.374C768.909 492.67 769.589 492.989 770.593 493.256L770.705 492.832ZM777.206 492.702C774.482 493.491 771.729 493.115 770.707 492.833L770.591 493.255C771.67 493.554 774.508 493.94 777.328 493.123L777.206 492.702ZM779.351 491.417C779.191 491.695 778.821 491.972 778.38 492.209C777.949 492.441 777.49 492.615 777.203 492.703L777.331 493.122C777.642 493.027 778.127 492.843 778.588 492.595C779.039 492.352 779.506 492.028 779.731 491.636L779.351 491.417ZM779.322 491.168V491.527H779.761V491.168H779.322ZM775.874 492.772C777.849 492.528 779.224 491.727 779.684 491.335L779.399 491.002C779.008 491.335 777.715 492.103 775.82 492.337L775.874 492.772ZM772.301 492.84C772.695 492.923 773.928 493.012 775.874 492.772L775.82 492.337C773.897 492.574 772.718 492.48 772.391 492.411L772.301 492.84ZM767.828 491.348C769.501 492.517 771.526 492.833 772.342 492.845L772.349 492.407C771.593 492.395 769.66 492.094 768.079 490.989L767.828 491.348Z" fill="#FFF9F9"/>
</g>
</g>
</g>
</svg>
