<svg width="974" height="469" viewBox="0 0 974 469" fill="none" xmlns="http://www.w3.org/2000/svg">
<g id="b-floor-2">
<path id="b-2-background" d="M172.632 448.641H2.44092V11.2591H117.077V2.44092H179.686V28.8955H863.977V6.85001H921.295V62.4045H971.559V408.959H922.177V466.277H864.859V437.177H337.532H311.077H172.632V448.641Z" fill="white" stroke="white"/>
<path id="b-2-elevator-up-background" d="M269.191 120.164H335.327V154.995H330.477L326.509 145.736H273.6L270.073 154.555H269.191V120.164Z" fill="#E6EEFA"/>
<path id="b-2-elevator-down-background" d="M335.768 345.027H265.664V315.927H270.902L275.187 323.663H327.832L330.477 315.927H335.768V345.027Z" fill="#E6EEFA"/>
<path id="b-2-right-hall" d="M529.327 392.032V328.273H567.245V375.009L751.545 375.649V433.209H699.546V392.032H529.327Z" fill="#D9D9D9"/>
<path id="b-2-left-hall" d="M531.091 72.5455V133.391H563.162V91.8059H748.018V72.5455H531.091Z" fill="#D9D9D9"/>
<g id="b-2-fire-escape">
<path id="b-2-fire-escape-2" d="M868.386 462.75V411.605H918.65V462.75H868.386Z" fill="#D9D9D9" stroke="#D9D9D9"/>
<path id="b-2-fire-escape-1" d="M867.504 59.7591V10.3773H917.768V59.7591H867.504Z" fill="#D9D9D9" stroke="#D9D9D9"/>
</g>
<g id="b-1-staircase-left">
<path id="b-1-staircase-background-right" d="M322.59 383.827V349.436H300.937V383.827H322.59Z" fill="#C0D5F2" stroke="#C0D5F2" stroke-width="2"/>
<path id="b-1-staircase-right-staircase" d="M319.087 378.178V380.837H303.803V364.389H305.982L305.982 366.549H308.667V369.456H311.352V372.363H314.036V375.271H316.721V378.178H319.087Z" fill="white" stroke="white"/>
<path id="b-1-arrow-right" d="M311.87 364.172C312.163 364.465 312.638 364.465 312.931 364.172L317.704 359.399C317.997 359.106 317.997 358.631 317.704 358.338C317.411 358.045 316.936 358.045 316.643 358.338L312.4 362.581L308.158 358.338C307.865 358.045 307.39 358.045 307.097 358.338C306.804 358.631 306.804 359.106 307.097 359.399L311.87 364.172ZM311.65 350.932V357.286H313.15V350.932H311.65ZM311.65 357.286V363.641H313.15V357.286H311.65Z" fill="#3A465C"/>
</g>
<g id="b-2-staircase!!">
<g id="b-2-staircase-center">
<path id="b-2-staircase-center-background" d="M461.868 188.505H408.077V275.805H461.868V188.505Z" fill="white" stroke="#C0D5F2" stroke-width="3"/>
<path id="b-2-staircase-center-down" d="M416.8 265.62V236.52H424.796V240.885H430.611V245.25H436.426V249.615H442.241V253.98H448.057V258.345H453.145V265.62H416.8Z" fill="white" stroke="#C0D5F2" stroke-width="2"/>
<path id="b-2-staircase-center-up" d="M416.8 205.965V198.69H453.145V227.79H445.876V223.425H440.061V219.06H434.246V214.695H428.43V210.33H422.615V205.965H416.8Z" fill="white" stroke="#C0D5F2" stroke-width="2"/>
<path id="b-1-arrow-left" d="M404.638 251.345C404.931 251.052 404.931 250.577 404.638 250.284L399.865 245.511C399.572 245.218 399.097 245.218 398.804 245.511C398.511 245.804 398.511 246.279 398.804 246.572L403.047 250.815L398.804 255.057C398.511 255.35 398.511 255.825 398.804 256.118C399.097 256.411 399.572 256.411 399.865 256.118L404.638 251.345ZM389.117 251.565H396.612V250.065H389.117V251.565ZM396.612 251.565H404.108V250.065H396.612V251.565Z" fill="#3A465C"/>
<path id="b-1-arrow-down" d="M435.503 278.361C435.21 278.068 434.735 278.068 434.442 278.361L429.669 283.134C429.376 283.426 429.376 283.901 429.669 284.194C429.962 284.487 430.437 284.487 430.73 284.194L434.973 279.952L439.215 284.194C439.508 284.487 439.983 284.487 440.276 284.194C440.569 283.901 440.569 283.426 440.276 283.134L435.503 278.361ZM435.723 293.882V286.386H434.223V293.882H435.723ZM435.723 286.386V278.891H434.223V286.386H435.723Z" fill="#3A465C"/>
<path id="b-1-arrow-up" d="M434.442 185.949C434.735 186.241 435.21 186.241 435.503 185.949L440.276 181.176C440.569 180.883 440.569 180.408 440.276 180.115C439.983 179.822 439.508 179.822 439.215 180.115L434.973 184.358L430.73 180.115C430.437 179.822 429.962 179.822 429.669 180.115C429.376 180.408 429.376 180.883 429.669 181.176L434.442 185.949ZM434.223 171.75V177.923H435.723V171.75H434.223ZM434.223 177.923V185.418H435.723V177.923H434.223Z" fill="#3A465C"/>
<path id="b-1-arrow-right_2" d="M465.306 213.106C465.013 213.399 465.013 213.874 465.306 214.167L470.079 218.94C470.372 219.233 470.847 219.233 471.14 218.94C471.432 218.647 471.432 218.172 471.14 217.879L466.897 213.636L471.14 209.394C471.432 209.101 471.432 208.626 471.14 208.333C470.847 208.04 470.372 208.04 470.079 208.333L465.306 213.106ZM480.827 212.886H473.332V214.386H480.827V212.886ZM473.332 212.886H465.836V214.386H473.332V212.886Z" fill="#3A465C"/>
</g>
<g id="b-2-staircase-right-down">
<path id="b-2-staircase-right-down-background" d="M559.75 334.886H532.414V378.977H559.75V334.886Z" fill="white" stroke="#C0D5F2" stroke-width="2"/>
<path id="b-2-staircase-right-down_2" d="M536.846 373.328V358.822H540.909V360.997H543.864V363.173H546.82V365.349H549.775V367.525H552.73V369.701H555.316V373.328H536.846Z" fill="white" stroke="#C0D5F2" stroke-width="1.5"/>
<path id="b-2-staircase-right-down_3" d="M536.846 344.048V340.612H555.316V355.615H551.622V353.196H548.667V350.919H545.712V348.629H542.664V346.338H539.801V344.048H536.846Z" fill="white" stroke="#C0D5F2" stroke-width="1.5"/>
</g>
<g id="b-2-staircase-right-up">
<path id="b-2-staircase-left-right-up" d="M557.105 91.5045H534.177V128.541H557.105V91.5045Z" fill="white" stroke="#C0D5F2" stroke-width="2"/>
<path id="b-2-staircase-right-up_2" d="M537.895 123.795V111.61H541.303V113.438H543.782V115.266H546.26V117.093H548.739V118.921H551.218V120.749H553.386V123.795H537.895Z" fill="white" stroke="#C0D5F2" stroke-width="1.5"/>
<path id="b-2-staircase-right-up_3" d="M537.895 99.2004V96.3145H553.386V108.916H550.288V106.884H547.81V104.972H545.331V103.048H542.775V101.124H540.374V99.2004H537.895Z" fill="white" stroke="#C0D5F2" stroke-width="1.5"/>
</g>
</g>
<g id="b-2-elevator!!">
<g id="b-2-elevator-down-2">
<rect id="b-2-elevator-down-2-background" x="306.668" y="326.068" width="17.6364" height="17.6364" rx="3" fill="#C0D5F2"/>
<g id="b-2-elevator-down-2-people">
<path d="M312.852 334.175H311.86H310.867V338.266H312.852V334.175Z" fill="white"/>
<path d="M311.174 332.629C311.174 333.005 311.47 333.311 311.836 333.311C312.201 333.311 312.497 333.005 312.497 332.629C312.497 332.252 312.201 331.947 311.836 331.947C311.47 331.947 311.174 332.252 311.174 332.629Z" fill="white"/>
<path d="M316.822 333.153C316.822 333.529 317.119 333.834 317.484 333.834C317.849 333.834 318.146 333.529 318.146 333.153C318.146 332.776 317.849 332.471 317.484 332.471C317.119 332.471 316.822 332.776 316.822 333.153Z" fill="white"/>
<path d="M320.131 337.584H317.815H317.484V337.925H320.131V337.584Z" fill="white"/>
<path d="M311.174 338.948L311.198 342.016M312.497 338.948L312.521 342.016M317.815 334.516V335.88M317.815 335.88V337.584M317.815 335.88H319.138M317.815 337.584H320.131M317.815 337.584H317.484M320.131 337.584L321.785 339.971M320.131 337.584V337.925H317.484V337.584M317.484 334.516V337.584M316.822 335.88C315.066 336.156 314.046 337.526 314.176 339.289C314.439 341.018 315.679 341.924 317.153 342.016C318.384 342.139 320.109 340.962 320.131 338.948M310.867 334.175V338.266H312.852V334.175H311.86H310.867ZM311.836 333.311C311.47 333.311 311.174 333.005 311.174 332.629C311.174 332.252 311.47 331.947 311.836 331.947C312.201 331.947 312.497 332.252 312.497 332.629C312.497 333.005 312.201 333.311 311.836 333.311ZM317.484 333.834C317.119 333.834 316.822 333.529 316.822 333.153C316.822 332.776 317.119 332.471 317.484 332.471C317.849 332.471 318.146 332.776 318.146 333.153C318.146 333.529 317.849 333.834 317.484 333.834Z" stroke="white"/>
</g>
<path id="b-2-elevator-down-2-arrows" d="M316.746 329.847L318.426 327.748L320.105 329.847M310.867 327.328L312.547 329.427L314.226 327.328" stroke="white"/>
</g>
<g id="b-2-elevator-down-1">
<rect id="b-2-elevator-down-1-background" x="277.568" y="326.068" width="17.6364" height="17.6364" rx="3" fill="#C0D5F2"/>
<g id="b-2-elevator-down-1-people">
<path d="M283.752 334.175H282.76H281.767V338.266H283.752V334.175Z" fill="white"/>
<path d="M282.074 332.629C282.074 333.005 282.37 333.311 282.736 333.311C283.101 333.311 283.397 333.005 283.397 332.629C283.397 332.252 283.101 331.947 282.736 331.947C282.37 331.947 282.074 332.252 282.074 332.629Z" fill="white"/>
<path d="M287.722 333.153C287.722 333.529 288.018 333.834 288.384 333.834C288.749 333.834 289.046 333.529 289.046 333.153C289.046 332.776 288.749 332.471 288.384 332.471C288.018 332.471 287.722 332.776 287.722 333.153Z" fill="white"/>
<path d="M291.031 337.584H288.715H288.384V337.925H291.031V337.584Z" fill="white"/>
<path d="M282.074 338.948L282.098 342.016M283.397 338.948L283.421 342.016M288.715 334.516V335.88M288.715 335.88V337.584M288.715 335.88H290.038M288.715 337.584H291.031M288.715 337.584H288.384M291.031 337.584L292.685 339.971M291.031 337.584V337.925H288.384V337.584M288.384 334.516V337.584M287.722 335.88C285.966 336.156 284.946 337.526 285.076 339.289C285.339 341.018 286.579 341.924 288.053 342.016C289.284 342.139 291.008 340.962 291.031 338.948M281.767 334.175V338.266H283.752V334.175H282.76H281.767ZM282.736 333.311C282.37 333.311 282.074 333.005 282.074 332.629C282.074 332.252 282.37 331.947 282.736 331.947C283.101 331.947 283.397 332.252 283.397 332.629C283.397 333.005 283.101 333.311 282.736 333.311ZM288.384 333.834C288.018 333.834 287.722 333.529 287.722 333.153C287.722 332.776 288.018 332.471 288.384 332.471C288.749 332.471 289.046 332.776 289.046 333.153C289.046 333.529 288.749 333.834 288.384 333.834Z" stroke="white"/>
</g>
<path id="b-2-elevator-down-1-arrows" d="M287.646 329.847L289.326 327.748L291.005 329.847M281.767 327.328L283.447 329.427L285.126 327.328" stroke="white"/>
</g>
<g id="b-2-elevator-up-2">
<rect id="b-2-elevator-up-2-background" x="306.668" y="121.486" width="17.6364" height="17.6364" rx="3" fill="#C0D5F2"/>
<g id="b-2-elevator-up-2-people">
<path d="M312.852 129.594H311.86H310.867V133.684H312.852V129.594Z" fill="white"/>
<path d="M311.174 128.047C311.174 128.424 311.47 128.729 311.836 128.729C312.201 128.729 312.497 128.424 312.497 128.047C312.497 127.67 312.201 127.365 311.836 127.365C311.47 127.365 311.174 127.67 311.174 128.047Z" fill="white"/>
<path d="M316.822 128.571C316.822 128.947 317.119 129.253 317.484 129.253C317.849 129.253 318.146 128.947 318.146 128.571C318.146 128.194 317.849 127.889 317.484 127.889C317.119 127.889 316.822 128.194 316.822 128.571Z" fill="white"/>
<path d="M320.131 133.003H317.815H317.484V133.343H320.131V133.003Z" fill="white"/>
<path d="M311.174 134.366L311.198 137.434M312.497 134.366L312.521 137.434M317.815 129.934V131.298M317.815 131.298V133.003M317.815 131.298H319.138M317.815 133.003H320.131M317.815 133.003H317.484M320.131 133.003L321.785 135.389M320.131 133.003V133.343H317.484V133.003M317.484 129.934V133.003M316.822 131.298C315.066 131.575 314.046 132.944 314.176 134.707C314.439 136.437 315.679 137.343 317.153 137.434C318.384 137.557 320.109 136.38 320.131 134.366M310.867 129.594V133.684H312.852V129.594H311.86H310.867ZM311.836 128.729C311.47 128.729 311.174 128.424 311.174 128.047C311.174 127.67 311.47 127.365 311.836 127.365C312.201 127.365 312.497 127.67 312.497 128.047C312.497 128.424 312.201 128.729 311.836 128.729ZM317.484 129.253C317.119 129.253 316.822 128.947 316.822 128.571C316.822 128.194 317.119 127.889 317.484 127.889C317.849 127.889 318.146 128.194 318.146 128.571C318.146 128.947 317.849 129.253 317.484 129.253Z" stroke="white"/>
</g>
<path id="b-2-elevator-up-2-arrows" d="M316.746 125.266L318.426 123.166L320.105 125.266M310.867 122.746L312.547 124.846L314.226 122.746" stroke="white"/>
</g>
<g id="b-2-elevator-up-1">
<rect id="b-2-elevator-up-1-background" x="277.568" y="121.486" width="17.6364" height="17.6364" rx="3" fill="#C0D5F2"/>
<g id="b-2-elevator-up-1-people">
<path d="M283.752 129.594H282.76H281.767V133.684H283.752V129.594Z" fill="white"/>
<path d="M282.074 128.047C282.074 128.424 282.37 128.729 282.736 128.729C283.101 128.729 283.397 128.424 283.397 128.047C283.397 127.67 283.101 127.365 282.736 127.365C282.37 127.365 282.074 127.67 282.074 128.047Z" fill="white"/>
<path d="M287.722 128.571C287.722 128.947 288.018 129.253 288.384 129.253C288.749 129.253 289.046 128.947 289.046 128.571C289.046 128.194 288.749 127.889 288.384 127.889C288.018 127.889 287.722 128.194 287.722 128.571Z" fill="white"/>
<path d="M291.031 133.003H288.715H288.384V133.343H291.031V133.003Z" fill="white"/>
<path d="M282.074 134.366L282.098 137.434M283.397 134.366L283.421 137.434M288.715 129.934V131.298M288.715 131.298V133.003M288.715 131.298H290.038M288.715 133.003H291.031M288.715 133.003H288.384M291.031 133.003L292.685 135.389M291.031 133.003V133.343H288.384V133.003M288.384 129.934V133.003M287.722 131.298C285.966 131.575 284.946 132.944 285.076 134.707C285.339 136.437 286.579 137.343 288.053 137.434C289.284 137.557 291.008 136.38 291.031 134.366M281.767 129.594V133.684H283.752V129.594H282.76H281.767ZM282.736 128.729C282.37 128.729 282.074 128.424 282.074 128.047C282.074 127.67 282.37 127.365 282.736 127.365C283.101 127.365 283.397 127.67 283.397 128.047C283.397 128.424 283.101 128.729 282.736 128.729ZM288.384 129.253C288.018 129.253 287.722 128.947 287.722 128.571C287.722 128.194 288.018 127.889 288.384 127.889C288.749 127.889 289.046 128.194 289.046 128.571C289.046 128.947 288.749 129.253 288.384 129.253Z" stroke="white"/>
</g>
<path id="b-2-elevator-up-1-arrows" d="M287.646 125.266L289.326 123.166L291.005 125.266M281.767 122.746L283.447 124.846L285.126 122.746" stroke="white"/>
</g>
</g>
<path id="b-2-space-7" d="M312.841 434.091H335.768V409.841H324.305V390H300.496V411.164H312.841V434.091Z" fill="#D9D9D9" stroke="#D9D9D9"/>
<path id="b-2-space-6" d="M359.577 316.809H341.059V433.65H359.577V336.65V316.809Z" fill="#D9D9D9" stroke="#D9D9D9"/>
<path id="b-2-space-4" d="M307.55 416.455H268.309V434.091H307.55V416.455Z" fill="#D9D9D9" stroke="#D9D9D9"/>
<path id="b-2-space-3" d="M268.309 410.282V368.395H295.205V410.282H268.309Z" fill="#D9D9D9" stroke="#D9D9D9"/>
<path id="b-2-space-2" d="M217.605 433.65V390.882H262.137V433.65H217.605Z" fill="#D9D9D9" stroke="#D9D9D9"/>
<path id="b-2-space-7_2" d="M181.891 391.323V368.836L211.873 389.559V433.65H174.836V391.323H181.891Z" fill="#D9D9D9"/>
<path id="b-2-space-1" d="M99.4407 14.7864H5.96802V70.3409H99.4407V14.7864Z" fill="#D9D9D9" stroke="#D9D9D9"/>
<path id="b-259" d="M643.522 433.65V397.936H694.227V433.65H643.522Z" fill="#C0D6F2" stroke="#C0D6F2"/>
<path id="b-258" d="M637.35 397.936H620.154V425.714L623.241 433.65H637.35V397.936Z" fill="#C0D6F2" stroke="#C0D6F2"/>
<path id="b-257" d="M603.841 397.936H586.646V433.65H600.314L603.841 423.95V397.936Z" fill="#C0D6F2" stroke="#C0D6F2"/>
<path id="b-256" d="M580.473 397.936H566.364V425.273L569.891 433.65H580.473V397.936Z" fill="#C0D6F2" stroke="#C0D6F2"/>
<path id="b-255" d="M550.05 397.936H530.209V433.65H546.082L550.05 425.273V397.936Z" fill="#C0D6F2" stroke="#C0D6F2"/>
<path id="b-2-meetind-room" d="M524.036 316.368H365.75V433.65H524.036L524.477 336.284L524.036 316.368Z" fill="#C0D5F2" stroke="#C0D5F2"/>
<path id="b-235" d="M937.168 405.432V379.418H968.032V405.432H937.168Z" fill="#D9D9D9" stroke="#D9D9D9"/>
<path id="b-234" d="M937.168 373.245V350.759H968.032V373.245H937.168Z" fill="#D9D9D9" stroke="#D9D9D9"/>
<path id="b-233" d="M937.168 344.586V323.864H968.032V344.586H937.168Z" fill="#D9D9D9" stroke="#D9D9D9"/>
<path id="b-232" d="M937.168 317.691V304.023H968.032V317.691H937.168Z" fill="#D9D9D9" stroke="#D9D9D9"/>
<path id="b-231" d="M937.168 297.85V266.986H968.032V297.85H937.168Z" fill="#D9D9D9" stroke="#D9D9D9"/>
<path id="b-230" d="M937.168 260.814V238.768H968.032V260.814H937.168Z" fill="#D9D9D9" stroke="#D9D9D9"/>
<path id="b-229" d="M937.168 233.036V182.332H968.032V233.036H937.168Z" fill="#D9D9D9" stroke="#D9D9D9"/>
<path id="b-228" d="M937.168 176.159V154.555H968.032V176.159H937.168Z" fill="#D9D9D9" stroke="#D9D9D9"/>
<path id="b-226" d="M937.168 120.164V99H968.032V120.164H937.168Z" fill="#D9D9D9" stroke="#D9D9D9"/>
<path id="b-227" d="M937.168 148.382V126.777H968.032V148.382H937.168Z" fill="#D9D9D9" stroke="#D9D9D9"/>
<path id="b-225" d="M937.168 92.8273V65.9318H968.032V92.8273H937.168Z" fill="#D9D9D9" stroke="#D9D9D9"/>
<path id="b-218" d="M334.886 62.4045H269.632V116.195H334.886V62.4045Z" fill="#C0D5F2" stroke="#C0D5F2"/>
<path id="b-217" d="M269.632 56.2318V32.4227H334.886V56.2318H269.632Z" fill="#C0D5F2" stroke="#C0D5F2"/>
<path id="B-212" d="M182.332 125.014V229.95H233.918C233.918 229.95 235.379 215.804 237.445 207.023C239.512 198.241 244.059 184.977 244.059 184.977L230.832 178.805V125.014H182.332Z" fill="#C0D5F2" stroke="#C0D5F2"/>
<path id="b-210" d="M182.332 236.123V315.486H230.832V287.268L244.5 280.655C244.5 280.655 239.405 266.216 237.445 258.168C235.153 248.757 234.193 236.123 234.193 236.123H182.332Z" fill="#C0D5F2" stroke="#C0D5F2"/>
<path id="b-209" d="M230.832 321.659H182.332V340.618H230.832V321.659Z" fill="#C0D5F2" stroke="#C0D5F2"/>
<path id="b-24" d="M5.96802 229.95V76.9545H176.159V229.95H5.96802Z" fill="#C0D5F2" stroke="#C0D5F2"/>
<path id="b-23" d="M176.159 236.123H5.96802V384.709H176.159V236.123Z" fill="#C0D5F2" stroke="#C0D5F2"/>
<path id="b-201" d="M5.96802 445.555V390.882H169.104V445.555H5.96802Z" fill="#C0D5F2" stroke="#C0D5F2"/>
<path id="b-2-toilet-w" d="M176.159 5.9682H120.605V44.3273H176.159V5.9682Z" fill="#C0D5F2" stroke="#C0D5F2"/>
<path id="b-2-toilet-m" d="M176.159 50.5H114.432V14.7864H106.054V70.7818H120.604H176.159V50.5Z" fill="#C0D5F2" stroke="#C0D5F2"/>
<g id="b-2-toilet-icon-2">
<rect id="b-0-toilet-icon-1-background" x="139.373" y="51.1909" width="18.9" height="18.9" rx="2.75" fill="#C0D5F2" stroke="white" stroke-width="0.5"/>
<g id="b-0-toilet-icon-1-WC">
<path d="M141.814 56.7459H140.274L142.064 65.0012H143.722L145.223 58.8025L146.776 65.0012H148.382L150.198 56.7459H148.697L147.513 62.4843L146.17 56.7459H144.381L142.959 62.4268L141.814 56.7459Z" fill="#FDF6F6"/>
<path d="M151.549 57.9607C151.686 57.7757 151.904 57.5463 151.996 57.4547C152.805 56.5295 154.348 56.5487 155.018 56.674C156.679 57.0326 157.217 58.4041 157.279 59.045L155.794 59.4353C155.724 59.0594 155.406 58.3751 154.834 58.1342C154.217 57.874 153.752 58.0764 153.586 58.1342C153.341 58.1583 152.769 58.4522 152.443 59.4353C152.117 60.4184 152.307 61.7629 152.443 62.3123C152.516 62.9137 152.973 63.3628 153.192 63.5122C153.393 63.6905 153.978 63.9835 154.703 63.7291C155.428 63.4746 155.776 62.505 155.859 62.052L157.331 62.5725C157.291 62.6944 157.239 62.8499 157.198 62.9752C157.192 62.998 157.171 63.0633 157.138 63.1526C157.125 63.1925 157.119 63.2081 157.126 63.186C157.034 63.4331 156.866 63.8286 156.674 64.0471C156.319 64.4519 156.411 64.4519 155.781 64.8278C155.276 65.1285 154.764 65.2037 154.572 65.2037H153.652C153.599 65.194 153.486 65.1748 153.455 65.1748C153.415 65.1748 153.139 65.1025 152.758 64.929C152.377 64.7555 152.351 64.6977 152.022 64.4374C151.759 64.2293 151.457 63.7917 151.339 63.5989C151.142 63.2809 151.013 62.8819 150.918 62.6159C150.824 62.3499 150.739 61.5701 150.708 61.2135C150.708 60.9533 150.747 60.3172 150.8 59.9847C150.851 59.6648 150.879 59.4257 150.905 59.3486C151.042 58.8397 151.199 58.5293 151.26 58.4378C151.299 58.3559 151.412 58.1458 151.549 57.9607Z" fill="#FFF8F8"/>
<path d="M157.126 63.186C157.034 63.4331 156.866 63.8286 156.674 64.0471C156.319 64.4519 156.411 64.4519 155.781 64.8278C155.276 65.1285 154.764 65.2037 154.572 65.2037H153.652C153.599 65.194 153.486 65.1748 153.455 65.1748C153.415 65.1748 153.139 65.1025 152.758 64.929C152.377 64.7555 152.351 64.6977 152.022 64.4374C151.759 64.2293 151.457 63.7917 151.339 63.5989C151.142 63.2809 151.013 62.8819 150.918 62.6159C150.824 62.3499 150.739 61.5701 150.708 61.2135C150.708 60.9533 150.747 60.3172 150.8 59.9847C150.851 59.6648 150.879 59.4257 150.905 59.3486C151.042 58.8397 151.199 58.5293 151.26 58.4378C151.299 58.3559 151.412 58.1458 151.549 57.9607C151.686 57.7757 151.904 57.5463 151.996 57.4547C152.805 56.5295 154.348 56.5487 155.018 56.674C156.679 57.0326 157.217 58.4041 157.279 59.045L155.794 59.4353C155.724 59.0594 155.406 58.3751 154.834 58.1342C154.217 57.874 153.752 58.0764 153.586 58.1342C153.341 58.1583 152.769 58.4522 152.443 59.4353C152.117 60.4184 152.307 61.7629 152.443 62.3123C152.516 62.9137 152.973 63.3628 153.192 63.5122C153.393 63.6905 153.978 63.9835 154.703 63.7291C155.428 63.4746 155.776 62.505 155.859 62.052L157.331 62.5725C157.291 62.6944 157.239 62.8499 157.198 62.9752M157.126 63.186C157.13 63.1745 157.134 63.1634 157.138 63.1526M157.126 63.186C157.131 63.1704 157.142 63.1361 157.16 63.0785C157.193 62.9763 157.204 62.95 157.198 62.9752M157.126 63.186C157.119 63.2081 157.125 63.1925 157.138 63.1526M157.138 63.1526C157.171 63.0633 157.192 62.998 157.198 62.9752M157.138 63.1526C157.152 63.113 157.173 63.0494 157.198 62.9752M140.274 56.7459H141.814L142.959 62.4268L144.381 56.7459H146.17L147.513 62.4843L148.697 56.7459H150.198L148.382 65.0012H146.776L145.223 58.8025L143.722 65.0012H142.064L140.274 56.7459Z" stroke="#FFFAFA" stroke-width="0.392"/>
</g>
</g>
<g id="b-2-toilet-icon-1">
<rect id="b-0-toilet-icon-1-background_2" x="139.373" y="15.9182" width="18.9" height="18.9" rx="2.75" fill="#C0D5F2" stroke="white" stroke-width="0.5"/>
<g id="b-0-toilet-icon-1-WC_2">
<path d="M141.814 21.4733H140.274L142.064 29.7285H143.722L145.223 23.5299L146.776 29.7285H148.382L150.198 21.4733H148.697L147.513 27.2117L146.17 21.4733H144.381L142.959 27.1542L141.814 21.4733Z" fill="#FDF6F6"/>
<path d="M151.549 22.6881C151.686 22.503 151.904 22.2736 151.996 22.1821C152.805 21.2568 154.348 21.2761 155.018 21.4014C156.679 21.7599 157.217 23.1314 157.279 23.7723L155.794 24.1627C155.724 23.7868 155.406 23.1025 154.834 22.8615C154.217 22.6013 153.752 22.8037 153.586 22.8615C153.341 22.8856 152.769 23.1796 152.443 24.1627C152.117 25.1458 152.307 26.4903 152.443 27.0396C152.516 27.641 152.973 28.0902 153.192 28.2396C153.393 28.4179 153.978 28.7109 154.703 28.4564C155.428 28.202 155.776 27.2324 155.859 26.7794L157.331 27.2998C157.291 27.4218 157.239 27.5773 157.198 27.7025C157.192 27.7253 157.171 27.7906 157.138 27.88C157.125 27.9198 157.119 27.9354 157.126 27.9133C157.034 28.1605 156.866 28.5559 156.674 28.7745C156.319 29.1793 156.411 29.1793 155.781 29.5551C155.276 29.8559 154.764 29.931 154.572 29.931H153.652C153.599 29.9214 153.486 29.9021 153.455 29.9021C153.415 29.9021 153.139 29.8298 152.758 29.6563C152.377 29.4829 152.351 29.425 152.022 29.1648C151.759 28.9566 151.457 28.5191 151.339 28.3263C151.142 28.0082 151.013 27.6092 150.918 27.3432C150.824 27.0772 150.739 26.2975 150.708 25.9409C150.708 25.6807 150.747 25.0446 150.8 24.712C150.851 24.3922 150.879 24.153 150.905 24.0759C151.042 23.567 151.199 23.2567 151.26 23.1651C151.299 23.0832 151.412 22.8731 151.549 22.6881Z" fill="#FFF8F8"/>
<path d="M157.126 27.9133C157.034 28.1605 156.866 28.5559 156.674 28.7745C156.319 29.1793 156.411 29.1793 155.781 29.5551C155.276 29.8559 154.764 29.931 154.572 29.931H153.652C153.599 29.9214 153.486 29.9021 153.455 29.9021C153.415 29.9021 153.139 29.8298 152.758 29.6563C152.377 29.4829 152.351 29.425 152.022 29.1648C151.759 28.9566 151.457 28.5191 151.339 28.3263C151.142 28.0082 151.013 27.6092 150.918 27.3432C150.824 27.0772 150.739 26.2975 150.708 25.9409C150.708 25.6807 150.747 25.0446 150.8 24.712C150.851 24.3922 150.879 24.153 150.905 24.0759C151.042 23.567 151.199 23.2567 151.26 23.1651C151.299 23.0832 151.412 22.8731 151.549 22.6881C151.686 22.503 151.904 22.2736 151.996 22.1821C152.805 21.2568 154.348 21.2761 155.018 21.4014C156.679 21.7599 157.217 23.1314 157.279 23.7723L155.794 24.1627C155.724 23.7868 155.406 23.1025 154.834 22.8615C154.217 22.6013 153.752 22.8037 153.586 22.8615C153.341 22.8856 152.769 23.1796 152.443 24.1627C152.117 25.1458 152.307 26.4903 152.443 27.0396C152.516 27.641 152.973 28.0902 153.192 28.2396C153.393 28.4179 153.978 28.7109 154.703 28.4564C155.428 28.202 155.776 27.2324 155.859 26.7794L157.331 27.2998C157.291 27.4218 157.239 27.5773 157.198 27.7025M157.126 27.9133C157.13 27.9019 157.134 27.8908 157.138 27.88M157.126 27.9133C157.131 27.8977 157.142 27.8635 157.16 27.8058C157.193 27.7037 157.204 27.6774 157.198 27.7025M157.126 27.9133C157.119 27.9354 157.125 27.9198 157.138 27.88M157.138 27.88C157.171 27.7906 157.192 27.7253 157.198 27.7025M157.138 27.88C157.152 27.8404 157.173 27.7768 157.198 27.7025M140.274 21.4733H141.814L142.959 27.1542L144.381 21.4733H146.17L147.513 27.2117L148.697 21.4733H150.198L148.382 29.7285H146.776L145.223 23.5299L143.722 29.7285H142.064L140.274 21.4733Z" stroke="#FFFAFA" stroke-width="0.392"/>
</g>
</g>
<path id="b-2-lounge-zone-4" d="M208.717 116.195H220.085C229.642 116.195 238.749 112.132 245.133 105.02L248.901 101.443C255.256 95.4116 259.661 87.6161 261.547 79.06C262.232 75.9559 262.577 72.7866 262.577 69.6079V55.8359C262.577 50.2511 260.234 44.9223 256.119 41.1467C251.907 37.2818 246.237 35.4116 240.552 36.0111L231.244 36.9927C227.722 37.3641 224.169 37.332 220.654 36.8969L205.882 35.0682C192.876 35.0682 182.332 45.612 182.332 58.6185V61.9726L183.271 68.7449C184.095 74.6912 184.151 80.7188 183.437 86.6794L182.332 95.9136C182.332 106.384 190.472 115.051 200.921 115.706L208.717 116.195Z" fill="#C0D5F2" fill-opacity="0.4" stroke="#C0D5F2"/>
<path id="b-2-lounge-zone-3" d="M323.702 166.477L302.969 162.642C291.179 160.461 279.3 165.975 273.356 176.387C270.432 181.509 269.187 187.418 269.798 193.284L274.302 236.563C274.876 242.075 274.478 247.644 273.127 253.019L271.278 260.377C266.541 279.227 276.505 298.668 294.574 305.829C303.003 309.17 312.337 309.448 320.95 306.615L332.836 302.705C337.307 301.234 342.04 300.734 346.72 301.236C368.784 303.605 386.889 284.027 382.807 262.215L381.535 255.421L371.167 205.829C370.571 202.977 370.416 200.051 370.707 197.153C372.549 178.791 356.718 163.548 338.439 166.084L333.941 166.708C330.538 167.18 327.08 167.102 323.702 166.477Z" fill="#C0D5F2" fill-opacity="0.4" stroke="#C0D5F2"/>
<path id="b-2-lounge-zone-2" d="M341.059 108.008V85.6939C341.059 69.8711 348.301 54.9186 360.716 45.1091C371.032 36.9589 384.063 33.0422 397.163 34.1552L433.241 37.2207C440.541 37.8409 447.889 37.5676 455.123 36.4066L470.271 33.9753C476.654 32.951 483.178 33.2387 489.445 34.8207C510.563 40.1513 525.359 59.147 525.359 80.9267V117.639C525.359 141.889 508.163 162.733 484.355 167.341L456.655 171.773C445.914 173.491 434.909 172.378 424.73 168.542L420.197 166.834C413.401 164.273 406.072 163.455 398.879 164.454C385.747 166.278 372.501 162.013 362.901 152.87L358.482 148.662C347.356 138.065 341.059 123.372 341.059 108.008Z" fill="#C0D5F2" fill-opacity="0.4" stroke="#C0D5F2"/>
<path id="b-2-lounge-zone-1" d="M521.832 124.352V91.2841C521.832 79.961 512.653 70.7818 501.329 70.7818C490.006 70.7818 480.827 79.961 480.827 91.2841V124.352C480.827 135.675 490.006 144.855 501.329 144.855C512.653 144.855 521.832 135.675 521.832 124.352Z" fill="#C0D5F2" fill-opacity="0.7" stroke="#C0D5F2"/>
<path id="b-2-house-of-culture" d="M752.868 98.5591H572.096V150.145H586.205V179.245H572.096V287.709H586.646V316.809H572.096V369.718H753.75C753.75 369.718 770.931 358.158 788.141 348.505L802.691 342.136C814.617 336.509 828.666 337.087 838.405 341.059L841.05 342.382L843.696 344.145L915.564 319.895V148.823L843.696 121.486C824.095 140.289 803.153 133.424 752.868 98.5591Z" fill="#C0D6F2" stroke="#C0D5F2"/>
<path id="b-2-house-of-culture-scene" d="M843.695 308.599V156.076C843.695 141.992 857.864 132.32 870.981 137.45L897.117 147.673C904.785 150.673 909.832 158.065 909.832 166.299V299.587C909.832 308.12 904.418 315.714 896.351 318.495L870.214 327.507C857.227 331.984 843.695 322.337 843.695 308.599Z" fill="#98B8E6" stroke="#98B8E6"/>
<g id="b-2-staircase-theatre-up-staircase">
<path id="b-2-staircase-background-theatre-up" d="M617.95 155.877H587.968V173.514H617.95V155.877Z" fill="#C0D5F2" stroke="white" stroke-width="0.5"/>
<path id="b-2-staircase-theatre-up-staircase_2" d="M615.017 171.818V158.251H611.432V160.286H608.825V162.321H606.218V164.356H603.61V166.391H601.003V168.426H598.722V171.818H615.017Z" fill="white" stroke="#C0D5F2" stroke-width="1.5"/>
<path id="b-2-arrow-theatre-up" d="M599.253 164.887C599.546 164.594 599.546 164.119 599.253 163.826L594.48 159.053C594.187 158.76 593.712 158.76 593.419 159.053C593.126 159.346 593.126 159.821 593.419 160.114L597.662 164.356L593.419 168.599C593.126 168.892 593.126 169.367 593.419 169.66C593.712 169.952 594.187 169.952 594.48 169.66L599.253 164.887ZM588.294 165.106H598.722V163.606H588.294V165.106Z" fill="#3A465C"/>
</g>
<g id="b-2-staircase-theatre-down-staircase">
<path id="b-2-staircase-background-theatre-down" d="M617.95 293.441H587.968V311.077H617.95V293.441Z" fill="#C0D5F2" stroke="white" stroke-width="0.5"/>
<path id="b-2-staircase-theatre-down-staircase_2" d="M615.017 309.381V295.815H611.432V297.85H608.825V299.885H606.218V301.92H603.61V303.955H601.003V305.99H598.722V309.381H615.017Z" fill="white" stroke="#C0D5F2" stroke-width="1.5"/>
<path id="b-2-arrow-theatre-down" d="M599.253 302.45C599.546 302.157 599.546 301.682 599.253 301.39L594.48 296.617C594.187 296.324 593.712 296.324 593.419 296.617C593.126 296.909 593.126 297.384 593.419 297.677L597.662 301.92L593.419 306.163C593.126 306.455 593.126 306.93 593.419 307.223C593.712 307.516 594.187 307.516 594.48 307.223L599.253 302.45ZM588.294 302.67H598.722V301.17H588.294V302.67Z" fill="#3A465C"/>
</g>
<path id="b-floor-2-border" d="M172.191 428.8V436.736M865.3 436.736V465.836H921.736V408.518M865.3 436.736H754.191M865.3 436.736V408.518M921.736 408.518H865.3M921.736 408.518H934.082M920.855 62.8454V7.29087H864.418V29.3363M920.855 62.8454H864.418M920.855 62.8454H934.082M864.418 29.3363H753.75M864.418 29.3363V62.8454M179.245 29.3363V2.88177H117.518V11.7M179.245 29.3363V37.2727M179.245 29.3363H266.545M102.968 11.7H2.88184V73.8681M102.968 11.7V47.4136V73.8681M102.968 11.7H117.518M2.88184 73.8681H102.968M2.88184 73.8681V233.036M102.968 73.8681H179.245M179.245 45.2091V52.2636V47.4136H117.518V11.7M179.245 73.8681V60.2M179.245 73.8681V102.968M179.245 117.077V121.927M179.245 349.436V343.705M179.245 233.036V193.795V180.127V121.927M179.245 233.036V267.427V279.332V318.573M179.245 233.036H237.331M179.245 233.036H2.88184M2.88184 233.036V387.795M2.88184 387.795V448.2H172.191V436.736M2.88184 387.795H146.177H172.191M172.191 387.795H174.395H179.245V362.664L196 375.45M172.191 387.795V418.659M214.518 436.736V427.477M214.518 387.795V413.368M214.518 387.795H265.223V365.309H298.291V387.795M214.518 387.795L203.055 379.859M265.223 427.477V436.736M298.291 387.795V407.636V413.368M298.291 387.795H326.509V407.636H337.973M337.973 407.636V431.445V436.736H362.664M337.973 407.636V345.909M172.191 436.736H310.636V431.445V413.368H298.291M265.223 413.368H298.291M265.223 413.368C265.223 410.798 265.223 414.168 265.223 418.659M265.223 413.368V397.936M362.664 436.736V339.736V313.723M362.664 436.736H527.123M362.664 313.723H353.405M362.664 313.723H371.041M344.586 313.723H337.973M337.973 313.723V339.736V345.909M337.973 313.723H329.595L326.509 322.982H275.364L270.955 313.723H264.341V345.909H337.973M389.559 313.723H505.077M522.273 313.723H527.123V325.186M527.123 436.736V394.85M527.123 436.736H547.405M527.123 394.85H553.136V425.714L551.99 427.918M527.123 394.85V325.186M754.191 436.736H697.314M754.191 436.736V422.627M583.559 394.85H563.277V425.714L564.159 427.918M583.559 394.85V436.736M583.559 394.85H606.927V425.714L606.045 427.918M583.559 436.736H602.518M583.559 436.736H567.686M640.436 436.736V394.85M640.436 436.736H621.477M640.436 436.736H697.314M640.436 394.85H617.068V425.714L617.95 427.918M640.436 394.85H697.314V414.25M602.518 436.736H621.477M602.518 436.736H567.686M602.518 436.736L603.4 434.532M621.477 436.736L620.595 434.532M567.686 436.736H547.405M567.686 436.736L566.805 434.532M547.405 436.736L548.551 434.532M697.314 436.736V423.95M754.191 372.805V394.85V408.518M754.191 372.805H656.75H569.009V325.186M754.191 372.805C782.266 353.577 803.42 342.9 819.445 341.079C829.2 339.97 837.055 342.142 843.412 347.665M583.559 309.314V313.723H569.009V325.186M583.559 295.205V290.795H569.009V176.159H583.118V171.75M583.118 157.641V153.232H569.009V95.4727H753.75M753.75 95.4727V58.8772M753.75 95.4727C782.145 116.303 803.262 128.077 819.445 128.756C828.99 129.155 836.818 125.696 843.412 117.959M753.75 39.4772V29.3363M753.75 29.3363H337.973M540.791 325.186H527.123M557.105 325.186H569.009M865.3 408.518C863.121 392.14 860.259 378.785 856.386 368.395C853.601 360.924 850.293 354.987 846.341 350.563M864.418 62.8454C861.067 78.9562 857.33 91.9105 852.955 101.929C850.075 108.523 846.918 113.846 843.412 117.959M843.412 117.959L918.65 146.618V322.1L843.412 347.665M846.515 350.759L846.341 350.563M934.082 408.518H971.118V376.332M934.082 408.518V401.464M934.082 391.764V376.332M934.082 363.545V376.332M934.082 355.609V347.673M934.082 345.027V347.673M934.082 337.091V320.777M934.082 315.927V320.777M934.082 307.109V300.936M934.082 281.095V300.936M934.082 272.718V263.9M934.082 248.027V263.9M934.082 239.209V236.123M934.082 198.645V236.123M934.082 189.386V179.245M934.082 166.9V179.245M934.082 158.523V151.468M934.082 141.327V151.468M934.082 130.745V123.25M934.082 106.495V123.25M934.082 96.7954V95.9136M934.082 79.1591V95.9136M934.082 69.4591V62.8454M934.082 62.8454H971.118V95.9136M934.082 95.9136H971.118M971.118 95.9136V123.25M934.082 123.25H971.118M971.118 123.25V151.468M934.082 151.468H971.118M971.118 151.468V179.245M934.082 179.245H971.118M971.118 179.245V236.123M934.082 236.123H971.118M971.118 236.123V263.9M934.082 263.9H971.118M971.118 263.9V300.936M934.082 300.936H971.118M971.118 300.936V320.777M934.082 320.777H971.118M971.118 320.777V347.673M934.082 347.673H971.118M971.118 347.673V376.332M934.082 376.332H971.118M700.4 69.4591H728.177H528.445V152.791M266.545 29.3363H337.973M266.545 29.3363V36.3909M266.545 51.3818V59.3181M337.973 29.3363V59.3181M337.973 119.282V153.673H330.477L326.509 143.973H325.627H276.245L271.836 153.673H266.545V153.232V119.282M337.973 119.282V93.7091V59.3181M337.973 119.282H276.245H266.545M266.545 119.282V117.077V93.7091V87.9772M266.545 73.8681V59.3181M179.245 121.927H205.7M179.245 343.705H206.582M179.245 343.705V318.573M217.164 343.705H233.918V318.573M225.1 121.927H233.918V177.041L235.934 177.923M237.331 233.036C237.266 218 240.763 202.805 248.027 183.214L246.012 182.332M237.331 233.036C237.395 248.091 241.029 262.987 248.027 281.977L244.941 283.52M179.245 318.573H233.918M233.918 318.573V289.032L236.123 287.93M266.545 59.3181H337.973M846.341 350.563C845.402 349.512 844.426 348.546 843.412 347.665" stroke="#3A465C" stroke-width="2"/>
<path id="b-floor-2-outer-border" d="M2 449.082V10.8182H116.636V2H180.127V28.4545H863.536V6.40909H921.736V61.9636H972V409.4H922.618V466.718H864.418V437.618H337.091H311.518H173.073V449.082H2Z" stroke="#002069" stroke-width="4"/>
<path id="b-2-greenhall" d="M755.955 92.9983V33.0347H862.807V46.9727C862.727 49.5053 862.719 52.1446 862.807 55.7909C862.838 57.0788 862.824 58.6394 862.807 60.2C862.799 60.9447 862.954 61.6895 862.807 62.4045C857.364 88.8591 847.664 110.023 841.05 117.518C837.082 120.605 830.38 128.095 812.391 125.626C794.402 123.156 767.271 102.845 755.955 92.9983Z" fill="#C0D6F2"/>
<path id="b-2-greenhall-2" d="M756.878 374.618L756.836 434.582L863.689 434.656L863.698 420.718C863.621 418.185 863.614 415.546 863.705 411.9C863.737 410.612 863.723 409.051 863.708 407.49C863.7 406.746 863.856 406.001 863.709 405.286C861.553 394.771 858.641 382.937 855.6 374.618C850.989 362.005 846.355 353.956 842.373 349.436C839.949 347.549 837.056 344.911 831.791 343.705C828.439 342.937 824.68 342.749 817.682 343.705C799.691 346.161 768.201 364.779 756.878 374.618Z" fill="#C0D6F2"/>
<g id="b-2-busts">
<path id="b-2-busts-background" d="M273.513 177.263L257.764 171.149C251.626 184.343 246.383 221.304 247.138 235.687C247.263 249.451 253.272 281.034 259.015 293.495L275.311 286.613C268.908 270.404 264.808 252.42 264.655 235.529C264.502 218.638 268.627 190.446 273.513 177.263Z" fill="#E6EEFA"/>
<path id="b-2-busts-Tselikov A.I." fill-rule="evenodd" clip-rule="evenodd" d="M253.264 179.026C253.27 179.09 253.262 179.126 253.233 179.174C253.185 179.254 253.104 179.546 253.105 179.633C253.106 179.743 253.248 180.064 253.337 180.155C253.379 180.199 253.382 180.219 253.365 180.326C253.336 180.499 253.343 180.568 253.398 180.692C253.464 180.839 253.542 180.926 253.71 181.041C253.838 181.128 253.854 181.147 253.888 181.247C253.953 181.436 254.087 181.652 254.213 181.767C254.316 181.862 254.347 181.88 254.47 181.913C254.547 181.934 254.661 181.955 254.723 181.96L254.836 181.968L254.955 182.133C255.113 182.353 255.156 182.386 255.314 182.402C255.394 182.41 255.461 182.429 255.505 182.454C255.555 182.482 255.618 182.495 255.739 182.504C255.92 182.516 255.952 182.512 256.099 182.458C256.193 182.424 256.208 182.425 256.397 182.474C256.624 182.534 256.706 182.53 256.84 182.454C256.924 182.406 256.93 182.405 257.007 182.447C257.21 182.556 257.449 182.522 257.646 182.356C257.734 182.283 257.752 182.276 257.837 182.286C258.035 182.311 258.281 182.233 258.4 182.109C258.448 182.058 258.462 182.054 258.501 182.078C258.526 182.093 258.599 182.119 258.663 182.136C258.812 182.175 258.972 182.144 259.139 182.044L259.26 181.972L259.363 182.014C259.507 182.073 259.641 182.175 259.713 182.281C259.817 182.435 259.831 182.586 259.792 183.115C259.641 185.131 259.667 186.241 259.879 186.862C259.934 187.024 260.041 187.189 260.122 187.238L260.184 187.275L260.658 187.003C261.271 186.652 261.723 186.449 262.375 186.231C263.139 185.976 264.116 185.776 264.865 185.721C264.9 185.719 264.95 185.544 265.809 182.418L266.715 179.117L266.522 178.997C265.462 178.34 264.342 177.057 263.629 175.684C263.545 175.523 263.465 175.386 263.449 175.379C263.433 175.371 263.388 175.375 263.348 175.387C262.929 175.509 262.062 176.739 260.929 178.82C260.668 179.299 260.599 179.385 260.392 179.492C260.292 179.544 260.121 179.567 260.029 179.542C260.009 179.537 259.948 179.479 259.893 179.413C259.78 179.279 259.636 179.198 259.467 179.172C259.378 179.159 259.368 179.153 259.377 179.121C259.393 179.059 259.331 178.859 259.263 178.759C259.154 178.596 259.088 178.548 258.875 178.476L258.682 178.411L258.585 178.256C258.453 178.046 258.409 178.012 258.148 177.921C257.943 177.849 257.921 177.837 257.801 177.724C257.594 177.532 257.514 177.491 257.163 177.402C256.898 177.334 256.844 177.314 256.753 177.252C256.595 177.145 256.406 177.061 256.241 177.024C256.066 176.986 255.915 177.007 255.694 177.103C255.615 177.137 255.545 177.164 255.538 177.164C255.532 177.163 255.447 177.143 255.351 177.118C255.011 177.033 254.771 177.137 254.62 177.434L254.562 177.55L254.479 177.541C254.351 177.529 254.193 177.57 254.061 177.651C253.868 177.77 253.732 177.965 253.66 178.228C253.629 178.34 253.616 178.363 253.567 178.389C253.446 178.453 253.37 178.563 253.311 178.76C253.274 178.884 253.258 178.97 253.264 179.026ZM265.869 185.22C266.139 185.189 266.653 185.28 267.047 185.43C267.3 185.526 267.558 185.653 267.658 185.731L267.721 185.78L268.445 183.143C269.133 180.639 269.168 180.506 269.132 180.511C268.837 180.549 268.62 180.526 268.201 180.411C267.766 180.291 267.422 180.142 267.222 179.986C267.194 179.964 267.156 180.096 266.468 182.599L265.744 185.235L265.869 185.22ZM268.123 187.009C268.108 187.286 268.207 187.614 268.37 187.824C268.536 188.039 268.709 188.163 268.992 188.268L269.148 188.326L270.421 183.691L271.694 179.056L271.582 179.026C271.233 178.931 270.807 179.009 270.529 179.219C270.469 179.264 270.372 179.358 270.313 179.427C270.097 179.68 270.168 179.45 269.096 183.361C268.318 186.195 268.128 186.909 268.123 187.009Z" fill="#C0D5F2"/>
<path id=" b-2-busts-Bardin I.P." fill-rule="evenodd" clip-rule="evenodd" d="M249.126 194.232C249.137 194.294 249.133 194.331 249.109 194.382C249.068 194.465 249.013 194.764 249.022 194.85C249.033 194.96 249.204 195.266 249.3 195.349C249.346 195.389 249.351 195.409 249.343 195.517C249.33 195.692 249.343 195.76 249.409 195.879C249.488 196.019 249.574 196.099 249.751 196.198C249.886 196.273 249.904 196.291 249.947 196.387C250.028 196.57 250.182 196.773 250.317 196.876C250.428 196.961 250.461 196.976 250.587 196.999C250.665 197.013 250.78 197.023 250.843 197.022L250.955 197.02L251.089 197.174C251.266 197.379 251.312 197.408 251.47 197.41C251.551 197.411 251.62 197.423 251.666 197.444C251.718 197.468 251.782 197.475 251.903 197.473C252.084 197.469 252.116 197.462 252.258 197.395C252.348 197.353 252.364 197.352 252.556 197.385C252.787 197.424 252.868 197.413 252.995 197.324C253.075 197.269 253.081 197.268 253.161 197.302C253.373 197.393 253.608 197.338 253.789 197.155C253.87 197.074 253.888 197.065 253.973 197.068C254.173 197.075 254.411 196.976 254.518 196.84C254.561 196.786 254.575 196.781 254.616 196.801C254.642 196.814 254.717 196.833 254.783 196.844C254.934 196.87 255.091 196.825 255.248 196.71L255.362 196.628L255.469 196.66C255.618 196.705 255.76 196.795 255.841 196.894C255.959 197.038 255.987 197.187 255.995 197.718C256.026 199.739 256.151 200.842 256.417 201.442C256.487 201.598 256.609 201.753 256.694 201.794L256.759 201.826L257.207 201.513C257.785 201.108 258.217 200.865 258.847 200.59C259.585 200.267 260.54 199.98 261.281 199.858C261.316 199.852 261.35 199.674 261.925 196.483L262.531 193.114L262.328 193.012C261.213 192.453 259.982 191.276 259.149 189.973C259.052 189.82 258.959 189.69 258.942 189.685C258.926 189.679 258.881 189.686 258.843 189.701C258.436 189.861 257.683 191.163 256.741 193.338C256.524 193.839 256.464 193.93 256.267 194.055C256.172 194.116 256.004 194.155 255.91 194.138C255.89 194.134 255.824 194.082 255.763 194.022C255.638 193.899 255.487 193.831 255.317 193.82C255.227 193.815 255.217 193.81 255.222 193.777C255.233 193.714 255.153 193.521 255.077 193.427C254.954 193.275 254.884 193.233 254.665 193.18L254.467 193.133L254.357 192.987C254.206 192.789 254.16 192.76 253.892 192.692C253.68 192.639 253.658 192.629 253.528 192.528C253.304 192.354 253.222 192.321 252.864 192.263C252.594 192.22 252.538 192.205 252.441 192.151C252.274 192.059 252.079 191.992 251.912 191.97C251.734 191.948 251.585 191.983 251.374 192.098C251.298 192.139 251.23 192.173 251.224 192.173C251.217 192.173 251.132 192.16 251.033 192.144C250.687 192.09 250.457 192.214 250.334 192.524L250.286 192.644L250.203 192.644C250.074 192.643 249.921 192.698 249.797 192.79C249.615 192.926 249.497 193.133 249.449 193.401C249.428 193.515 249.417 193.54 249.371 193.57C249.256 193.644 249.19 193.76 249.149 193.962C249.123 194.089 249.116 194.176 249.126 194.232ZM262.236 199.269C262.503 199.213 263.023 199.258 263.428 199.372C263.689 199.445 263.957 199.548 264.064 199.617L264.131 199.661L264.615 196.969C265.076 194.413 265.098 194.278 265.063 194.286C264.773 194.35 264.554 194.346 264.127 194.27C263.683 194.19 263.327 194.072 263.114 193.934C263.084 193.915 263.058 194.05 262.598 196.604L262.113 199.295L262.236 199.269ZM264.641 200.848C264.651 201.126 264.78 201.443 264.96 201.638C265.145 201.837 265.329 201.945 265.62 202.024L265.781 202.068L266.632 197.338L267.484 192.607L267.371 192.587C267.014 192.524 266.597 192.64 266.339 192.874C266.283 192.924 266.195 193.026 266.142 193.101C265.95 193.372 266 193.136 265.283 197.127C264.763 200.02 264.638 200.748 264.641 200.848Z" fill="#C0D5F2"/>
<path id="b-2-busts-Baykov A.A." fill-rule="evenodd" clip-rule="evenodd" d="M246.427 209.325C246.442 209.387 246.439 209.424 246.418 209.476C246.382 209.562 246.343 209.862 246.357 209.948C246.374 210.057 246.561 210.354 246.662 210.431C246.71 210.468 246.716 210.488 246.714 210.596C246.711 210.772 246.728 210.839 246.8 210.954C246.887 211.089 246.977 211.164 247.16 211.254C247.298 211.322 247.317 211.338 247.366 211.432C247.456 211.61 247.621 211.804 247.762 211.9C247.877 211.979 247.911 211.992 248.038 212.007C248.117 212.017 248.233 212.021 248.294 212.017L248.407 212.008L248.549 212.155C248.737 212.35 248.785 212.376 248.943 212.369C249.023 212.366 249.093 212.374 249.14 212.392C249.193 212.413 249.257 212.417 249.378 212.408C249.559 212.394 249.59 212.386 249.728 212.311C249.816 212.264 249.831 212.262 250.025 212.284C250.259 212.31 250.339 212.295 250.461 212.199C250.537 212.14 250.543 212.139 250.625 212.168C250.842 212.247 251.073 212.179 251.244 211.986C251.32 211.901 251.338 211.891 251.423 211.89C251.622 211.886 251.855 211.773 251.954 211.632C251.995 211.576 252.008 211.57 252.05 211.588C252.077 211.599 252.153 211.614 252.219 211.622C252.372 211.639 252.525 211.585 252.676 211.462L252.785 211.373L252.893 211.4C253.045 211.437 253.192 211.519 253.279 211.613C253.404 211.75 253.44 211.898 253.477 212.427C253.62 214.444 253.805 215.538 254.105 216.122C254.183 216.274 254.313 216.423 254.4 216.459L254.467 216.487L254.897 216.149C255.452 215.714 255.87 215.447 256.483 215.137C257.203 214.774 258.14 214.435 258.874 214.272C258.908 214.265 258.933 214.085 259.33 210.867L259.75 207.47L259.541 207.379C258.398 206.883 257.103 205.775 256.2 204.52C256.094 204.373 255.994 204.248 255.977 204.243C255.961 204.238 255.917 204.248 255.879 204.266C255.482 204.448 254.802 205.789 253.981 208.012C253.792 208.525 253.737 208.619 253.547 208.755C253.455 208.821 253.29 208.869 253.195 208.857C253.175 208.855 253.106 208.806 253.042 208.75C252.911 208.634 252.756 208.574 252.585 208.573C252.496 208.573 252.485 208.568 252.489 208.535C252.496 208.471 252.405 208.283 252.324 208.193C252.193 208.048 252.12 208.01 251.899 207.969L251.699 207.933L251.581 207.794C251.419 207.605 251.372 207.578 251.1 207.525C250.886 207.484 250.863 207.475 250.728 207.381C250.495 207.22 250.411 207.192 250.05 207.154C249.778 207.125 249.722 207.113 249.622 207.065C249.451 206.982 249.251 206.926 249.083 206.914C248.905 206.901 248.758 206.944 248.554 207.07C248.48 207.116 248.414 207.153 248.408 207.153C248.401 207.154 248.315 207.146 248.216 207.136C247.867 207.1 247.645 207.237 247.539 207.553L247.497 207.676L247.415 207.68C247.286 207.686 247.135 207.75 247.017 207.849C246.843 207.994 246.736 208.207 246.703 208.477C246.689 208.593 246.679 208.618 246.634 208.65C246.524 208.731 246.465 208.851 246.435 209.054C246.416 209.183 246.413 209.27 246.427 209.325ZM259.795 213.632C260.058 213.561 260.579 213.578 260.991 213.669C261.255 213.727 261.528 213.816 261.639 213.879L261.708 213.918L262.043 211.204C262.362 208.627 262.377 208.49 262.342 208.5C262.056 208.58 261.838 208.589 261.407 208.536C260.959 208.48 260.597 208.382 260.377 208.257C260.346 208.239 260.327 208.375 260.009 210.951L259.673 213.664L259.795 213.632ZM262.283 215.076C262.309 215.352 262.454 215.662 262.645 215.847C262.841 216.036 263.031 216.133 263.325 216.196L263.488 216.231L264.078 211.461L264.668 206.691L264.553 206.677C264.194 206.633 263.783 206.772 263.538 207.02C263.486 207.073 263.403 207.18 263.354 207.257C263.177 207.539 263.215 207.3 262.719 211.325C262.359 214.243 262.274 214.976 262.283 215.076Z" fill="#C0D5F2"/>
<path id="b-2-busts-Bochvar A.M." fill-rule="evenodd" clip-rule="evenodd" d="M244.919 224.393C244.938 224.453 244.938 224.49 244.92 224.544C244.89 224.632 244.871 224.934 244.89 225.019C244.914 225.127 245.12 225.411 245.225 225.481C245.275 225.515 245.283 225.535 245.288 225.643C245.296 225.818 245.317 225.884 245.397 225.994C245.492 226.123 245.587 226.193 245.775 226.27C245.918 226.329 245.938 226.344 245.992 226.435C246.094 226.606 246.271 226.789 246.418 226.876C246.538 226.947 246.572 226.958 246.7 226.966C246.779 226.97 246.895 226.967 246.957 226.958L247.068 226.943L247.22 227.08C247.42 227.262 247.469 227.285 247.626 227.268C247.706 227.26 247.776 227.263 247.824 227.279C247.879 227.296 247.943 227.296 248.064 227.279C248.243 227.254 248.273 227.243 248.406 227.16C248.491 227.107 248.506 227.104 248.701 227.114C248.936 227.125 249.014 227.104 249.13 227.001C249.203 226.937 249.208 226.935 249.292 226.96C249.513 227.024 249.74 226.942 249.898 226.738C249.968 226.648 249.985 226.637 250.07 226.63C250.269 226.613 250.494 226.486 250.584 226.339C250.621 226.28 250.633 226.273 250.677 226.288C250.704 226.298 250.781 226.308 250.847 226.311C251.001 226.319 251.151 226.255 251.294 226.123L251.397 226.027L251.506 226.047C251.66 226.074 251.812 226.146 251.905 226.235C252.038 226.363 252.083 226.508 252.155 227.034C252.427 229.038 252.683 230.118 253.019 230.681C253.107 230.828 253.246 230.968 253.336 230.998L253.404 231.021L253.811 230.657C254.337 230.187 254.737 229.894 255.329 229.545C256.024 229.136 256.937 228.738 257.659 228.528C257.693 228.518 257.706 228.337 257.895 225.101L258.095 221.683L257.881 221.606C256.708 221.184 255.345 220.162 254.363 218.968C254.248 218.828 254.14 218.71 254.123 218.706C254.106 218.703 254.063 218.715 254.026 218.735C253.641 218.942 253.05 220.325 252.374 222.596C252.218 223.119 252.169 223.218 251.989 223.365C251.901 223.437 251.739 223.495 251.643 223.49C251.624 223.489 251.552 223.445 251.484 223.393C251.345 223.285 251.187 223.235 251.017 223.245C250.927 223.251 250.916 223.247 250.918 223.214C250.921 223.15 250.819 222.967 250.732 222.883C250.591 222.747 250.517 222.714 250.293 222.687L250.091 222.664L249.964 222.532C249.791 222.354 249.742 222.331 249.467 222.296C249.251 222.268 249.227 222.26 249.086 222.176C248.844 222.03 248.758 222.007 248.396 221.992C248.122 221.981 248.065 221.973 247.963 221.931C247.786 221.859 247.584 221.816 247.415 221.815C247.236 221.814 247.092 221.866 246.897 222.005C246.826 222.055 246.763 222.097 246.757 222.098C246.75 222.098 246.663 222.096 246.564 222.092C246.214 222.079 246.001 222.231 245.915 222.553L245.882 222.678L245.799 222.687C245.671 222.702 245.525 222.775 245.413 222.881C245.249 223.038 245.156 223.257 245.14 223.529C245.134 223.645 245.125 223.671 245.083 223.706C244.978 223.794 244.927 223.917 244.91 224.122C244.899 224.251 244.902 224.338 244.919 224.393ZM258.537 227.829C258.795 227.742 259.317 227.725 259.733 227.789C260.001 227.831 260.279 227.901 260.393 227.957L260.465 227.992L260.625 225.262C260.777 222.669 260.783 222.532 260.749 222.544C260.469 222.643 260.251 222.665 259.818 222.64C259.367 222.614 258.999 222.539 258.772 222.428C258.74 222.412 258.73 222.549 258.578 225.141L258.418 227.87L258.537 227.829ZM261.113 229.11C261.156 229.385 261.322 229.684 261.524 229.856C261.732 230.032 261.927 230.117 262.225 230.161L262.39 230.185L262.671 225.387L262.953 220.589L262.837 220.582C262.476 220.562 262.076 220.727 261.847 220.991C261.798 221.047 261.722 221.159 261.679 221.239C261.52 221.531 261.542 221.291 261.306 225.339C261.136 228.274 261.098 229.012 261.113 229.11Z" fill="#C0D5F2"/>
<path id="b-2-busts-Lomonosov M.V." fill-rule="evenodd" clip-rule="evenodd" d="M244.926 240.207C244.951 240.265 244.956 240.302 244.943 240.357C244.923 240.448 244.938 240.75 244.966 240.833C245.003 240.937 245.239 241.196 245.352 241.255C245.405 241.283 245.415 241.301 245.432 241.408C245.46 241.581 245.488 241.645 245.58 241.745C245.689 241.863 245.79 241.921 245.986 241.977C246.135 242.019 246.157 242.032 246.22 242.116C246.341 242.275 246.537 242.437 246.693 242.507C246.82 242.564 246.856 242.571 246.983 242.564C247.063 242.56 247.177 242.544 247.238 242.528L247.347 242.5L247.513 242.62C247.732 242.778 247.783 242.796 247.938 242.761C248.016 242.744 248.086 242.74 248.136 242.75C248.192 242.761 248.256 242.754 248.373 242.723C248.549 242.678 248.578 242.664 248.701 242.566C248.779 242.504 248.794 242.5 248.989 242.487C249.223 242.472 249.299 242.443 249.402 242.328C249.467 242.256 249.472 242.254 249.558 242.268C249.786 242.308 250.001 242.2 250.136 241.98C250.196 241.883 250.211 241.87 250.295 241.854C250.491 241.815 250.699 241.663 250.773 241.507C250.803 241.444 250.814 241.436 250.859 241.446C250.888 241.452 250.965 241.454 251.031 241.45C251.185 241.44 251.327 241.36 251.454 241.213L251.546 241.106L251.657 241.113C251.812 241.123 251.972 241.177 252.073 241.255C252.221 241.368 252.282 241.507 252.412 242.022C252.906 243.982 253.282 245.027 253.679 245.549C253.782 245.685 253.936 245.808 254.029 245.829L254.099 245.844L254.463 245.437C254.933 244.91 255.298 244.574 255.847 244.162C256.492 243.677 257.355 243.179 258.049 242.89C258.081 242.877 258.073 242.695 257.899 239.458L257.716 236.04L257.495 235.987C256.281 235.699 254.813 234.836 253.702 233.759C253.572 233.633 253.452 233.528 253.435 233.526C253.418 233.524 253.376 233.542 253.342 233.565C252.983 233.814 252.549 235.255 252.132 237.587C252.036 238.125 251.998 238.228 251.836 238.394C251.757 238.476 251.602 238.552 251.507 238.557C251.487 238.558 251.411 238.523 251.337 238.478C251.187 238.387 251.025 238.355 250.856 238.384C250.768 238.4 250.757 238.397 250.755 238.364C250.751 238.3 250.628 238.13 250.533 238.056C250.378 237.937 250.3 237.912 250.075 237.911L249.872 237.91L249.73 237.794C249.539 237.636 249.487 237.618 249.21 237.614C248.992 237.611 248.968 237.606 248.818 237.537C248.561 237.42 248.473 237.407 248.112 237.432C247.838 237.452 247.781 237.45 247.674 237.42C247.491 237.369 247.285 237.349 247.117 237.366C246.939 237.385 246.802 237.453 246.623 237.613C246.559 237.671 246.501 237.719 246.495 237.721C246.488 237.722 246.402 237.73 246.302 237.737C245.953 237.763 245.758 237.938 245.709 238.267L245.69 238.396L245.609 238.414C245.484 238.442 245.347 238.532 245.247 238.65C245.101 238.824 245.034 239.052 245.049 239.324C245.055 239.44 245.05 239.467 245.012 239.506C244.917 239.605 244.88 239.734 244.886 239.939C244.89 240.069 244.903 240.155 244.926 240.207ZM258.843 242.097C259.089 241.982 259.606 241.906 260.026 241.924C260.297 241.935 260.581 241.974 260.701 242.017L260.776 242.043L260.63 239.312C260.491 236.719 260.481 236.582 260.449 236.598C260.181 236.727 259.968 236.774 259.535 236.797C259.083 236.822 258.71 236.789 258.472 236.704C258.438 236.692 258.443 236.829 258.582 239.421L258.729 242.151L258.843 242.097ZM261.546 243.082C261.62 243.35 261.817 243.629 262.038 243.777C262.264 243.929 262.468 243.991 262.769 244.002L262.935 244.007L262.678 239.208L262.42 234.408L262.305 234.415C261.943 234.435 261.564 234.644 261.366 234.931C261.324 234.992 261.261 235.112 261.227 235.197C261.102 235.505 261.097 235.264 261.316 239.313C261.475 242.248 261.52 242.986 261.546 243.082Z" fill="#C0D5F2"/>
<path id="b-2-busts-Anosov P.P." fill-rule="evenodd" clip-rule="evenodd" d="M247.206 256.372C247.239 256.426 247.249 256.462 247.245 256.518C247.238 256.611 247.295 256.908 247.335 256.986C247.386 257.084 247.657 257.307 247.777 257.349C247.834 257.369 247.846 257.385 247.878 257.489C247.931 257.656 247.967 257.715 248.072 257.801C248.197 257.902 248.306 257.945 248.508 257.973C248.661 257.994 248.684 258.003 248.759 258.077C248.901 258.218 249.119 258.35 249.283 258.397C249.417 258.435 249.453 258.437 249.578 258.412C249.656 258.397 249.767 258.364 249.825 258.34L249.929 258.297L250.11 258.392C250.35 258.517 250.403 258.527 250.551 258.471C250.626 258.443 250.695 258.429 250.745 258.431C250.803 258.434 250.865 258.418 250.977 258.371C251.144 258.302 251.171 258.284 251.279 258.169C251.347 258.097 251.361 258.09 251.552 258.05C251.782 258.002 251.853 257.962 251.939 257.833C251.993 257.752 251.998 257.75 252.084 257.752C252.315 257.759 252.514 257.621 252.616 257.385C252.661 257.28 252.674 257.265 252.755 257.237C252.943 257.17 253.128 256.99 253.179 256.825C253.199 256.759 253.209 256.749 253.255 256.753C253.284 256.755 253.361 256.746 253.426 256.732C253.577 256.7 253.706 256.601 253.81 256.437L253.886 256.318L253.997 256.309C254.152 256.297 254.318 256.328 254.43 256.391C254.592 256.482 254.672 256.61 254.874 257.101C255.643 258.971 256.163 259.952 256.631 260.412C256.753 260.532 256.923 260.632 257.017 260.639L257.089 260.644L257.391 260.189C257.781 259.601 258.094 259.216 258.579 258.729C259.148 258.158 259.932 257.542 260.577 257.157C260.608 257.139 260.574 256.96 259.94 253.781L259.271 250.424L259.044 250.403C257.803 250.291 256.226 249.646 254.973 248.739C254.827 248.633 254.693 248.546 254.676 248.546C254.658 248.547 254.619 248.57 254.589 248.599C254.269 248.896 254.045 250.384 253.965 252.752C253.946 253.297 253.924 253.405 253.787 253.593C253.72 253.685 253.578 253.782 253.484 253.801C253.464 253.805 253.384 253.781 253.305 253.747C253.144 253.678 252.979 253.67 252.816 253.723C252.731 253.75 252.719 253.75 252.712 253.717C252.699 253.654 252.554 253.504 252.449 253.444C252.279 253.348 252.198 253.334 251.975 253.365L251.774 253.394L251.617 253.299C251.405 253.17 251.351 253.159 251.077 253.195C250.861 253.223 250.836 253.221 250.678 253.175C250.406 253.095 250.317 253.095 249.963 253.172C249.696 253.23 249.639 253.237 249.529 253.222C249.34 253.197 249.133 253.207 248.97 253.248C248.796 253.292 248.67 253.379 248.516 253.563C248.461 253.629 248.41 253.686 248.404 253.688C248.398 253.69 248.313 253.71 248.216 253.731C247.874 253.807 247.706 254.007 247.705 254.341L247.704 254.47L247.627 254.5C247.506 254.546 247.384 254.654 247.302 254.785C247.182 254.978 247.148 255.214 247.202 255.481C247.224 255.595 247.223 255.622 247.191 255.667C247.112 255.778 247.093 255.91 247.128 256.113C247.151 256.24 247.175 256.324 247.206 256.372ZM261.25 256.259C261.477 256.11 261.978 255.961 262.397 255.918C262.666 255.891 262.953 255.889 263.078 255.914L263.156 255.93L262.622 253.248C262.114 250.701 262.086 250.567 262.056 250.587C261.809 250.753 261.605 250.83 261.179 250.915C260.736 251.003 260.362 251.024 260.114 250.974C260.078 250.967 260.103 251.101 260.611 253.647L261.145 256.328L261.25 256.259ZM264.066 256.848C264.177 257.103 264.413 257.351 264.652 257.466C264.898 257.584 265.108 257.617 265.407 257.584L265.573 257.566L264.634 252.852L263.694 248.138L263.581 248.161C263.227 248.233 262.881 248.494 262.726 248.806C262.693 248.873 262.648 249.001 262.626 249.089C262.546 249.412 262.507 249.174 263.301 253.151C263.877 256.033 264.026 256.757 264.066 256.848Z" fill="#C0D5F2"/>
<path id="b-2-busts-Chernov D.K." fill-rule="evenodd" clip-rule="evenodd" d="M250.362 271.47C250.4 271.521 250.413 271.556 250.414 271.612C250.415 271.705 250.498 271.997 250.544 272.07C250.603 272.164 250.892 272.363 251.015 272.394C251.074 272.409 251.087 272.425 251.128 272.525C251.195 272.688 251.236 272.743 251.348 272.82C251.481 272.91 251.593 272.944 251.797 272.954C251.951 272.961 251.975 272.969 252.056 273.036C252.21 273.164 252.438 273.277 252.605 273.31C252.742 273.336 252.778 273.335 252.901 273.3C252.978 273.277 253.085 273.236 253.141 273.207L253.241 273.155L253.429 273.234C253.679 273.338 253.733 273.343 253.875 273.275C253.948 273.24 254.015 273.22 254.066 273.219C254.123 273.217 254.183 273.195 254.291 273.139C254.452 273.055 254.477 273.035 254.574 272.912C254.636 272.834 254.65 272.826 254.837 272.77C255.061 272.702 255.129 272.656 255.203 272.52C255.25 272.435 255.255 272.432 255.341 272.427C255.572 272.414 255.758 272.26 255.839 272.016C255.875 271.907 255.888 271.892 255.965 271.856C256.147 271.774 256.316 271.579 256.352 271.41C256.367 271.342 256.376 271.332 256.422 271.331C256.451 271.331 256.527 271.315 256.591 271.296C256.738 271.251 256.858 271.142 256.948 270.969L257.014 270.844L257.123 270.826C257.277 270.8 257.445 270.817 257.562 270.87C257.73 270.947 257.822 271.068 258.065 271.54C258.991 273.337 259.594 274.269 260.099 274.688C260.231 274.797 260.409 274.882 260.503 274.881L260.576 274.88L260.837 274.4C261.176 273.781 261.455 273.371 261.896 272.845C262.414 272.227 263.142 271.546 263.752 271.107C263.781 271.086 263.732 270.911 262.828 267.798L261.874 264.51L261.646 264.51C260.399 264.504 258.773 263.997 257.448 263.2C257.293 263.106 257.152 263.032 257.135 263.034C257.117 263.035 257.081 263.062 257.053 263.093C256.759 263.417 256.664 264.918 256.787 267.284C256.815 267.83 256.801 267.938 256.681 268.138C256.622 268.235 256.489 268.344 256.398 268.371C256.378 268.376 256.296 268.359 256.215 268.332C256.048 268.277 255.883 268.283 255.725 268.35C255.642 268.385 255.631 268.385 255.621 268.353C255.603 268.292 255.445 268.154 255.336 268.104C255.158 268.022 255.076 268.016 254.856 268.066L254.659 268.111L254.494 268.03C254.272 267.92 254.217 267.914 253.947 267.973C253.734 268.019 253.709 268.02 253.548 267.988C253.271 267.931 253.182 267.939 252.836 268.046C252.574 268.126 252.518 268.138 252.407 268.133C252.217 268.124 252.012 268.151 251.853 268.206C251.683 268.265 251.565 268.363 251.427 268.559C251.378 268.63 251.332 268.69 251.326 268.693C251.32 268.696 251.238 268.723 251.143 268.753C250.809 268.857 250.658 269.071 250.686 269.404L250.696 269.533L250.622 269.569C250.506 269.625 250.393 269.743 250.323 269.881C250.22 270.084 250.206 270.321 250.282 270.582C250.315 270.694 250.315 270.721 250.287 270.769C250.218 270.886 250.211 271.02 250.263 271.218C250.296 271.344 250.328 271.425 250.362 271.47ZM264.345 270.155C264.559 269.987 265.045 269.796 265.459 269.717C265.725 269.667 266.011 269.64 266.137 269.655L266.216 269.664L265.454 267.037C264.73 264.543 264.69 264.412 264.662 264.434C264.431 264.621 264.234 264.715 263.817 264.836C263.383 264.962 263.012 265.015 262.761 264.986C262.725 264.982 262.761 265.114 263.485 267.607L264.247 270.233L264.345 270.155ZM267.202 270.5C267.334 270.745 267.59 270.972 267.839 271.066C268.093 271.162 268.305 271.177 268.601 271.119L268.764 271.087L267.425 266.471L266.085 261.855L265.974 261.887C265.627 261.989 265.305 262.278 265.178 262.603C265.15 262.672 265.116 262.803 265.102 262.894C265.05 263.222 264.991 262.988 266.123 266.882C266.943 269.705 267.154 270.413 267.202 270.5Z" fill="#C0D5F2"/>
<path id="b-2-busts-Pavlov M.A." fill-rule="evenodd" clip-rule="evenodd" d="M254.51 287.126C254.551 287.174 254.566 287.208 254.569 287.265C254.576 287.358 254.674 287.644 254.725 287.715C254.789 287.805 255.088 287.987 255.213 288.012C255.272 288.024 255.287 288.039 255.333 288.137C255.409 288.295 255.453 288.348 255.57 288.418C255.707 288.501 255.821 288.528 256.025 288.527C256.179 288.526 256.204 288.533 256.288 288.595C256.449 288.714 256.683 288.815 256.852 288.838C256.99 288.857 257.026 288.854 257.146 288.812C257.222 288.785 257.327 288.737 257.38 288.706L257.477 288.648L257.67 288.716C257.925 288.807 257.979 288.809 258.118 288.733C258.188 288.694 258.254 288.671 258.305 288.666C258.362 288.661 258.421 288.636 258.525 288.574C258.681 288.482 258.705 288.46 258.796 288.332C258.853 288.25 258.866 288.242 259.05 288.175C259.27 288.095 259.335 288.045 259.402 287.906C259.444 287.818 259.448 287.815 259.535 287.805C259.764 287.779 259.941 287.615 260.009 287.367C260.039 287.256 260.05 287.24 260.126 287.2C260.303 287.108 260.461 286.904 260.488 286.734C260.498 286.665 260.507 286.654 260.553 286.651C260.582 286.649 260.657 286.629 260.719 286.606C260.864 286.554 260.978 286.437 261.058 286.26L261.117 286.132L261.225 286.108C261.377 286.073 261.546 286.081 261.665 286.127C261.838 286.194 261.936 286.31 262.205 286.768C263.229 288.511 263.883 289.408 264.41 289.798C264.548 289.9 264.73 289.975 264.825 289.969L264.897 289.964L265.132 289.47C265.435 288.833 265.691 288.408 266.102 287.858C266.586 287.213 267.274 286.492 267.859 286.02C267.887 285.998 267.828 285.826 266.753 282.768L265.618 279.538L265.391 279.55C264.145 279.614 262.494 279.197 261.126 278.475C260.966 278.39 260.821 278.324 260.804 278.326C260.787 278.329 260.752 278.358 260.726 278.39C260.451 278.73 260.439 280.234 260.692 282.59C260.751 283.133 260.743 283.242 260.634 283.448C260.581 283.548 260.454 283.665 260.364 283.696C260.345 283.703 260.262 283.69 260.18 283.668C260.01 283.622 259.845 283.638 259.692 283.713C259.611 283.752 259.599 283.753 259.588 283.722C259.567 283.662 259.401 283.533 259.289 283.489C259.107 283.417 259.025 283.415 258.808 283.478L258.614 283.534L258.445 283.462C258.217 283.364 258.162 283.362 257.895 283.435C257.685 283.493 257.66 283.495 257.498 283.472C257.218 283.431 257.13 283.443 256.79 283.569C256.533 283.664 256.478 283.679 256.367 283.68C256.176 283.682 255.973 283.72 255.817 283.784C255.651 283.852 255.539 283.956 255.412 284.16C255.367 284.234 255.324 284.296 255.319 284.3C255.313 284.303 255.232 284.334 255.139 284.369C254.811 284.492 254.673 284.714 254.718 285.044L254.736 285.173L254.664 285.213C254.551 285.276 254.444 285.4 254.382 285.541C254.291 285.749 254.29 285.987 254.381 286.244C254.419 286.354 254.422 286.38 254.396 286.429C254.333 286.551 254.334 286.684 254.397 286.88C254.437 287.003 254.473 287.082 254.51 287.126ZM268.399 285.037C268.603 284.857 269.077 284.639 269.486 284.538C269.749 284.473 270.033 284.431 270.16 284.438L270.24 284.443L269.333 281.862C268.472 279.412 268.425 279.283 268.398 279.308C268.178 279.507 267.986 279.612 267.576 279.756C267.15 279.905 266.782 279.979 266.53 279.964C266.494 279.962 266.537 280.092 267.398 282.541L268.304 285.12L268.399 285.037ZM271.27 285.223C271.416 285.46 271.684 285.673 271.937 285.753C272.196 285.835 272.409 285.838 272.701 285.763L272.863 285.722L271.269 281.187L269.676 276.653L269.567 276.691C269.226 276.812 268.92 277.119 268.811 277.45C268.787 277.521 268.761 277.654 268.751 277.745C268.718 278.075 268.645 277.845 269.992 281.671C270.967 284.443 271.218 285.138 271.27 285.223Z" fill="#C0D5F2"/>
</g>
</g>
</svg>
