<svg width="223" height="423" viewBox="0 0 223 423" fill="none" xmlns="http://www.w3.org/2000/svg">
<g id="b-floor-1-2">
<path id="b-1-2-library-background" d="M167.011 22.255H1V402.731H168.6V421H220.23V259.357H105.849C105.717 270.875 105.532 294.466 105.849 296.69H81.2256C80.6075 294.699 80.1137 293.73 78.8427 292.321L66.5308 286.364H60.5735V133.459H66.928L78.4455 127.899C78.7647 125.245 79.4309 124.032 81.2256 122.338H104.658V158.48H220.23V2H167.011V22.255Z" fill="white" stroke="white"/>
<g id="b-1-2-library-fire-escape">
<path id="b-1-2-fire-escape-2" d="M171.777 378.901H217.053V417.823H171.777V378.901Z" fill="#D9D9D9"/>
<path id="b-1-2-fire-escape-1" d="M170.188 5.17725H217.053V48.8645H170.188V28.2123V5.17725Z" fill="#D9D9D9"/>
</g>
<path id="b-1-2-library-4" d="M4.57422 399.156V370.958H106.643V399.156H4.57422Z" fill="#C0D5F2" stroke="#C0D5F2"/>
<g id="b-1-2-library-3">
<path d="M4.57422 315.754V213.287H57.396V315.754H4.57422Z" fill="#C0D5F2"/>
<path d="M4.57422 315.754V213.287H57.396V315.754H4.57422Z" fill="#C0D5F2"/>
<path d="M4.57422 315.754V213.287H57.396V315.754H4.57422Z" stroke="#C0D5F2"/>
</g>
<g id="b-1-2-library-2">
<path d="M4.57422 207.727V105.261H57.396V207.727H4.57422Z" fill="#C0D5F2"/>
<path d="M4.57422 207.727V105.261H57.396V207.727H4.57422Z" fill="#C0D5F2"/>
<path d="M4.57422 207.727V105.261H57.396V207.727H4.57422Z" stroke="#C0D5F2"/>
</g>
<path id="b-1-2-library-1" d="M4.57422 51.2474V25.8294H106.246V51.2474H4.57422Z" fill="#C0D5F2" stroke="#C0D5F2"/>
<g id="b-1-2-staircase-library-down">
<path id="b-1-2-staircase-library-down-background" d="M66.5485 260.152L66.5308 292.708L87.9393 292.719L87.957 260.163L66.5485 260.152Z" fill="#C0D5F2" stroke="white"/>
<path id="b-1-2-staircase-library-down-staircase" d="M85.8826 289.18L69.4146 289.171L69.4167 285.278L71.8869 285.279L71.8884 282.448L74.3586 282.45L74.3602 279.619L76.8304 279.62L76.8319 276.789L79.3022 276.791L79.3037 273.96L81.7739 273.961L81.7753 271.484L85.8923 271.486L85.8826 289.18Z" fill="white" stroke="#C0D5F2" stroke-width="1.5"/>
<path id="b-1-2-arrow-library-down" d="M76.3044 271.657C76.5971 271.95 77.072 271.951 77.3651 271.658L82.1406 266.888C82.4337 266.595 82.434 266.12 82.1412 265.827C81.8485 265.534 81.3736 265.534 81.0806 265.826L76.8356 270.067L72.5953 265.822C72.3025 265.529 71.8277 265.528 71.5346 265.821C71.2416 266.114 71.2413 266.589 71.534 266.882L76.3044 271.657ZM76.0908 260.511L76.085 271.127L77.585 271.128L77.5908 260.512L76.0908 260.511Z" fill="#3A465C"/>
</g>
<g id="b-1-2-staircase-library-up">
<path id="b-1-2-staircase-library-up-background" d="M66.5556 127.501L66.5308 160.688L87.6793 160.704L87.7041 127.517L66.5556 127.501Z" fill="#C0D5F2" stroke="white" stroke-width="0.5"/>
<path id="b-1-2-staircase-library-up-staircase" d="M85.668 130.762L69.3999 130.75L69.3969 134.718L71.8371 134.72L71.835 137.606L74.2752 137.608L74.273 140.493L76.7132 140.495L76.7111 143.381L79.1513 143.383L79.1491 146.269L81.5894 146.271L81.5875 148.796L85.6545 148.799L85.668 130.762Z" fill="white" stroke="#C0D5F2" stroke-width="1.5"/>
<path id="b-1-2-arrow-library-up" d="M77.2381 148.262C76.9454 147.969 76.4706 147.969 76.1774 148.261L71.4009 153.031C71.1078 153.323 71.1074 153.798 71.4001 154.091C71.6928 154.384 72.1677 154.385 72.4608 154.092L76.7066 149.853L80.946 154.099C81.2387 154.392 81.7136 154.392 82.0067 154.099C82.2998 153.807 82.3002 153.332 82.0075 153.039L77.2381 148.262ZM77.4487 160.336L77.4574 148.793L75.9574 148.791L75.9487 160.335L77.4487 160.336Z" fill="#3A465C"/>
</g>
<path id="b-floor-1-2-library-border" d="M167.806 23.0493V2.79431H219.436V51.2474M167.806 23.0493V51.2474H219.436M167.806 23.0493H109.027M169.394 401.936V420.206H219.436V376.518M169.394 401.936V376.518H219.436M169.394 401.936H109.424M219.436 51.2474V158.082M219.436 376.518V259.754M219.436 259.754H106.247V297.087H80.8286C80.261 294.934 79.7417 293.9 78.4456 292.321M219.436 259.754V158.082M66.5309 286.761H60.1764M60.1764 286.761V310.988M60.1764 286.761V210.507M60.1764 310.988H106.247M60.1764 310.988V318.534H35.5527M26.4181 318.534H1.79443M1.79443 318.534V368.178M1.79443 318.534V210.507M1.79443 368.178V401.936H109.424M1.79443 368.178H26.4181H109.424V379.696M109.424 388.83V401.936M35.9499 102.481H60.1764V109.629M27.2124 102.481H25.6238H1.79443M1.79443 102.481V210.507M1.79443 102.481V54.0275M1.79443 210.507H28.8011M37.5385 210.507H60.1764M60.1764 210.507V133.062M60.1764 109.629C61.765 109.947 90.7575 109.762 105.055 109.629M60.1764 109.629V133.062M78.0485 127.899C78.5081 125.197 79.2012 123.884 81.2257 121.941H105.055V158.082H219.436M66.9281 133.062H60.1764M109.027 23.0493H1.79443V54.0275M109.027 23.0493V34.964M109.027 44.4957V54.0275H25.6238H1.79443" stroke="#3A465C" stroke-width="2"/>
<path id="b-floor-1-2-library-outer-border" d="M1 22.255H167.011V2H220.23V421H168.6V402.731H1" stroke="#002069" stroke-width="4"/>
</g>
</svg>
