<svg width="960" height="480" viewBox="0 0 1052 523" fill="none" xmlns="http://www.w3.org/2000/svg">
<g id="b-floor-0">
<path id="b-0-background" d="M134 29H1V494H678V517H739V494H977V522H1051L1051.19 4H975V30H207V1H134V29Z" fill="white"/>
<path id="b-0-arrow-right" d="M12.4697 21.0303C12.7626 21.3232 13.2374 21.3232 13.5303 21.0303L18.3033 16.2574C18.5962 15.9645 18.5962 15.4896 18.3033 15.1967C18.0104 14.9038 17.5355 14.9038 17.2426 15.1967L13 19.4393L8.75736 15.1967C8.46447 14.9038 7.98959 14.9038 7.6967 15.1967C7.40381 15.4896 7.40381 15.9645 7.6967 16.2574L12.4697 21.0303ZM12.25 2.5V11.5H13.75V2.5H12.25ZM12.25 11.5L12.25 20.5H13.75L13.75 11.5H12.25Z" fill="#3A465C"/>
<path id="b-0-arrow-right_2" d="M12.4697 21.0303C12.7626 21.3232 13.2374 21.3232 13.5303 21.0303L18.3033 16.2574C18.5962 15.9645 18.5962 15.4896 18.3033 15.1967C18.0104 14.9038 17.5355 14.9038 17.2426 15.1967L13 19.4393L8.75736 15.1967C8.46447 14.9038 7.98959 14.9038 7.6967 15.1967C7.40381 15.4896 7.40381 15.9645 7.6967 16.2574L12.4697 21.0303ZM12.25 2.5V11.5H13.75V2.5H12.25ZM12.25 11.5L12.25 20.5H13.75L13.75 11.5H12.25Z" fill="#3A465C"/>
<path id="b-0-arrow-right_3" d="M12.4697 21.0303C12.7626 21.3232 13.2374 21.3232 13.5303 21.0303L18.3033 16.2574C18.5962 15.9645 18.5962 15.4896 18.3033 15.1967C18.0104 14.9038 17.5355 14.9038 17.2426 15.1967L13 19.4393L8.75736 15.1967C8.46447 14.9038 7.98959 14.9038 7.6967 15.1967C7.40381 15.4896 7.40381 15.9645 7.6967 16.2574L12.4697 21.0303ZM12.25 2.5V11.5H13.75V2.5H12.25ZM12.25 11.5L12.25 20.5H13.75L13.75 11.5H12.25Z" fill="#3A465C"/>
<path id="b-0-arrow-right_4" d="M12.4697 21.0303C12.7626 21.3232 13.2374 21.3232 13.5303 21.0303L18.3033 16.2574C18.5962 15.9645 18.5962 15.4896 18.3033 15.1967C18.0104 14.9038 17.5355 14.9038 17.2426 15.1967L13 19.4393L8.75736 15.1967C8.46447 14.9038 7.98959 14.9038 7.6967 15.1967C7.40381 15.4896 7.40381 15.9645 7.6967 16.2574L12.4697 21.0303ZM12.25 2.5V11.5H13.75V2.5H12.25ZM12.25 11.5L12.25 20.5H13.75L13.75 11.5H12.25Z" fill="#3A465C"/>
<path id="b-0-arrow-right_5" d="M12.4697 21.0303C12.7626 21.3232 13.2374 21.3232 13.5303 21.0303L18.3033 16.2574C18.5962 15.9645 18.5962 15.4896 18.3033 15.1967C18.0104 14.9038 17.5355 14.9038 17.2426 15.1967L13 19.4393L8.75736 15.1967C8.46447 14.9038 7.98959 14.9038 7.6967 15.1967C7.40381 15.4896 7.40381 15.9645 7.6967 16.2574L12.4697 21.0303ZM12.25 2.5V11.5H13.75V2.5H12.25ZM12.25 11.5L12.25 20.5H13.75L13.75 11.5H12.25Z" fill="#3A465C"/>
<path id="b-0-arrow-right_6" d="M12.4697 21.0303C12.7626 21.3232 13.2374 21.3232 13.5303 21.0303L18.3033 16.2574C18.5962 15.9645 18.5962 15.4896 18.3033 15.1967C18.0104 14.9038 17.5355 14.9038 17.2426 15.1967L13 19.4393L8.75736 15.1967C8.46447 14.9038 7.98959 14.9038 7.6967 15.1967C7.40381 15.4896 7.40381 15.9645 7.6967 16.2574L12.4697 21.0303ZM12.25 2.5V11.5H13.75V2.5H12.25ZM12.25 11.5L12.25 20.5H13.75L13.75 11.5H12.25Z" fill="#3A465C"/>
<path id="b-0-arrow-right_7" d="M12.4697 21.0303C12.7626 21.3232 13.2374 21.3232 13.5303 21.0303L18.3033 16.2574C18.5962 15.9645 18.5962 15.4896 18.3033 15.1967C18.0104 14.9038 17.5355 14.9038 17.2426 15.1967L13 19.4393L8.75736 15.1967C8.46447 14.9038 7.98959 14.9038 7.6967 15.1967C7.40381 15.4896 7.40381 15.9645 7.6967 16.2574L12.4697 21.0303ZM12.25 2.5V11.5H13.75V2.5H12.25ZM12.25 11.5L12.25 20.5H13.75L13.75 11.5H12.25Z" fill="#3A465C"/>
<path id="b-0-arrow-right_8" d="M12.4697 21.0303C12.7626 21.3232 13.2374 21.3232 13.5303 21.0303L18.3033 16.2574C18.5962 15.9645 18.5962 15.4896 18.3033 15.1967C18.0104 14.9038 17.5355 14.9038 17.2426 15.1967L13 19.4393L8.75736 15.1967C8.46447 14.9038 7.98959 14.9038 7.6967 15.1967C7.40381 15.4896 7.40381 15.9645 7.6967 16.2574L12.4697 21.0303ZM12.25 2.5V11.5H13.75V2.5H12.25ZM12.25 11.5L12.25 20.5H13.75L13.75 11.5H12.25Z" fill="#3A465C"/>
<path id="b-0-arrow-right_9" d="M12.4697 21.0303C12.7626 21.3232 13.2374 21.3232 13.5303 21.0303L18.3033 16.2574C18.5962 15.9645 18.5962 15.4896 18.3033 15.1967C18.0104 14.9038 17.5355 14.9038 17.2426 15.1967L13 19.4393L8.75736 15.1967C8.46447 14.9038 7.98959 14.9038 7.6967 15.1967C7.40381 15.4896 7.40381 15.9645 7.6967 16.2574L12.4697 21.0303ZM12.25 2.5V11.5H13.75V2.5H12.25ZM12.25 11.5L12.25 20.5H13.75L13.75 11.5H12.25Z" fill="#3A465C"/>
<path id="b-0-arrow-right_10" d="M12.4697 21.0303C12.7626 21.3232 13.2374 21.3232 13.5303 21.0303L18.3033 16.2574C18.5962 15.9645 18.5962 15.4896 18.3033 15.1967C18.0104 14.9038 17.5355 14.9038 17.2426 15.1967L13 19.4393L8.75736 15.1967C8.46447 14.9038 7.98959 14.9038 7.6967 15.1967C7.40381 15.4896 7.40381 15.9645 7.6967 16.2574L12.4697 21.0303ZM12.25 2.5V11.5H13.75V2.5H12.25ZM12.25 11.5L12.25 20.5H13.75L13.75 11.5H12.25Z" fill="#3A465C"/>
<path id="b-0-arrow-right_11" d="M12.4697 21.0303C12.7626 21.3232 13.2374 21.3232 13.5303 21.0303L18.3033 16.2574C18.5962 15.9645 18.5962 15.4896 18.3033 15.1967C18.0104 14.9038 17.5355 14.9038 17.2426 15.1967L13 19.4393L8.75736 15.1967C8.46447 14.9038 7.98959 14.9038 7.6967 15.1967C7.40381 15.4896 7.40381 15.9645 7.6967 16.2574L12.4697 21.0303ZM12.25 2.5V11.5H13.75V2.5H12.25ZM12.25 11.5L12.25 20.5H13.75L13.75 11.5H12.25Z" fill="#3A465C"/>
<path id="b-0-arrow-right_12" d="M12.4697 21.0303C12.7626 21.3232 13.2374 21.3232 13.5303 21.0303L18.3033 16.2574C18.5962 15.9645 18.5962 15.4896 18.3033 15.1967C18.0104 14.9038 17.5355 14.9038 17.2426 15.1967L13 19.4393L8.75736 15.1967C8.46447 14.9038 7.98959 14.9038 7.6967 15.1967C7.40381 15.4896 7.40381 15.9645 7.6967 16.2574L12.4697 21.0303ZM12.25 2.5V11.5H13.75V2.5H12.25ZM12.25 11.5L12.25 20.5H13.75L13.75 11.5H12.25Z" fill="#3A465C"/>
<path id="b-0-arrow-right_13" d="M12.4697 21.0303C12.7626 21.3232 13.2374 21.3232 13.5303 21.0303L18.3033 16.2574C18.5962 15.9645 18.5962 15.4896 18.3033 15.1967C18.0104 14.9038 17.5355 14.9038 17.2426 15.1967L13 19.4393L8.75736 15.1967C8.46447 14.9038 7.98959 14.9038 7.6967 15.1967C7.40381 15.4896 7.40381 15.9645 7.6967 16.2574L12.4697 21.0303ZM12.25 2.5V11.5H13.75V2.5H12.25ZM12.25 11.5L12.25 20.5H13.75L13.75 11.5H12.25Z" fill="#3A465C"/>
<path id="b-0-arrow-right_14" d="M12.4697 21.0303C12.7626 21.3232 13.2374 21.3232 13.5303 21.0303L18.3033 16.2574C18.5962 15.9645 18.5962 15.4896 18.3033 15.1967C18.0104 14.9038 17.5355 14.9038 17.2426 15.1967L13 19.4393L8.75736 15.1967C8.46447 14.9038 7.98959 14.9038 7.6967 15.1967C7.40381 15.4896 7.40381 15.9645 7.6967 16.2574L12.4697 21.0303ZM12.25 2.5V11.5H13.75V2.5H12.25ZM12.25 11.5L12.25 20.5H13.75L13.75 11.5H12.25Z" fill="#3A465C"/>
<path id="b-0-arrow-right_15" d="M12.4697 21.0303C12.7626 21.3232 13.2374 21.3232 13.5303 21.0303L18.3033 16.2574C18.5962 15.9645 18.5962 15.4896 18.3033 15.1967C18.0104 14.9038 17.5355 14.9038 17.2426 15.1967L13 19.4393L8.75736 15.1967C8.46447 14.9038 7.98959 14.9038 7.6967 15.1967C7.40381 15.4896 7.40381 15.9645 7.6967 16.2574L12.4697 21.0303ZM12.25 2.5V11.5H13.75V2.5H12.25ZM12.25 11.5L12.25 20.5H13.75L13.75 11.5H12.25Z" fill="#3A465C"/>
<path id="b-0-arrow-right_16" d="M12.4697 21.0303C12.7626 21.3232 13.2374 21.3232 13.5303 21.0303L18.3033 16.2574C18.5962 15.9645 18.5962 15.4896 18.3033 15.1967C18.0104 14.9038 17.5355 14.9038 17.2426 15.1967L13 19.4393L8.75736 15.1967C8.46447 14.9038 7.98959 14.9038 7.6967 15.1967C7.40381 15.4896 7.40381 15.9645 7.6967 16.2574L12.4697 21.0303ZM12.25 2.5V11.5H13.75V2.5H12.25ZM12.25 11.5L12.25 20.5H13.75L13.75 11.5H12.25Z" fill="#3A465C"/>
<path id="b-0-arrow-right_17" d="M12.4697 21.0303C12.7626 21.3232 13.2374 21.3232 13.5303 21.0303L18.3033 16.2574C18.5962 15.9645 18.5962 15.4896 18.3033 15.1967C18.0104 14.9038 17.5355 14.9038 17.2426 15.1967L13 19.4393L8.75736 15.1967C8.46447 14.9038 7.98959 14.9038 7.6967 15.1967C7.40381 15.4896 7.40381 15.9645 7.6967 16.2574L12.4697 21.0303ZM12.25 2.5V11.5H13.75V2.5H12.25ZM12.25 11.5L12.25 20.5H13.75L13.75 11.5H12.25Z" fill="#3A465C"/>
<path id="b-0-arrow-right_18" d="M703.47 477.53C703.763 477.823 704.237 477.823 704.53 477.53L709.303 472.757C709.596 472.464 709.596 471.99 709.303 471.697C709.01 471.404 708.536 471.404 708.243 471.697L704 475.939L699.757 471.697C699.464 471.404 698.99 471.404 698.697 471.697C698.404 471.99 698.404 472.464 698.697 472.757L703.47 477.53ZM703.25 459V468H704.75V459H703.25ZM703.25 468V477H704.75V468H703.25Z" fill="#3A465C"/>
<g id="b-0-fire-escape">
<rect id="b-0-fire-escape-2" x="982.5" y="449.5" width="63" height="67" fill="#D9D9D9"/>
<rect id="b-0-fire-escape-1" x="980.5" y="9.5" width="65" height="101" fill="#D9D9D9"/>
</g>
<rect id="b-0-space-19" x="687.5" y="202.5" width="33" height="15" fill="#D9D9D9"/>
<rect id="b-0-space-18" x="748.5" y="244.5" width="36" height="16" fill="#D9D9D9"/>
<rect id="b-0-space-17" x="748.5" y="223.5" width="36" height="15" fill="#D9D9D9"/>
<rect id="b-0-space-16" x="748.5" y="202.5" width="36" height="15" fill="#D9D9D9"/>
<rect id="b-0-space-15" x="748.5" y="182.5" width="36" height="14" fill="#D9D9D9"/>
<rect id="b-0-space-14" x="748.5" y="161.5" width="36" height="15" fill="#D9D9D9"/>
<rect id="b-0-space-13" x="748.5" y="142.5" width="36" height="13" fill="#D9D9D9"/>
<rect id="b-0-space-12" x="726.5" y="35.5" width="58" height="89" fill="#D9D9D9"/>
<rect id="b-0-space-11" x="231.5" y="261.5" width="33" height="60" fill="#D9D9D9"/>
<rect id="b-0-space-10" x="185.5" y="261.5" width="40" height="60" fill="#D9D9D9"/>
<rect id="b-0-space-9" x="6.5" y="454.5" width="130" height="34" fill="#D9D9D9"/>
<rect id="b-0-space-8" x="103.5" y="355.5" width="33" height="93" fill="#D9D9D9"/>
<rect id="b-0-space-7" x="142.5" y="454.5" width="122" height="34" fill="#D9D9D9"/>
<rect id="b-0-space-6" x="185.5" y="354.5" width="79" height="94" fill="#D9D9D9"/>
<rect id="b-0-space-5" x="270.5" y="354.5" width="15" height="31" fill="#D9D9D9"/>
<rect id="b-0-space-4" x="343.5" y="391.5" width="26" height="97" fill="#D9D9D9"/>
<path id="b-0-space-3" d="M409 488V389V355H387V389H385V392H376V488H409Z" fill="#D9D9D9" stroke="#D9D9D9"/>
<rect id="b-0-space-2" x="683.5" y="494.5" width="50" height="17" fill="#D9D9D9"/>
<rect id="b-0-space-1" x="600.5" y="143.5" width="120" height="53" fill="#D9D9D9"/>
<rect id="b-057" x="791.5" y="325.5" width="36" height="55" fill="#D9D9D9"/>
<rect id="b-056" x="918.5" y="35.5" width="56" height="75" fill="#D9D9D9"/>
<rect id="b-054" x="856.5" y="35.5" width="31" height="76" fill="#D9D9D9"/>
<rect id="b-052" x="790.5" y="35.5" width="60" height="76" fill="#D9D9D9"/>
<rect id="b-051" x="790.5" y="117.5" width="34" height="7" fill="#D9D9D9"/>
<path id="b-050" d="M859 202H834V387H792V488H976V443H1045V142H859V202Z" fill="#C0D5F2" stroke="#C0D5F2"/>
<rect id="b-043" x="729.5" y="429.5" width="56" height="59" fill="#C0D5F2"/>
<path id="b-040" d="M600.5 35.5H720.5V137.5H600.5V35.5Z" fill="#D9D9D9"/>
<path id="b-037" d="M681 203H601V259H720V224H681V203Z" fill="#C0D5F2" stroke="#C0D5F2"/>
<rect id="b-035" x="520.5" y="35.5" width="74" height="161" fill="#C0D5F2"/>
<path id="b-033" d="M475.5 35.5H514.5V196.5H475.5V35.5Z" fill="#C0D5F2"/>
<rect id="b-032" x="406.5" y="35.5" width="17" height="42" fill="#C0D5F2"/>
<path id="b-030" d="M400 36H314V132H423V84H400V36Z" fill="#C0D5F2" stroke="#C0D5F2"/>
<rect id="b-029" x="378.5" y="138.5" width="45" height="28" fill="#C0D5F2"/>
<rect id="b-028" x="269.5" y="138.5" width="38" height="28" fill="#C0D5F2"/>
<rect id="b-027" x="205.5" y="138.5" width="58" height="28" fill="#C0D5F2"/>
<rect id="b-026" x="186.5" y="138.5" width="13" height="28" fill="#C0D5F2"/>
<path id="b-025" d="M307 36H205V63H187V132H307V36Z" fill="#C0D5F2" stroke="#C0D5F2"/>
<path id="b-022-2" d="M6.5 201.5H136.5V321.5H6.5V201.5Z" fill="#D9D9D9"/>
<rect id="b-022" x="6.5" y="34.5" width="130" height="98" fill="#C0D5F2"/>
<path id="b-021" d="M6.5 138.5H136.5V195.5H6.5V138.5Z" fill="#C0D5F2"/>
<rect id="b-020" x="142.5" y="201.5" width="37" height="54" fill="#C0D5F2"/>
<rect id="b-017" x="231.5" y="201.5" width="33" height="54" fill="#C0D5F2"/>
<rect id="b-016" x="270.5" y="201.5" width="136" height="54" fill="#C0D5F2"/>
<rect id="b-015" x="270.5" y="261.5" width="136" height="60" fill="#C0D5F2"/>
<rect id="b-07" x="270.5" y="415.5" width="67" height="73" fill="#C0D5F2"/>
<path id="b-03" d="M604.5 439.5H638.5V488.5H604.5V439.5Z" fill="#D9D9D9"/>
<path id="b-02" d="M644.5 439.5H663.5V488.5H644.5V439.5Z" fill="#D9D9D9"/>
<g id="b-0-staircase-right">
<path id="b-0-staircase-right-background" d="M741.5 367.5V413.5H775.5V367.5H741.5Z" fill="#C0D5F2" stroke="#C0D5F2" stroke-width="2"/>
<path id="b-0-staircase-right-one" d="M773.5 412H746.5V407H750V404H753V401H756V398H759V395H762V392H765V389H768V386.5H773.5V412Z" fill="white" stroke="#C0D5F2" stroke-width="1.5"/>
<path id="b-0-arrow-right_19" d="M753.47 388.03C753.763 388.323 754.237 388.323 754.53 388.03L759.303 383.257C759.596 382.964 759.596 382.49 759.303 382.197C759.01 381.904 758.536 381.904 758.243 382.197L754 386.439L749.757 382.197C749.464 381.904 748.99 381.904 748.697 382.197C748.404 382.49 748.404 382.964 748.697 383.257L753.47 388.03ZM753.25 369.5V378.5H754.75V369.5H753.25ZM753.25 378.5V387.5H754.75V378.5H753.25Z" fill="#3A465C"/>
</g>
<g id="b-0-staircase-center">
<g id="b-0-staircase-center-background">
<path d="M502.5 236.5H456.5V262.5H502.5V236.5Z" fill="#C0D5F2"/>
<path d="M549.5 263.5H503.5V289.5H549.5V263.5Z" fill="#C0D5F2"/>
<path d="M502.5 236.5H456.5V262.5H502.5V236.5Z" stroke="#C0D5F2"/>
<path d="M549.5 263.5H503.5V289.5H549.5V263.5Z" stroke="#C0D5F2"/>
</g>
<path id="b-0-staircase-center-right" d="M508.5 287V267H514V270H518V273H522V276H526V279H530V282H533.5V287H508.5Z" fill="white" stroke="#C0D5F2" stroke-width="1.5"/>
<path id="b-0-staircase-center-left" d="M498 260V240H492.5V243H488.5V246H484.5V249H480.5V252H476.5V255H473V260H498Z" fill="white" stroke="#C0D5F2" stroke-width="1.5"/>
<path id="b-0-arrow-center-right" d="M533.47 275.47C533.177 275.763 533.177 276.237 533.47 276.53L538.243 281.303C538.536 281.596 539.01 281.596 539.303 281.303C539.596 281.01 539.596 280.536 539.303 280.243L535.061 276L539.303 271.757C539.596 271.464 539.596 270.99 539.303 270.697C539.01 270.404 538.536 270.404 538.243 270.697L533.47 275.47ZM549 275.25H534V276.75H549V275.25Z" fill="#3A465C"/>
<path id="b-0-arrow-center-left" d="M473.53 249.53C473.823 249.237 473.823 248.763 473.53 248.47L468.757 243.697C468.464 243.404 467.99 243.404 467.697 243.697C467.404 243.99 467.404 244.464 467.697 244.757L471.939 249L467.697 253.243C467.404 253.536 467.404 254.01 467.697 254.303C467.99 254.596 468.464 254.596 468.757 254.303L473.53 249.53ZM457 249.75H473V248.25H457V249.75Z" fill="#3A465C"/>
</g>
<rect id="b-0-elevator-down-background" x="307" y="361" width="74" height="29" fill="#E6EEFA"/>
<path id="b-0-wardrobe-back" d="M416 488.5V422H663.5V433.5H599V488.5H416Z" fill="#D9D9D9"/>
<rect id="b-0-elevator-up-background" x="312" y="136" width="62" height="24" fill="#E6EEFA"/>
<g id="b-0-elevator-down-2">
<rect id="b-0-elevator-down-2-background" x="348.5" y="365.5" width="20" height="20" rx="3" fill="#C0D5F2"/>
<g id="b-0-elevator-down-2-people">
<path d="M355.513 374.694H354.387H353.262V379.333H355.513V374.694Z" fill="white"/>
<path d="M353.61 372.94C353.61 373.367 353.946 373.713 354.36 373.713C354.774 373.713 355.11 373.367 355.11 372.94C355.11 372.513 354.774 372.167 354.36 372.167C353.946 372.167 353.61 372.513 353.61 372.94Z" fill="white"/>
<path d="M360.015 373.534C360.015 373.961 360.351 374.307 360.765 374.307C361.18 374.307 361.516 373.961 361.516 373.534C361.516 373.107 361.18 372.761 360.765 372.761C360.351 372.761 360.015 373.107 360.015 373.534Z" fill="white"/>
<path d="M363.767 378.56H361.141H360.765V378.946H363.767V378.56Z" fill="white"/>
<path d="M353.61 380.106L353.637 383.585M355.11 380.106L355.138 383.585M361.141 375.08V376.627M361.141 376.627V378.56M361.141 376.627H362.641M361.141 378.56H363.767M361.141 378.56H360.765M363.767 378.56L365.643 381.266M363.767 378.56V378.946H360.765V378.56M360.765 375.08V378.56M360.015 376.627C358.023 376.94 356.867 378.494 357.014 380.493C357.312 382.454 358.719 383.481 360.39 383.585C361.786 383.725 363.742 382.39 363.767 380.106M353.262 374.694V379.333H355.513V374.694H354.387H353.262ZM354.36 373.713C353.946 373.713 353.61 373.367 353.61 372.94C353.61 372.513 353.946 372.167 354.36 372.167C354.774 372.167 355.11 372.513 355.11 372.94C355.11 373.367 354.774 373.713 354.36 373.713ZM360.765 374.307C360.351 374.307 360.015 373.961 360.015 373.534C360.015 373.107 360.351 372.761 360.765 372.761C361.18 372.761 361.516 373.107 361.516 373.534C361.516 373.961 361.18 374.307 360.765 374.307Z" stroke="white"/>
</g>
<path id="b-0-elevator-down-2-arrows" d="M359.928 369.786L361.833 367.405L363.738 369.786M353.262 366.929L355.166 369.31L357.071 366.929" stroke="white"/>
</g>
<g id="b-0-elevator-down-1">
<rect id="b-0-elevator-down-1-background" x="320.5" y="365.5" width="20" height="20" rx="3" fill="#C0D5F2"/>
<g id="b-0-elevator-down-1-people">
<path d="M327.513 374.694H326.387H325.262V379.333H327.513V374.694Z" fill="white"/>
<path d="M325.61 372.94C325.61 373.367 325.946 373.713 326.36 373.713C326.774 373.713 327.11 373.367 327.11 372.94C327.11 372.513 326.774 372.167 326.36 372.167C325.946 372.167 325.61 372.513 325.61 372.94Z" fill="white"/>
<path d="M332.015 373.534C332.015 373.961 332.351 374.307 332.765 374.307C333.18 374.307 333.516 373.961 333.516 373.534C333.516 373.107 333.18 372.761 332.765 372.761C332.351 372.761 332.015 373.107 332.015 373.534Z" fill="white"/>
<path d="M335.767 378.56H333.141H332.765V378.946H335.767V378.56Z" fill="white"/>
<path d="M325.61 380.106L325.637 383.585M327.11 380.106L327.138 383.585M333.141 375.08V376.627M333.141 376.627V378.56M333.141 376.627H334.641M333.141 378.56H335.767M333.141 378.56H332.765M335.767 378.56L337.643 381.266M335.767 378.56V378.946H332.765V378.56M332.765 375.08V378.56M332.015 376.627C330.023 376.94 328.867 378.494 329.014 380.493C329.312 382.454 330.719 383.481 332.39 383.585C333.786 383.725 335.742 382.39 335.767 380.106M325.262 374.694V379.333H327.513V374.694H326.387H325.262ZM326.36 373.713C325.946 373.713 325.61 373.367 325.61 372.94C325.61 372.513 325.946 372.167 326.36 372.167C326.774 372.167 327.11 372.513 327.11 372.94C327.11 373.367 326.774 373.713 326.36 373.713ZM332.765 374.307C332.351 374.307 332.015 373.961 332.015 373.534C332.015 373.107 332.351 372.761 332.765 372.761C333.18 372.761 333.516 373.107 333.516 373.534C333.516 373.961 333.18 374.307 332.765 374.307Z" stroke="white"/>
</g>
<path id="b-0-elevator-down-1-arrows" d="M331.928 369.786L333.833 367.405L335.738 369.786M325.262 366.929L327.166 369.31L329.071 366.929" stroke="white"/>
</g>
<g id="b-0-elevator-up-1">
<rect id="b-0-elevator-up-1-background" x="318.5" y="138.5" width="20" height="20" rx="3" fill="#D9D9D9"/>
<g id="b-0-elevator-up-1-people">
<path d="M325.513 147.694H324.387H323.262V152.333H325.513V147.694Z" fill="white"/>
<path d="M323.61 145.94C323.61 146.367 323.946 146.713 324.36 146.713C324.774 146.713 325.11 146.367 325.11 145.94C325.11 145.513 324.774 145.167 324.36 145.167C323.946 145.167 323.61 145.513 323.61 145.94Z" fill="white"/>
<path d="M330.015 146.534C330.015 146.961 330.351 147.307 330.765 147.307C331.18 147.307 331.516 146.961 331.516 146.534C331.516 146.107 331.18 145.761 330.765 145.761C330.351 145.761 330.015 146.107 330.015 146.534Z" fill="white"/>
<path d="M333.767 151.56H331.141H330.765V151.946H333.767V151.56Z" fill="white"/>
<path d="M323.61 153.106L323.637 156.585M325.11 153.106L325.138 156.585M331.141 148.08V149.627M331.141 149.627V151.56M331.141 149.627H332.641M331.141 151.56H333.767M331.141 151.56H330.765M333.767 151.56L335.643 154.266M333.767 151.56V151.946H330.765V151.56M330.765 148.08V151.56M330.015 149.627C328.023 149.94 326.867 151.494 327.014 153.493C327.312 155.454 328.719 156.481 330.39 156.585C331.786 156.725 333.742 155.39 333.767 153.106M323.262 147.694V152.333H325.513V147.694H324.387H323.262ZM324.36 146.713C323.946 146.713 323.61 146.367 323.61 145.94C323.61 145.513 323.946 145.167 324.36 145.167C324.774 145.167 325.11 145.513 325.11 145.94C325.11 146.367 324.774 146.713 324.36 146.713ZM330.765 147.307C330.351 147.307 330.015 146.961 330.015 146.534C330.015 146.107 330.351 145.761 330.765 145.761C331.18 145.761 331.516 146.107 331.516 146.534C331.516 146.961 331.18 147.307 330.765 147.307Z" stroke="white"/>
</g>
<path id="b-0-elevator-up-1-arrows" d="M329.928 142.786L331.833 140.405L333.738 142.786M323.262 139.929L325.166 142.31L327.071 139.929" stroke="white"/>
</g>
<g id="b-0-elevator-up-2">
<rect id="b-0-elevator-up-2-background" x="346.5" y="138.5" width="20" height="20" rx="3" fill="#D9D9D9"/>
<g id="b-0-elevator-up-2-people">
<path d="M353.513 147.694H352.387H351.262V152.333H353.513V147.694Z" fill="white"/>
<path d="M351.61 145.94C351.61 146.367 351.946 146.713 352.36 146.713C352.774 146.713 353.11 146.367 353.11 145.94C353.11 145.513 352.774 145.167 352.36 145.167C351.946 145.167 351.61 145.513 351.61 145.94Z" fill="white"/>
<path d="M358.015 146.534C358.015 146.961 358.351 147.307 358.765 147.307C359.18 147.307 359.516 146.961 359.516 146.534C359.516 146.107 359.18 145.761 358.765 145.761C358.351 145.761 358.015 146.107 358.015 146.534Z" fill="white"/>
<path d="M361.767 151.56H359.141H358.765V151.946H361.767V151.56Z" fill="white"/>
<path d="M351.61 153.106L351.637 156.585M353.11 153.106L353.138 156.585M359.141 148.08V149.627M359.141 149.627V151.56M359.141 149.627H360.641M359.141 151.56H361.767M359.141 151.56H358.765M361.767 151.56L363.643 154.266M361.767 151.56V151.946H358.765V151.56M358.765 148.08V151.56M358.015 149.627C356.023 149.94 354.867 151.494 355.014 153.493C355.312 155.454 356.719 156.481 358.39 156.585C359.786 156.725 361.742 155.39 361.767 153.106M351.262 147.694V152.333H353.513V147.694H352.387H351.262ZM352.36 146.713C351.946 146.713 351.61 146.367 351.61 145.94C351.61 145.513 351.946 145.167 352.36 145.167C352.774 145.167 353.11 145.513 353.11 145.94C353.11 146.367 352.774 146.713 352.36 146.713ZM358.765 147.307C358.351 147.307 358.015 146.961 358.015 146.534C358.015 146.107 358.351 145.761 358.765 145.761C359.18 145.761 359.516 146.107 359.516 146.534C359.516 146.961 359.18 147.307 358.765 147.307Z" stroke="white"/>
</g>
<path id="b-0-elevator-up-2-arrows" d="M357.928 142.786L359.833 140.405L361.738 142.786M351.262 139.929L353.166 142.31L355.071 139.929" stroke="white"/>
</g>
<rect id="b-0-toilet-m" x="208.5" y="201.5" width="17" height="54" fill="#C0D5F2"/>
<rect id="b-0-toilet-w" x="185.5" y="201.5" width="17" height="54" fill="#C0D5F2"/>
<g id="b-0-toilet-icon-2">
<rect id="b-0-toilet-icon-2-background" x="210.25" y="203.25" width="13.5" height="13.5" rx="2.75" fill="#C0D5F2" stroke="white" stroke-width="0.5"/>
<g id="b-0-toilet-icon-2-WC">
<path d="M211.942 207.189H210.831L212.123 213.147H213.32L214.402 208.673L215.523 213.147H216.682L217.992 207.189H216.91L216.055 211.33L215.086 207.189H213.794L212.769 211.289L211.942 207.189Z" fill="#FDF6F6"/>
<path d="M218.968 208.066C219.066 207.932 219.224 207.767 219.29 207.701C219.874 207.033 220.988 207.047 221.471 207.137C222.67 207.396 223.058 208.386 223.102 208.848L222.031 209.13C221.98 208.859 221.751 208.365 221.338 208.191C220.893 208.003 220.558 208.149 220.437 208.191C220.26 208.208 219.848 208.421 219.612 209.13C219.377 209.839 219.514 210.81 219.612 211.206C219.666 211.64 219.995 211.964 220.153 212.072C220.298 212.201 220.72 212.412 221.244 212.229C221.767 212.045 222.018 211.345 222.078 211.018L223.14 211.394C223.111 211.482 223.074 211.594 223.044 211.685C223.039 211.701 223.024 211.748 223.001 211.813C222.991 211.841 222.987 211.853 222.992 211.837C222.926 212.015 222.804 212.3 222.666 212.458C222.41 212.75 222.476 212.75 222.021 213.021C221.657 213.238 221.288 213.293 221.149 213.293H220.485C220.447 213.286 220.365 213.272 220.343 213.272C220.314 213.272 220.115 213.22 219.84 213.095C219.565 212.969 219.546 212.928 219.309 212.74C219.119 212.59 218.901 212.274 218.816 212.135C218.674 211.905 218.581 211.617 218.512 211.425C218.444 211.233 218.383 210.671 218.361 210.413C218.361 210.225 218.389 209.766 218.427 209.526C218.464 209.296 218.484 209.123 218.503 209.067C218.602 208.7 218.715 208.476 218.759 208.41C218.787 208.351 218.869 208.199 218.968 208.066Z" fill="#FFF8F8"/>
<path d="M222.992 211.837C222.926 212.015 222.804 212.3 222.666 212.458C222.41 212.75 222.476 212.75 222.021 213.021C221.657 213.238 221.288 213.293 221.149 213.293H220.485C220.447 213.286 220.365 213.272 220.343 213.272C220.314 213.272 220.115 213.22 219.84 213.095C219.565 212.969 219.546 212.928 219.309 212.74C219.119 212.59 218.901 212.274 218.816 212.135C218.674 211.905 218.581 211.617 218.512 211.425C218.444 211.233 218.383 210.671 218.361 210.413C218.361 210.225 218.389 209.766 218.427 209.526C218.464 209.296 218.484 209.123 218.503 209.067C218.602 208.7 218.715 208.476 218.759 208.41C218.787 208.351 218.869 208.199 218.968 208.066C219.066 207.932 219.224 207.767 219.29 207.701C219.874 207.033 220.988 207.047 221.471 207.137C222.67 207.396 223.058 208.386 223.102 208.848L222.031 209.13C221.98 208.859 221.751 208.365 221.338 208.191C220.893 208.003 220.558 208.149 220.437 208.191C220.26 208.208 219.848 208.421 219.612 209.13C219.377 209.839 219.514 210.81 219.612 211.206C219.666 211.64 219.995 211.964 220.153 212.072C220.298 212.201 220.72 212.412 221.244 212.229C221.767 212.045 222.018 211.345 222.078 211.018L223.14 211.394C223.111 211.482 223.074 211.594 223.044 211.685M222.992 211.837C222.995 211.828 222.998 211.82 223.001 211.813M222.992 211.837C222.996 211.825 223.004 211.801 223.017 211.759C223.041 211.685 223.049 211.666 223.044 211.685M222.992 211.837C222.987 211.853 222.991 211.841 223.001 211.813M223.001 211.813C223.024 211.748 223.039 211.701 223.044 211.685M223.001 211.813C223.011 211.784 223.026 211.738 223.044 211.685M210.831 207.189H211.942L212.769 211.289L213.794 207.189H215.086L216.055 211.33L216.91 207.189H217.992L216.682 213.147H215.523L214.402 208.673L213.32 213.147H212.123L210.831 207.189Z" stroke="#FFFAFA" stroke-width="0.392"/>
</g>
</g>
<g id="b-0-toilet-icon-1">
<rect id="b-0-toilet-icon-1-background" x="187.25" y="203.25" width="13.5" height="13.5" rx="2.75" fill="#C0D5F2" stroke="white" stroke-width="0.5"/>
<g id="b-0-toilet-icon-1-WC">
<path d="M188.942 207.189H187.831L189.123 213.147H190.32L191.402 208.673L192.523 213.147H193.682L194.992 207.189H193.91L193.055 211.33L192.086 207.189H190.794L189.769 211.289L188.942 207.189Z" fill="#FDF6F6"/>
<path d="M195.968 208.066C196.066 207.932 196.224 207.767 196.29 207.701C196.874 207.033 197.988 207.047 198.471 207.137C199.67 207.396 200.058 208.386 200.102 208.848L199.031 209.13C198.98 208.859 198.751 208.365 198.338 208.191C197.893 208.003 197.558 208.149 197.437 208.191C197.26 208.208 196.848 208.421 196.612 209.13C196.377 209.839 196.514 210.81 196.612 211.206C196.666 211.64 196.995 211.964 197.153 212.072C197.298 212.201 197.72 212.412 198.244 212.229C198.767 212.045 199.018 211.345 199.078 211.018L200.14 211.394C200.111 211.482 200.074 211.594 200.044 211.685C200.039 211.701 200.024 211.748 200.001 211.813C199.991 211.841 199.987 211.853 199.992 211.837C199.926 212.015 199.804 212.3 199.666 212.458C199.41 212.75 199.476 212.75 199.021 213.021C198.657 213.238 198.288 213.293 198.149 213.293H197.485C197.447 213.286 197.365 213.272 197.343 213.272C197.314 213.272 197.115 213.22 196.84 213.095C196.565 212.969 196.546 212.928 196.309 212.74C196.119 212.59 195.901 212.274 195.816 212.135C195.674 211.905 195.581 211.617 195.512 211.425C195.444 211.233 195.383 210.671 195.361 210.413C195.361 210.225 195.389 209.766 195.427 209.526C195.464 209.296 195.484 209.123 195.503 209.067C195.602 208.7 195.715 208.476 195.759 208.41C195.787 208.351 195.869 208.199 195.968 208.066Z" fill="#FFF8F8"/>
<path d="M199.992 211.837C199.926 212.015 199.804 212.3 199.666 212.458C199.41 212.75 199.476 212.75 199.021 213.021C198.657 213.238 198.288 213.293 198.149 213.293H197.485C197.447 213.286 197.365 213.272 197.343 213.272C197.314 213.272 197.115 213.22 196.84 213.095C196.565 212.969 196.546 212.928 196.309 212.74C196.119 212.59 195.901 212.274 195.816 212.135C195.674 211.905 195.581 211.617 195.512 211.425C195.444 211.233 195.383 210.671 195.361 210.413C195.361 210.225 195.389 209.766 195.427 209.526C195.464 209.296 195.484 209.123 195.503 209.067C195.602 208.7 195.715 208.476 195.759 208.41C195.787 208.351 195.869 208.199 195.968 208.066C196.066 207.932 196.224 207.767 196.29 207.701C196.874 207.033 197.988 207.047 198.471 207.137C199.67 207.396 200.058 208.386 200.102 208.848L199.031 209.13C198.98 208.859 198.751 208.365 198.338 208.191C197.893 208.003 197.558 208.149 197.437 208.191C197.26 208.208 196.848 208.421 196.612 209.13C196.377 209.839 196.514 210.81 196.612 211.206C196.666 211.64 196.995 211.964 197.153 212.072C197.298 212.201 197.72 212.412 198.244 212.229C198.767 212.045 199.018 211.345 199.078 211.018L200.14 211.394C200.111 211.482 200.074 211.594 200.044 211.685M199.992 211.837C199.995 211.828 199.998 211.82 200.001 211.813M199.992 211.837C199.996 211.825 200.004 211.801 200.017 211.759C200.041 211.685 200.049 211.666 200.044 211.685M199.992 211.837C199.987 211.853 199.991 211.841 200.001 211.813M200.001 211.813C200.024 211.748 200.039 211.701 200.044 211.685M200.001 211.813C200.011 211.784 200.026 211.738 200.044 211.685M187.831 207.189H188.942L189.769 211.289L190.794 207.189H192.086L193.055 211.33L193.91 207.189H194.992L193.682 213.147H192.523L191.402 208.673L190.32 213.147H189.123L187.831 207.189Z" stroke="#FFFAFA" stroke-width="0.392"/>
</g>
</g>
<rect id="b-0-wardrobe" x="415.5" y="354.5" width="248" height="61" fill="#C0D5F2"/>
<g id="b-0-wardrobe-icon">
<rect id="b-0-wardrobe-icon-background" x="508.25" y="367.25" width="35.5" height="35.5" rx="2.75" fill="#C0D5F2" stroke="white" stroke-width="0.5"/>
<path id="b-0-wardrobe-icon-hanger" d="M543.918 395.849H510.262C507.357 395.847 505.003 394.104 505 391.954V391.953C505.004 390.402 506.218 389.062 507.98 388.421L508.011 388.411L508.048 388.398L527.084 382.019L546.117 388.416C547.914 389.059 549.132 390.397 549.132 391.947C549.132 394.086 546.81 395.824 543.93 395.855H543.926L543.918 395.849ZM509.655 390.981C509.169 391.163 508.842 391.529 508.841 391.952V391.952C508.841 392.533 509.477 393.005 510.262 393.006H543.893C544.666 392.993 545.286 392.527 545.289 391.954V391.953C545.289 391.53 544.961 391.163 544.483 390.984L544.475 390.981L527.084 385.141L509.655 390.981ZM529.005 383.58H525.164V383.153C525.266 381.505 526.424 380.072 528.145 379.208L528.169 379.196C528.618 378.959 528.906 378.575 528.906 378.141C528.906 377.426 528.124 376.847 527.159 376.847C526.194 376.847 525.411 377.426 525.411 378.141C525.411 378.148 525.411 378.154 525.412 378.161V378.16L521.571 378.203C521.57 378.183 521.57 378.16 521.57 378.137C521.57 375.852 524.072 374 527.158 374C530.245 374 532.747 375.852 532.747 378.137C532.747 379.538 531.806 380.777 530.367 381.525L530.314 381.551C529.563 381.925 529.06 382.537 529.005 383.238L529.005 383.244V383.58Z" fill="#FFF8F8"/>
</g>
<path id="b-0-transition-A" d="M201 7H140V28H143V29H201V7Z" fill="#C0D5F2" stroke="#C0D5F2"/>
<path id="b-floor-0-border" d="M139.5 109.995V31.4954H136.5M139.5 189.995V198.495M139.5 198.495V258.495M139.5 198.495H149M139.5 198.495H3.5M139.5 258.495V283.495M139.5 258.495H409M139.5 292.995V333.995M139.5 135.495V124.995M139.5 135.495V169.995M139.5 135.495H4M3.5 324.495H139.5M139.5 347.995V451.495M139.5 451.495V491.521M139.5 451.495H100.5M139.5 451.495H155M139.5 352.495H100.5V380.995M100.5 393.995V451.495M100.5 451.495H51M39 451.495H3.5M183.5 121.995V169.495H187M183.5 108.995V59.4953H201.5V32.4954L204.5 32.5M204.5 32.5H977.5M204.5 32.5V3.5L136.5 3.50007V31.4954M310.5 169.495L315.798 161.495H369.75L375.5 169.5M310.5 169.495H293M310.5 169.495V135.495M196 169.495H202.5M202.5 169.495H245M202.5 169.495V135.495M256 169.495H281M375.5 169.5H426.5L426.5 148.995M375.5 169.5L375.5 135.495M426.5 140.995V135.495M426.5 135.495V128.995M426.5 135.495H310.5M426.5 119.995V103.995M426.5 95.9952V80.4953M426.5 80.4953V69.9953M426.5 80.4953H403.5V32.5M426.5 61.9953L426.5 32.5M183.5 135.495H310.5M310.5 135.495V32.5M266.5 135.495V169.495M472.5 123.995V32.5M472.5 132.995V199.495H488M517.5 32.5V77.4953M517.5 77.4953V199.495M517.5 77.4953H518M517.5 199.495H499M517.5 199.495H558M597.5 237.995V32.5M578 199.495H723.5M597.5 250.995V262.495H644M657 262.495H723.5M723.5 262.495V220.495H684.5V199.495M723.5 262.495L731 262.666M1048.5 138.495H855.5V198.495H848M836 198.495H830.5M830.5 198.495C830.5 198.495 830.5 311.248 830.5 383.495L788.5 383.497M830.5 198.495H817M1048.5 446.495H979.5V491.5M788.5 383.497V491.499M788.5 383.497L788.5 322.495M788.5 322.497L788.5 322.495M788.5 322.495H804M815 322.495H830.5M787.5 262.995V127.495M787.5 127.495V32.4952M787.5 127.495H827.5V125.995M787.5 127.495H745M788 263.495L745.5 262.995M745.5 262.995V257.995M745.5 262.995L741 262.893M977.5 32.5L978.5 113.495M977.5 32.5V6.60425H1048.5V519.604H979.5L979.5 491.5M978.5 113.495H915.5V105.995M978.5 113.495L1048.5 113.495M915.5 95.9952V32.5959M878 114.495H890.5V32.4952M866 114.495H847M853.5 114.495V32.4952M835 114.495H787.5M827.5 114.495V116.995M730 127.495H723.5V32.4952M597.5 140.495H723.5V165.995M723.5 208V199.495M723.5 199.495V186M787.5 139.495H745.5V145.995M787.5 199.495H745.5V204.995M787.5 179.495H745.5V173.995M745.5 220.495H787.5M745.5 220.495V214.995M745.5 220.495V225.995M745.5 241.495H787M745.5 241.495V235.995M745.5 241.495V246.995M745.5 158.495H787.5M745.5 158.495V152.995M745.5 158.495V163.995M745.5 193.995L745.5 199.5M745.5 179.5L745.5 184.995M979.5 491.5L736.5 491.604M165 198.495H189M182.5 198.995V324.495H210M197 198.495H214M222 198.495H384M205.5 197.995V258.495M228.5 324.495V198.495M218 324.495H241M267.5 198.495V324.495M252 324.495H392M397 198.495H409.5V324.495H400M805 198.495H787.5M788.5 426.495L726.5 426.496L726.5 432.995M726.5 441.995L726.5 491.495M736.5 491.604L703 491.495M736.5 491.604V514.604H680.5V491.604M680.5 491.604L697 491.495M680.5 491.604L3.5 491.5V31.5M136.5 31.4954L3.5 31.5M666.5 421.995V351.5H412.5M412.5 351.5L412.5 491.563M412.5 351.5L401 351.495M653 418.495H412.5M662 418.495H666.5M666.5 433.995V491.521M666.5 436.495H662M653 436.495H631.5M641.5 436.495V491.598M622 436.495H601.5V491.592M267.5 451.495H182.5M168 451.495H182.5M214 351.495L182.5 351.5L182.5 451.495M228 351.495H288.5V388.495H286M277 388.495L267.5 388.5M267.5 351.495V491.541M381.5 351.5H374.5L369.68 362.5H319.5L314.5 351.495L307.5 351.5L307.5 388.495H381.5L381.5 351.5ZM381.5 351.5L391 351.495M372.5 388.495V491.557M340.5 391.995V388.495M340.5 403.995V491.552M299 412.495L340.5 412.5M287 412.495H267.5M3.5 31.5V492" stroke="#38445A" stroke-opacity="0.99" stroke-width="2"/>
<path id="b-floor-0-outer-border" d="M2.5 492.5V30.5H135.5V2.5H205.5V31.5H976.5V5.5H1049.5V520.5H978.5V492.5H737.5V515.5H679.5V492.5H2.5Z" stroke="#002069" stroke-width="4"/>
<path id="b-0-space-20" d="M7 328H137V349.5H97.5447V448H7V328Z" fill="#D9D9D9"/>
<path id="b-0-space-21" d="M784 259H727V131H852V196H784V259Z" fill="#D9D9D9"/>
<g id="b-0-snack">
<g id="automat-icon-background">
<rect id="b-0-snack-background" x="672" y="471" width="17" height="17" rx="6" fill="#C0D5F2"/>
</g>
<g id="automat-icon">
<path id="automat-icon_2" fill-rule="evenodd" clip-rule="evenodd" d="M682.672 474H676V481.82H682.672V474ZM683.245 475.792V475.206H684.902V475.792H683.245ZM683.245 476.411V476.997H684.902V476.411H683.245ZM683.245 478.203V477.617H684.902V478.203H683.245ZM683.245 478.823V479.409H684.902V478.823H683.245ZM683.245 481.452V481.82H684.909V481.452C684.854 481.023 684.587 480.793 684.46 480.732C684.339 480.659 684.015 480.557 683.686 480.732C683.358 480.906 683.255 481.284 683.245 481.452ZM676 482.439V485.437H682.672V482.439H676ZM676.542 483.034H677.517V484.842H676.542V483.034ZM678.826 484.482L678.756 484.114L679.855 483.88L679.917 484.248L678.826 484.482ZM682.131 474.586H676.542V476.093L676.836 476.101V475.808H677.394V475.206H677.935V475.808H678.508V475.206H679.05V475.808H679.623V475.206H680.165V475.808H680.738V475.206H681.279V475.808H681.837V476.101H682.131V474.586ZM676.542 478.203H676.836V477.617H677.394V477.014H677.935V477.617H678.508V477.014H679.05V477.617H679.623V477.014H680.165V477.617H680.738V477.014H681.279V477.617H681.837V478.203H682.131V476.118H681.837V476.395H676.836V476.118L676.542 476.11V478.203ZM676.836 480.011H676.563L682.13 480.02L681.837 480.011V479.425H681.279V478.823H680.738V479.425H680.165V478.823H679.623V479.425H679.05V478.823H678.508C678.502 478.99 678.506 479.294 678.508 479.425H677.935V478.823H677.394V479.425H676.836V480.011ZM676.542 478.203V480.011V480.011V480.02V481.234H682.131V480.02V480.02V478.203H676.542ZM678.338 484.851L678.168 483.921C678.155 483.843 678.174 483.67 678.354 483.603L680.026 483.26C680.108 483.24 680.286 483.262 680.335 483.503L680.513 484.516C680.503 484.597 680.439 484.764 680.266 484.784L680.002 484.842L682.131 484.851V483.034H677.525V484.851H678.338Z" fill="#FFFEFE"/>
</g>
</g>
</g>
</svg>
