<svg width="45" height="58" viewBox="0 0 45 58" fill="none" xmlns="http://www.w3.org/2000/svg">
<path d="M0 0.529646H1.7962C10.3897 0.539671 17.3534 7.8723 17.3629 16.92V40.5748H0V0.529646ZM13.7706 36.7922V16.921C13.7629 10.6275 9.38446 5.41331 3.66029 4.46277L3.59236 4.45348V36.7922H13.7706ZM12.7648 58H9.17252V40.5496H3.5923V58H0V36.767H12.7647L12.7648 58ZM40.306 58H36.7137V28.4704H31.1335V58H27.5412V24.6878H40.3059L40.306 58ZM24.8351 15.0296H45V19.4956C44.8658 24.427 41.0372 28.3708 36.3338 28.3708C36.2854 28.3708 36.2373 28.3704 36.1891 28.3696L36.1964 28.3697H31.5815C26.8973 28.2822 23.122 24.3069 23.039 19.383L23.0389 19.3747V16.8202H24.835L24.8351 15.0296ZM41.4077 18.8122H26.6312V19.3165C26.6774 22.2033 28.8877 24.5306 31.625 24.5793H36.2419C36.2767 24.5803 36.3177 24.5808 36.359 24.5808C39.0968 24.5808 41.3258 22.2872 41.4075 19.4253L41.4076 19.4174L41.4077 18.8122ZM35.7078 16.921H32.1155V0H35.7078V16.921ZM26.5354 16.921H22.9431V0H26.5353L26.5354 16.921ZM44.9043 16.921H41.3118V0H44.9043V16.921Z" fill="#FFFCFC"/>
</svg>
