<svg width="47" height="64" viewBox="0 0 47 64" fill="none" xmlns="http://www.w3.org/2000/svg">
<path d="M10.9004 20.7428V18.6944C11.1714 18.1091 11.4423 18.1091 11.9843 18.1091C12.4178 18.1091 12.7068 18.6944 12.7972 18.987V20.4501C12.7972 20.7427 12.6346 21.3865 11.9843 21.6206C11.3339 21.8547 10.9907 21.1329 10.9004 20.7428Z" fill="#FFFDFD"/>
<path d="M36.1004 12.2566V13.4271V14.0124C36.1004 14.305 35.9378 14.8902 35.2875 14.8902C34.9262 14.8902 34.2036 14.7732 34.2036 14.305V12.2566C34.2939 11.8664 34.6372 11.1446 35.2875 11.3787C35.9378 11.6128 36.1004 12.0615 36.1004 12.2566Z" fill="#FFFDFD"/>
<path d="M10.9004 20.7428V18.6944C11.1714 18.1091 11.4423 18.1091 11.9843 18.1091C12.4178 18.1091 12.7068 18.6944 12.7972 18.987V20.4501C12.7972 20.7427 12.6346 21.3865 11.9843 21.6206C11.3339 21.8547 10.9907 21.1329 10.9004 20.7428Z" stroke="#FFFDFD"/>
<path d="M36.1004 12.2566V13.4271V14.0124C36.1004 14.305 35.9378 14.8902 35.2875 14.8902C34.9262 14.8902 34.2036 14.7732 34.2036 14.305V12.2566C34.2939 11.8664 34.6372 11.1446 35.2875 11.3787C35.9378 11.6128 36.1004 12.0615 36.1004 12.2566Z" stroke="#FFFDFD"/>
<path d="M13.4671 62.0692C13.6787 63.0128 14.0842 63.0522 14.2606 62.9539C14.8954 63.19 15.3188 62.0692 15.3188 62.0692C15.3188 62.0692 17.6992 42.9015 17.6992 41.7221C17.6992 40.5428 16.6413 40.051 16.1123 39.9525C8.28327 37.3576 4.21008 31.5975 3.15211 29.0418H44.1485C37.8007 39.0679 32.5108 39.6577 30.9239 39.9525C29.6543 40.1885 29.3369 41.2305 29.3369 41.7221L31.7174 62.069C31.9819 62.3639 31.9819 62.6587 32.7753 62.9536C33.4101 63.1895 33.7451 62.4623 33.8333 62.0692L31.4529 41.7221C33.5688 41.1326 38.0652 39.3628 40.9746 36.119C43.3022 33.524 44.7657 31.4992 45.2065 30.8111C46 29.6315 46 29.0418 46 27.8622C46 26.9186 44.2367 26.6829 43.3551 26.6829H27.75V21.9648C27.75 20.7855 26.8683 20.4903 26.4275 20.4901H24.5761C24.4879 17.2464 24.3645 10.405 24.5761 8.98956C24.8405 7.22024 24.5761 7.81001 25.105 6.0407C25.5282 4.62525 26.8683 3.68162 27.4855 3.38673C27.6618 3.28844 28.2261 3.09184 29.0724 3.09184C30.1304 3.09184 30.9239 3.38673 31.4529 3.68162C31.9819 3.9765 32.5108 4.27139 33.3043 5.45093C33.9391 6.39456 34.0978 7.41683 34.0978 7.81001C34.0096 8.30149 34.0449 9.28444 34.8913 9.28444C35.7377 9.28444 35.9493 8.69467 35.9493 8.39979C36.1609 6.0407 34.6268 3.6818 33.8333 2.79723C33.2162 2.10916 31.4 0.792009 29.0724 1.02792C26.7449 1.26383 25.105 2.50235 24.5761 3.09212C22.8833 4.50757 22.4601 8.00682 22.4601 9.57952C19.921 7.45634 16.9939 7.71191 15.8478 8.10509C13.5202 8.57691 12.0567 11.0539 11.6159 12.2335C11.4396 12.9216 11.1398 14.4746 11.3514 15.1823C11.563 15.8901 12.1449 15.8704 12.4094 15.7721C13.0442 15.3003 13.2028 14.7892 13.2028 14.5926C13.8376 11.0539 15.5833 9.97282 16.3768 9.87459C16.6413 9.678 17.6463 9.40277 19.5507 9.87459C21.455 10.3464 22.2838 12.6269 22.4601 13.7081L22.7246 20.4904H21.4021C20.3442 20.2544 19.9033 21.375 19.8152 21.9648L19.6652 26.6829H3.4166C2.79937 26.5846 1.45911 26.7419 1.03592 28.1574C0.61273 29.5728 4.03351 34.0551 5.7968 36.1193C8.54752 39.1861 13.6434 41.1323 15.8475 41.7221L13.4671 62.0692Z" fill="white" stroke="#FFFEFE"/>
<path d="M32.5 63H14.5V61H33L32.5 63Z" fill="#FFFDFD" stroke="#FFFDFD"/>
</svg>
