<svg width="66" height="73" viewBox="0 0 66 73" fill="none" xmlns="http://www.w3.org/2000/svg">
<path d="M37.6333 63.7298C30.1808 63.7298 23.0336 60.8595 17.764 55.7504C12.4942 50.6414 9.53378 43.712 9.53378 36.4866C9.53378 29.2611 12.4942 22.3317 17.764 17.2227C23.0336 12.1135 30.1808 9.24327 37.6333 9.24327V0C16.8597 0 0 16.346 0 36.4866C0 56.627 16.8597 72.9728 37.6333 72.9728V63.7298Z" fill="url(#paint0_linear_216_273)"/>
<path d="M37.6336 45.2427C42.6218 45.2427 46.6654 41.3224 46.6654 36.4862C46.6654 31.6497 42.6218 27.7294 37.6336 27.7294C32.6451 27.7294 28.6016 31.6497 28.6016 36.4862C28.6016 41.3224 32.6451 45.2427 37.6336 45.2427Z" fill="url(#paint1_linear_216_273)"/>
<path d="M37.6328 9.24268V18.486C42.5567 18.486 47.2791 20.3823 50.7608 23.7579C54.2425 27.1335 56.1984 31.7121 56.1984 36.4859C56.1984 41.2597 54.2425 45.8383 50.7608 49.2139C47.2791 52.5895 42.5567 54.4858 37.6328 54.4858V63.7291C45.0853 63.7291 52.2325 60.8588 57.5021 55.7497C62.7718 50.6407 65.7323 43.7113 65.7323 36.4859C65.7323 29.2604 62.7718 22.3311 57.5021 17.222C52.2325 12.1129 45.0853 9.24268 37.6328 9.24268Z" fill="url(#paint2_linear_216_273)"/>
<path d="M37.632 45.2435C35.8458 45.2435 34.0997 44.7301 32.6143 43.7676C31.1289 42.8055 29.9714 41.438 29.2876 39.8377C28.6041 38.2378 28.4252 36.4771 28.7738 34.7784C29.1221 33.0797 29.9823 31.5193 31.2456 30.2949C32.5085 29.0701 34.118 28.2361 35.87 27.8981C37.6221 27.5605 39.4382 27.7339 41.0884 28.3965C42.7389 29.0595 44.1494 30.1818 45.1418 31.6219C46.1345 33.0617 46.6641 34.7549 46.6641 36.4867H56.1979C56.1979 32.9267 55.1089 29.4466 53.0691 26.4866C51.0288 23.5263 48.1294 21.2195 44.737 19.857C41.3445 18.4946 37.6116 18.1382 34.0101 18.8326C30.4086 19.5272 27.1005 21.2416 24.5043 23.759C21.9078 26.2761 20.1395 29.4833 19.423 32.9751C18.7069 36.4669 19.0744 40.0861 20.4797 43.3751C21.885 46.6642 24.2643 49.4753 27.3176 51.4533C30.3706 53.4311 33.9602 54.4869 37.632 54.4869V45.2435Z" fill="url(#paint3_linear_216_273)"/>
<defs>
<linearGradient id="paint0_linear_216_273" x1="15.7819" y1="69.8068" x2="27.9973" y2="-1.64714" gradientUnits="userSpaceOnUse">
<stop offset="0.05" stop-color="#0541F0"/>
<stop offset="0.21" stop-color="#126CF4"/>
<stop offset="0.44" stop-color="#22A2F9"/>
<stop offset="0.64" stop-color="#2DCAFC"/>
<stop offset="0.8" stop-color="#34E2FE"/>
<stop offset="0.9" stop-color="#37EBFF"/>
</linearGradient>
<linearGradient id="paint1_linear_216_273" x1="31.2469" y1="42.678" x2="43.6249" y2="29.911" gradientUnits="userSpaceOnUse">
<stop offset="0.06" stop-color="#37EBFF"/>
<stop offset="0.19" stop-color="#36E7FF"/>
<stop offset="0.32" stop-color="#32DAFE"/>
<stop offset="0.45" stop-color="#2CC6FC"/>
<stop offset="0.58" stop-color="#23A9F9"/>
<stop offset="0.71" stop-color="#1883F6"/>
<stop offset="0.85" stop-color="#0B56F2"/>
<stop offset="0.9" stop-color="#0541F0"/>
</linearGradient>
<linearGradient id="paint2_linear_216_273" x1="37.2937" y1="63.6085" x2="54.9427" y2="13.5949" gradientUnits="userSpaceOnUse">
<stop offset="0.05" stop-color="#37EBFF"/>
<stop offset="0.16" stop-color="#2DC8FC"/>
<stop offset="0.34" stop-color="#1F98F8"/>
<stop offset="0.51" stop-color="#1472F4"/>
<stop offset="0.66" stop-color="#0C57F2"/>
<stop offset="0.8" stop-color="#0747F1"/>
<stop offset="0.9" stop-color="#0541F0"/>
</linearGradient>
<linearGradient id="paint3_linear_216_273" x1="22.5828" y1="47.351" x2="48.0255" y2="21.1066" gradientUnits="userSpaceOnUse">
<stop offset="0.11" stop-color="#1805F0"/>
<stop offset="0.89" stop-color="#37EBFF"/>
</linearGradient>
</defs>
</svg>
