<svg width="52" height="57" viewBox="0 0 52 57" fill="none" xmlns="http://www.w3.org/2000/svg">
<path d="M4 14.4144C4 6.28407 13.187 1.55202 19.8064 6.27287L43.3969 23.0972C49.551 27.4862 48.7982 36.8533 42.0222 40.2032L18.4317 51.8655C11.7854 55.1512 4 50.3152 4 42.9011V14.4144Z" fill="white"/>
<path d="M4 14.4144C4 6.28407 13.187 1.55202 19.8064 6.27287L43.3969 23.0972C49.551 27.4862 48.7982 36.8533 42.0222 40.2032L18.4317 51.8655C11.7854 55.1512 4 50.3152 4 42.9011V14.4144Z" stroke="#01509F" stroke-width="8"/>
<path d="M4 14.4144C4 6.28407 13.187 1.55202 19.8064 6.27287L43.3969 23.0972C49.551 27.4862 48.7982 36.8533 42.0222 40.2032L18.4317 51.8655C11.7854 55.1512 4 50.3152 4 42.9011V14.4144Z" stroke="#46A6CA" stroke-width="8"/>
</svg>
